<svg width="522" height="161" fill="none" xmlns="http://www.w3.org/2000/svg"><mask id="a" maskUnits="userSpaceOnUse" x="1.533" y="91.496" width="139.157" height="62.359" fill="#000"><path fill="#fff" d="M1.533 91.496H140.69v62.359H1.533z"/><path d="M5.678 132.727c-.345-2.3-.035-4.417.93-6.351.96-1.96 2.434-3.624 4.426-4.994 2.011-1.4 4.41-2.409 7.196-3.025 2.656-.588 5.062-.697 7.22-.328 2.157.37 3.957 1.159 5.399 2.37 1.442 1.21 2.373 2.766 2.794 4.666a7.976 7.976 0 0 1-.256 4.4c-.504 1.422-1.465 2.946-2.88 4.57-1.417 1.624-3.349 3.444-5.798 5.461l-7.49 6.327-.814-1.827 21.246-4.7 1.297 5.858-28.59 6.325-1.14-5.156 10.978-10.007c1.751-1.589 3.097-2.911 4.038-3.966.962-1.087 1.599-2.033 1.912-2.84.313-.807.38-1.614.202-2.421a3.81 3.81 0 0 0-1.196-2.071c-.586-.553-1.376-.911-2.367-1.073-.992-.163-2.178-.092-3.558.213-1.64.363-2.94.91-3.898 1.641-.964.705-1.617 1.518-1.959 2.441a6.17 6.17 0 0 0-.35 2.863l-7.342 1.624Zm52.984 8.721c-3.307.731-6.312.727-9.015-.013-2.704-.74-4.97-2.096-6.8-4.067-1.834-1.998-3.092-4.533-3.771-7.605-.674-3.046-.6-5.862.22-8.447.821-2.585 2.301-4.784 4.44-6.595 2.14-1.812 4.863-3.083 8.17-3.815 3.28-.726 6.272-.718 8.976.022 2.704.74 4.973 2.109 6.808 4.106 1.829 1.972 3.083 4.493 3.763 7.566.674 3.046.6 5.862-.22 8.447-.822 2.585-2.302 4.783-4.441 6.595-2.14 1.811-4.85 3.08-8.13 3.806Zm-1.33-6.015c2.785-.616 4.768-1.901 5.947-3.856 1.205-1.959 1.482-4.411.831-7.353-.65-2.942-1.936-5.047-3.855-6.316-1.894-1.274-4.233-1.604-7.02-.987-2.785.616-4.78 1.904-5.986 3.864-1.205 1.96-1.482 4.411-.83 7.353.65 2.943 1.935 5.048 3.855 6.317 1.919 1.268 4.271 1.595 7.057.978Zm16.312-17.742c-.345-2.3-.035-4.417.93-6.351.959-1.96 2.434-3.625 4.425-4.994 2.012-1.401 4.41-2.41 7.197-3.026 2.656-.588 5.062-.697 7.22-.327 2.157.369 3.957 1.159 5.399 2.369 1.442 1.211 2.373 2.766 2.794 4.667a7.975 7.975 0 0 1-.256 4.399c-.504 1.423-1.465 2.946-2.88 4.57-1.417 1.624-3.349 3.445-5.798 5.461l-7.49 6.328-.814-1.828 21.246-4.7 1.297 5.858-28.59 6.325-1.14-5.155 10.978-10.008c1.751-1.589 3.097-2.911 4.038-3.966.962-1.086 1.599-2.033 1.912-2.84.313-.806.38-1.613.202-2.42a3.8 3.8 0 0 0-1.196-2.071c-.586-.553-1.376-.911-2.368-1.074-.992-.163-2.177-.092-3.557.214-1.64.363-2.94.909-3.898 1.64-.964.705-1.617 1.519-1.96 2.441a6.173 6.173 0 0 0-.349 2.863l-7.342 1.625Zm32.465-8.289c-.278-1.877.001-3.701.839-5.47.837-1.77 2.239-3.336 4.204-4.7 1.985-1.394 4.514-2.432 7.587-3.112 2.681-.593 5.076-.754 7.185-.483 2.128.239 3.875.85 5.239 1.831 1.359.956 2.219 2.254 2.582 3.894.294 1.328.158 2.628-.407 3.9-.545 1.241-1.592 2.374-3.14 3.399-1.554.999-3.649 1.777-6.284 2.333l-.173-.782c2.471-.683 4.659-.976 6.565-.878 1.906.097 3.459.573 4.658 1.427 1.2.854 1.978 2.089 2.335 3.703.392 1.771.181 3.47-.634 5.097-.82 1.602-2.221 3.045-4.203 4.331-1.963 1.253-4.48 2.22-7.552 2.899-2.995.663-5.704.825-8.127.487-2.403-.369-4.397-1.171-5.981-2.404-1.563-1.266-2.625-2.916-3.184-4.949l7.343-1.625c.525 1.386 1.498 2.331 2.921 2.836 1.443.473 3.362.444 5.757-.086 2.266-.501 3.909-1.22 4.931-2.156 1.042-.968 1.425-2.077 1.149-3.326-.162-.729-.489-1.285-.984-1.667-.5-.409-1.247-.639-2.242-.692-.995-.053-2.326.105-3.992.473l-5.077 1.123-1.115-5.038 5.077-1.123c2.161-.478 3.618-1.114 4.371-1.909.747-.821 1.011-1.726.792-2.715-.242-1.094-.95-1.825-2.124-2.193-1.147-.375-2.75-.334-4.807.121-2.135.472-3.721 1.205-4.757 2.199-1.01.989-1.48 2.199-1.409 3.631l-7.343 1.624Z"/></mask><path d="m5.678 132.727-.99.149.16 1.059 1.046-.231-.216-.977Zm.93-6.351.895.447.003-.007-.898-.44Zm4.426-4.994.566.824.005-.003-.571-.821Zm14.416-3.353-.17.986.17-.986Zm5.399 2.37-.643.766.643-.766Zm2.538 9.066.943.334.003-.009-.946-.325Zm-2.88 4.57.753.657-.754-.657Zm-5.798 5.461-.636-.772-.01.008.646.764Zm-7.49 6.327-.913.407.541 1.216 1.017-.859-.645-.764Zm-.814-1.827-.216-.976-1.196.264.499 1.119.913-.407Zm21.246-4.7.977-.216-.216-.977-.977.216.216.977Zm1.297 5.858.216.976.976-.216-.216-.976-.976.216Zm-28.59 6.325-.976.216.216.976.977-.216-.216-.976Zm-1.14-5.156-.673-.739-.428.39.125.565.976-.216Zm10.978-10.007-.672-.741-.002.002.674.739Zm4.038-3.966.747.666.002-.004-.749-.662Zm1.912-2.84-.932-.362.932.362Zm-.994-4.492-.686.728.01.009.01.009.666-.746Zm-2.367-1.073.162-.987-.162.987Zm-7.456 1.854.59.807.008-.006.008-.006-.606-.795Zm-1.959 2.441.938.347-.938-.347Zm-.35 2.863.216.976.877-.194-.099-.892-.994.11Zm-6.353 1.476c-.317-2.113-.03-4.02.836-5.756l-1.79-.893c-1.064 2.132-1.397 4.459-1.024 6.946l1.978-.297Zm.84-5.763c.875-1.79 2.228-3.327 4.093-4.61l-1.133-1.648c-2.117 1.456-3.715 3.248-4.757 5.379l1.796.879Zm4.098-4.613c1.888-1.315 4.162-2.277 6.84-2.87l-.431-1.953c-2.893.64-5.417 1.695-7.552 3.182l1.143 1.641Zm6.84-2.87c2.56-.566 4.833-.661 6.836-.318l.337-1.971c-2.311-.396-4.852-.273-7.604.336l.432 1.953Zm6.836-.318c2.011.344 3.64 1.071 4.925 2.15l1.286-1.532c-1.599-1.342-3.57-2.195-5.874-2.589l-.337 1.971Zm4.925 2.15c1.268 1.064 2.086 2.423 2.46 4.116l1.953-.432c-.466-2.107-1.51-3.859-3.127-5.216l-1.286 1.532Zm2.46 4.116a6.975 6.975 0 0 1-.224 3.858l1.89.651a8.973 8.973 0 0 0 .287-4.941l-1.952.432Zm-.221 3.849c-.449 1.265-1.327 2.681-2.692 4.248l1.507 1.314c1.466-1.682 2.51-3.313 3.07-4.893l-1.885-.669Zm-2.692 4.248c-1.368 1.568-3.255 3.35-5.68 5.346l1.272 1.544c2.473-2.037 4.45-3.896 5.915-5.576l-1.507-1.314Zm-5.69 5.354-7.49 6.327 1.291 1.528 7.49-6.327-1.29-1.528Zm-5.93 6.684-.814-1.827-1.827.814.814 1.827 1.827-.814Zm-1.512-.444 21.247-4.7-.433-1.953-21.246 4.701.432 1.952Zm20.054-5.46 1.296 5.858 1.953-.432-1.296-5.858-1.953.432Zm2.057 4.665-28.59 6.325.433 1.953 28.589-6.325-.432-1.953Zm-27.397 7.086-1.14-5.156-1.953.432 1.14 5.156 1.953-.432Zm-1.443-4.201 10.977-10.007-1.347-1.478-10.977 10.007 1.347 1.478Zm10.976-10.006c1.762-1.599 3.138-2.948 4.113-4.04l-1.493-1.332c-.907 1.017-2.224 2.312-3.964 3.891l1.344 1.481Zm4.115-4.044c.994-1.123 1.72-2.173 2.095-3.14l-1.864-.724c-.251.647-.8 1.49-1.729 2.539l1.498 1.325Zm2.095-3.14c.381-.982.47-1.99.246-2.999l-1.953.432c.134.605.088 1.211-.157 1.843l1.864.724Zm.246-2.999a4.802 4.802 0 0 0-1.506-2.6l-1.332 1.491c.45.402.745.904.886 1.541l1.952-.432Zm-1.486-2.582c-.763-.72-1.752-1.146-2.892-1.333l-.324 1.973c.845.139 1.435.429 1.844.815l1.372-1.455Zm-2.892-1.333c-1.157-.19-2.478-.099-3.935.224l.432 1.953c1.302-.289 2.353-.339 3.18-.204l.323-1.973Zm-3.935.224c-1.73.382-3.179.975-4.288 1.822l1.212 1.59c.807-.615 1.957-1.116 3.508-1.459l-.432-1.953Zm-4.272 1.81c-1.088.795-1.883 1.758-2.307 2.9l1.876.695c.26-.702.772-1.367 1.611-1.981l-1.18-1.614Zm-2.307 2.9a7.173 7.173 0 0 0-.406 3.321l1.988-.22a5.174 5.174 0 0 1 .294-2.406l-1.876-.695Zm.372 2.234-7.342 1.625.432 1.953 7.342-1.625-.432-1.953Zm36.843 11.309-.264.964.264-.964Zm-6.8-4.067-.736.676.003.004.733-.68Zm-3.55-16.052-.954-.303.953.303Zm4.44-6.595.646.763-.647-.763Zm17.145-3.793-.264.964.264-.964Zm6.808 4.106-.737.677.004.003.733-.68Zm3.542 16.013.953.303-.953-.303Zm-4.44 6.595.646.763-.646-.763Zm-3.513-6.065-.852-.523-.004.007.856.516Zm-3.024-13.669-.559.83.007.004.552-.834Zm-13.006 2.877.852.524-.852-.524Zm3.024 13.67-.55.834.55-.834Zm8.173 6.016c-3.18.704-6.018.689-8.535-.001l-.529 1.929c2.89.792 6.064.785 9.496.025l-.432-1.953Zm-8.535-.001c-2.532-.693-4.634-1.954-6.33-3.782l-1.467 1.36c1.962 2.114 4.393 3.564 7.269 4.351l.528-1.929Zm-6.327-3.779c-1.698-1.848-2.884-4.216-3.532-7.144l-1.953.432c.712 3.216 2.04 5.918 4.012 8.065l1.473-1.353Zm-3.532-7.144c-.642-2.901-.563-5.535.197-7.929l-1.906-.605c-.882 2.777-.95 5.774-.244 8.966l1.953-.432Zm.197-7.929c.762-2.399 2.133-4.44 4.134-6.134l-1.293-1.526c-2.278 1.929-3.867 4.285-4.747 7.055l1.906.605Zm4.134-6.134c1.992-1.687 4.557-2.898 7.738-3.601l-.432-1.953c-3.432.759-6.312 2.092-8.599 4.028l1.293 1.526Zm7.738-3.601c3.154-.698 5.978-.68 8.497.009l.528-1.929c-2.889-.791-6.049-.787-9.457-.033l.432 1.953Zm8.497.009c2.529.692 4.632 1.964 6.335 3.819l1.473-1.353c-1.966-2.141-4.401-3.607-7.28-4.395l-.528 1.929Zm6.339 3.822c1.688 1.821 2.871 4.173 3.52 7.102l1.952-.432c-.711-3.216-2.037-5.908-4.006-8.03l-1.466 1.36Zm3.52 7.102c.641 2.9.562 5.535-.198 7.928l1.906.606c.882-2.777.95-5.774.244-8.966l-1.953.432Zm-.198 7.928c-.762 2.4-2.133 4.44-4.133 6.135l1.292 1.526c2.278-1.929 3.867-4.285 4.747-7.055l-1.906-.606Zm-4.133 6.135c-1.993 1.687-4.547 2.895-7.7 3.592l.432 1.953c3.408-.754 6.275-2.084 8.56-4.019l-1.292-1.526Zm-8.599-.469c2.983-.66 5.234-2.071 6.588-4.316l-1.712-1.033c-1.004 1.664-2.718 2.823-5.308 3.396l.432 1.953Zm6.584-4.309c1.379-2.243 1.645-4.978.956-8.093l-1.953.432c.613 2.77.324 4.937-.707 6.614l1.704 1.047Zm.956-8.093c-.69-3.114-2.084-5.482-4.28-6.934l-1.104 1.668c1.643 1.086 2.818 2.928 3.43 5.698l1.954-.432Zm-4.274-6.93c-2.174-1.463-4.811-1.793-7.793-1.134l.432 1.953c2.59-.573 4.632-.245 6.244.841l1.117-1.66Zm-7.793-1.134c-2.983.66-5.243 2.074-6.623 4.317l1.704 1.048c1.03-1.676 2.762-2.839 5.35-3.412l-.431-1.953Zm-6.623 4.317c-1.379 2.243-1.644 4.979-.955 8.093l1.953-.432c-.613-2.77-.325-4.936.706-6.613l-1.703-1.048Zm-.955 8.093c.689 3.115 2.084 5.483 4.28 6.935l1.103-1.668c-1.642-1.086-2.818-2.929-3.43-5.699l-1.953.432Zm4.28 6.935c2.197 1.452 4.843 1.781 7.825 1.121l-.431-1.953c-2.59.573-4.65.248-6.291-.836l-1.103 1.668Zm23.922-17.598-.99.148.16 1.059 1.046-.231-.216-.976Zm.93-6.351.895.446.003-.007-.898-.439Zm4.425-4.994.567.824.005-.003-.572-.821Zm14.416-3.353-.168.985.168-.985Zm5.4 2.369-.643.766.643-.766Zm2.538 9.066.943.334.003-.008-.946-.326Zm-2.88 4.57.753.657-.754-.657Zm-5.798 5.461-.636-.772-.01.009.646.763Zm-7.49 6.328-.913.407.541 1.216 1.017-.859-.645-.764Zm-.814-1.828-.216-.976-1.196.265.499 1.118.913-.407Zm21.246-4.7.977-.216-.216-.976-.977.216.216.976Zm1.297 5.858.216.977.976-.216-.216-.977-.976.216Zm-28.59 6.325-.976.216.216.977.977-.216-.216-.977Zm-1.14-5.155-.674-.739-.427.39.125.565.976-.216Zm10.978-10.008-.672-.74-.002.001.674.739Zm4.038-3.966.746.666.003-.003-.749-.663Zm1.912-2.84-.932-.362.932.362Zm-.994-4.491-.686.728.01.009.01.009.666-.746Zm-2.368-1.074.162-.987-.162.987Zm-7.455 1.854.59.807.008-.005.008-.007-.606-.795Zm-1.96 2.441.939.348-.938-.348Zm-.349 2.863.216.977.877-.194-.099-.893-.994.11Zm-6.353 1.476c-.317-2.112-.03-4.02.836-5.756l-1.79-.893c-1.064 2.133-1.397 4.459-1.024 6.946l1.978-.297Zm.839-5.763c.876-1.789 2.229-3.327 4.094-4.609l-1.133-1.648c-2.118 1.456-3.715 3.247-4.757 5.378l1.796.879Zm4.099-4.612c1.888-1.316 4.162-2.278 6.84-2.871l-.431-1.952c-2.893.64-5.417 1.695-7.552 3.181l1.143 1.642Zm6.84-2.871c2.56-.566 4.833-.661 6.836-.318l.337-1.971c-2.312-.396-4.852-.272-7.604.337l.432 1.952Zm6.836-.318c2.011.345 3.64 1.071 4.925 2.15l1.286-1.532c-1.599-1.341-3.57-2.195-5.874-2.589l-.337 1.971Zm4.925 2.15c1.267 1.064 2.086 2.423 2.461 4.117l1.952-.432c-.466-2.108-1.51-3.86-3.127-5.217l-1.286 1.532Zm2.461 4.117a6.977 6.977 0 0 1-.225 3.857l1.891.652a8.973 8.973 0 0 0 .286-4.941l-1.952.432Zm-.222 3.849c-.449 1.265-1.327 2.68-2.692 4.247l1.507 1.314c1.466-1.681 2.509-3.312 3.07-4.893l-1.885-.668Zm-2.692 4.247c-1.368 1.568-3.255 3.35-5.68 5.346l1.272 1.544c2.473-2.036 4.45-3.896 5.915-5.576l-1.507-1.314Zm-5.69 5.355-7.49 6.327 1.291 1.528 7.49-6.328-1.29-1.527Zm-5.93 6.684-.814-1.827-1.827.813.814 1.828 1.827-.814Zm-1.512-.444 21.246-4.701-.432-1.952-21.246 4.7.432 1.953Zm20.054-5.461 1.296 5.858 1.953-.432-1.296-5.858-1.953.432Zm2.056 4.666-28.588 6.325.432 1.953 28.589-6.325-.433-1.953Zm-27.396 7.085-1.14-5.155-1.953.432 1.14 5.155 1.953-.432Zm-1.443-4.2 10.977-10.008-1.347-1.478-10.978 10.008 1.348 1.478Zm10.976-10.006c1.762-1.599 3.138-2.948 4.112-4.041l-1.492-1.331c-.907 1.017-2.224 2.312-3.964 3.891l1.344 1.481Zm4.115-4.044c.994-1.124 1.72-2.174 2.095-3.141l-1.864-.724c-.251.647-.8 1.49-1.729 2.54l1.498 1.325Zm2.095-3.141c.381-.981.47-1.989.246-2.998l-1.953.432a3.102 3.102 0 0 1-.157 1.842l1.864.724Zm.246-2.998a4.804 4.804 0 0 0-1.506-2.601l-1.332 1.492c.45.402.745.904.885 1.541l1.953-.432Zm-1.486-2.583c-.764-.72-1.752-1.146-2.892-1.333l-.324 1.974c.845.138 1.435.429 1.844.815l1.372-1.456Zm-2.892-1.333c-1.157-.19-2.478-.098-3.936.224l.433 1.953c1.302-.288 2.353-.339 3.18-.203l.323-1.974Zm-3.936.224c-1.73.383-3.178.976-4.288 1.822l1.213 1.59c.807-.615 1.957-1.116 3.508-1.459l-.433-1.953Zm-4.271 1.81c-1.088.796-1.883 1.758-2.307 2.9l1.876.696c.26-.703.772-1.367 1.611-1.982l-1.18-1.614Zm-2.307 2.9a7.173 7.173 0 0 0-.406 3.321l1.988-.22a5.171 5.171 0 0 1 .293-2.405l-1.875-.696Zm.372 2.235-7.342 1.624.432 1.953 7.342-1.624-.432-1.953Zm25.339-5.688-.989.147.158 1.061 1.047-.232-.216-.976Zm.839-5.47-.904-.428.904.428Zm4.204-4.7.57.822.005-.003-.575-.818Zm14.772-3.595-.128.992h.008l.008.002.112-.994Zm5.239 1.831-.584.812.009.006.575-.818Zm2.175 7.794-.914-.406-.001.004.915.402Zm-3.14 3.399.541.841.011-.007-.552-.834Zm-6.284 2.333-.977.216.214.966.969-.204-.206-.978Zm-.173-.782-.267-.963-.915.253.205.927.977-.217Zm12.924 9.349.891.456.004-.008-.895-.448Zm-4.203 4.331.538.842.006-.003-.544-.839Zm-15.679 3.386-.152.989.014.002.138-.991Zm-5.981-2.404-.629.777.007.006.008.005.614-.788Zm-3.184-4.949-.216-.977-1.027.227.279 1.015.964-.265Zm7.343-1.625.935-.354-.307-.809-.845.187.217.976Zm2.921 2.836-.334.942.011.004.012.004.311-.95Zm10.688-2.242.676.738.005-.005-.681-.733Zm.165-4.993-.632.774.01.009.011.008.611-.791Zm-2.242-.692-.053.998.053-.998Zm-9.069 1.596-.977.216.216.977.977-.216-.216-.977Zm-1.115-5.038-.216-.976-.976.216.216.976.976-.216Zm9.448-3.032.726.688.007-.008.007-.007-.74-.673Zm-1.332-4.908-.309.95.01.004.299-.954Zm-9.564 2.32-.692-.721-.007.007.699.714Zm-1.409 3.631.216.976.824-.182-.041-.844-.999.05Zm-6.353 1.477c-.249-1.675-.003-3.299.752-4.895l-1.807-.856c-.92 1.942-1.233 3.965-.924 6.045l1.979-.294Zm.752-4.895c.748-1.58 2.018-3.02 3.871-4.306l-1.14-1.643c-2.078 1.441-3.611 3.134-4.538 5.093l1.807.856Zm3.876-4.309c1.85-1.3 4.248-2.295 7.228-2.954l-.432-1.953c-3.165.7-5.826 1.78-7.946 3.27l1.15 1.637Zm7.228-2.954c2.6-.576 4.875-.721 6.841-.468l.255-1.984c-2.251-.29-4.765-.112-7.528.499l.432 1.953Zm6.857-.466c2.004.225 3.575.791 4.767 1.649l1.168-1.623c-1.537-1.106-3.458-1.76-5.712-2.014l-.223 1.988Zm4.776 1.655c1.152.81 1.871 1.893 2.181 3.292l1.953-.432c-.416-1.88-1.418-3.394-2.984-4.496l-1.15 1.636Zm2.181 3.292c.246 1.114.136 2.197-.345 3.278l1.828.813c.65-1.463.811-2.981.47-4.523l-1.953.432Zm-.346 3.282c-.444 1.011-1.331 2.01-2.777 2.967l1.104 1.668c1.651-1.094 2.858-2.36 3.504-3.83l-1.831-.805Zm-2.766 2.96c-1.416.911-3.384 1.654-5.95 2.195l.413 1.957c2.705-.57 4.927-1.382 6.619-2.47l-1.082-1.682Zm-4.767 2.958-.173-.782-1.953.433.173.781 1.953-.432Zm-.883.398c2.401-.663 4.479-.934 6.248-.844l.102-1.997c-2.043-.104-4.342.211-6.883.914l.533 1.927Zm6.248-.844c1.771.091 3.125.528 4.129 1.244l1.16-1.629c-1.394-.994-3.146-1.508-5.187-1.612l-.102 1.997Zm4.129 1.244c.973.692 1.628 1.7 1.939 3.104l1.953-.432c-.404-1.824-1.305-3.286-2.732-4.301l-1.16 1.629Zm1.939 3.104c.342 1.546.16 3.011-.552 4.434l1.789.895c.916-1.832 1.157-3.766.716-5.761l-1.953.432Zm-.548 4.426c-.719 1.404-1.977 2.728-3.857 3.947l1.088 1.678c2.084-1.352 3.628-2.915 4.549-4.714l-1.78-.911Zm-3.852 3.943c-1.835 1.172-4.234 2.103-7.229 2.766l.432 1.953c3.149-.697 5.785-1.699 7.874-3.034l-1.077-1.685Zm-7.229 2.766c-2.907.643-5.493.791-7.773.473l-.276 1.981c2.567.358 5.398.181 8.481-.501l-.432-1.953Zm-7.759.475c-2.27-.349-4.095-1.097-5.518-2.205l-1.229 1.577c1.744 1.359 3.906 2.215 6.443 2.605l.304-1.977Zm-5.504-2.194c-1.393-1.127-2.342-2.594-2.849-4.437l-1.928.531c.612 2.225 1.785 4.057 3.519 5.461l1.258-1.555Zm-3.597-3.195 7.343-1.625-.433-1.952-7.342 1.624.432 1.953Zm6.191-2.247c.632 1.667 1.829 2.824 3.523 3.424l.668-1.885c-1.151-.408-1.902-1.142-2.32-2.247l-1.871.708Zm3.546 3.432c1.687.553 3.811.488 6.284-.059l-.432-1.953c-2.317.513-4.032.504-5.23.112l-.622 1.9Zm6.284-.059c2.335-.517 4.179-1.286 5.391-2.395l-1.351-1.475c-.833.762-2.275 1.431-4.472 1.917l.432 1.953Zm5.396-2.4c1.267-1.177 1.807-2.635 1.444-4.275l-1.953.432c.19.859-.035 1.619-.852 2.378l1.361 1.465Zm1.444-4.275c-.201-.911-.634-1.69-1.348-2.242l-1.223 1.582c.274.212.497.545.618 1.092l1.953-.432Zm-1.327-2.226c-.732-.598-1.723-.857-2.822-.916l-.106 1.997c.891.048 1.395.249 1.663.468l1.265-1.549Zm-2.822-.916c-1.127-.06-2.56.119-4.261.496l.432 1.953c1.631-.361 2.86-.498 3.723-.452l.106-1.997Zm-4.261.496-5.077 1.123.432 1.953 5.077-1.123-.432-1.953Zm-3.885 1.883-1.114-5.038-1.953.432 1.114 5.038 1.953-.432Zm-1.875-3.845 5.077-1.124-.432-1.952-5.077 1.123.432 1.953Zm5.077-1.124c2.192-.485 3.909-1.171 4.881-2.197l-1.452-1.376c-.533.563-1.731 1.149-3.861 1.621l.432 1.952Zm4.895-2.212c.941-1.034 1.325-2.264 1.029-3.604l-1.953.432c.141.638-.003 1.219-.555 1.826l1.479 1.346Zm1.029-3.604c-.328-1.483-1.327-2.469-2.801-2.932l-.599 1.909c.873.274 1.291.75 1.447 1.455l1.953-.432Zm-2.791-2.928c-1.401-.457-3.215-.373-5.333.096l.432 1.952c1.996-.441 3.387-.438 4.282-.147l.619-1.901Zm-5.333.096c-2.227.492-4.012 1.283-5.233 2.454l1.384 1.443c.852-.817 2.239-1.493 4.281-1.945l-.432-1.952Zm-5.24 2.461c-1.219 1.191-1.794 2.681-1.709 4.394l1.998-.099c-.057-1.151.307-2.081 1.109-2.866l-1.398-1.429Zm-.926 3.368-7.343 1.625.432 1.952 7.343-1.624-.432-1.953Z" fill="#8F8FFF" mask="url(#a)"/><mask id="b" maskUnits="userSpaceOnUse" x="157.755" y="7.467" width="362.751" height="111.826" fill="#000"><path fill="#fff" d="M157.755 7.467h362.751v111.826H157.755z"/><path d="m183.671 98.06.306-1.584c2.302-.454 4.255-.518 5.857-.19 1.628.323 2.92.98 3.877 1.97.977.958 1.629 2.179 1.957 3.663.346 1.563.293 3.049-.16 4.46-.458 1.385-1.339 2.591-2.641 3.616-1.277 1.02-2.995 1.769-5.157 2.247l-21.09 4.666-1.061-15.538-5.419-13.754 20.348-4.501c2.708-.6 4.945-.425 6.711.522 1.787.916 2.925 2.48 3.415 4.693a7.814 7.814 0 0 1-.082 3.706c-.325 1.246-1.026 2.398-2.103 3.455-1.083 1.032-2.669 1.888-4.758 2.569Zm-10.184 15.444-3.581-2.854 14.88-3.292c1.276-.282 2.199-.8 2.77-1.555.591-.786.762-1.739.515-2.858-.248-1.12-.848-1.916-1.799-2.388-.931-.504-2.177-.584-3.739-.238l-12.186 2.696-1.14-5.155 11.248-2.489c1.067-.236 1.886-.731 2.457-1.486.565-.78.729-1.704.493-2.772-.19-.859-.645-1.496-1.365-1.91-.726-.44-1.661-.534-2.807-.28l-13.435 2.972 2.004-4.09 4.826 12.001.859 13.698Zm29.068-35.272 5.755 26.012-4.037-2.508 21.949-4.856 1.443 6.523-26.011 5.754-6.48-29.291 7.381-1.633Zm32.626 17.322-1.314-5.936 20.231-4.476 1.313 5.936-20.23 4.476Zm9.899-26.73 19.994 26.302-7.85 1.737-17.397-23.64 2.265-.501-5.763 28.764-7.85 1.737 7.033-32.282 9.568-2.117Zm50.724 6.804c.273 2.589-.107 5.008-1.139 7.257-1.037 2.224-2.636 4.134-4.795 5.732-2.159 1.597-4.775 2.736-7.848 3.415-3.358.743-6.455.76-9.289.048-2.807-.717-5.168-2.066-7.081-4.046-1.913-1.98-3.206-4.493-3.88-7.54-.674-3.046-.561-5.87.338-8.473.899-2.602 2.47-4.82 4.713-6.655 2.27-1.84 5.084-3.132 8.443-3.875 3.072-.68 5.924-.75 8.556-.213 2.631.537 4.886 1.595 6.765 3.173 1.878 1.578 3.243 3.612 4.094 6.1l-7.421 1.641c-.554-1.27-1.338-2.284-2.353-3.043-.988-.765-2.188-1.25-3.599-1.457-1.391-.238-2.933-.17-4.625.204-1.953.432-3.552 1.168-4.797 2.208-1.25 1.014-2.106 2.269-2.567 3.764-.462 1.495-.491 3.153-.087 4.976.403 1.823 1.129 3.314 2.178 4.475 1.049 1.161 2.357 1.95 3.924 2.368 1.561.392 3.319.372 5.271-.06 1.693-.374 3.122-.95 4.289-1.727 1.192-.783 2.075-1.729 2.649-2.84.6-1.115.88-2.379.841-3.79l7.42-1.642Zm6.807 11.194-6.48-29.292 7.343-1.624 5.175 23.394-2.329-1.082 12.502-25.708 7.811-1.728-17.382 34.57-6.64 1.47Zm10.885-17.28 4.301-5.744 15.707 16.19-8.357 1.848-11.651-12.293Zm31.679-10.08 21.207-4.692 1.392 6.288-21.208 4.691-1.391-6.287Zm19.215-17.033 1.391 6.288-21.754 4.813 2.828-4.436 5.893 26.636-7.381 1.633-6.481-29.292 25.504-5.642Zm12.251 10.808 10.975-2.428c1.38-.305 2.405-.86 3.073-1.663.664-.83.868-1.817.615-2.962-.254-1.146-.853-1.942-1.798-2.388-.952-.473-2.117-.556-3.497-.25l-12.029 2.66 2.516-4.366 6.04 27.3-7.382 1.633-6.48-29.292 17.067-3.776c2.187-.484 4.187-.517 6.001-.098 1.813.418 3.328 1.216 4.544 2.395 1.217 1.178 2.03 2.691 2.439 4.54.403 1.822.301 3.525-.305 5.106-.606 1.582-1.642 2.945-3.11 4.089-1.473 1.118-3.303 1.919-5.491 2.402l-11.951 2.644-1.227-5.546Zm5.322 1.65 8.319-1.84 13.812 11.323-8.553 1.892-13.578-11.375Zm19.511-20.663 7.382-1.633 6.48 29.292-7.381 1.633-6.481-29.292Zm27.377-6.056c3.437-.76 6.579-.814 9.428-.16 2.848.653 5.23 1.915 7.146 3.785 1.942 1.864 3.239 4.268 3.89 7.21.645 2.916.483 5.642-.485 8.178-.948 2.504-2.576 4.653-4.883 6.447-2.307 1.794-5.179 3.071-8.616 3.831l-14.294 3.163-6.48-29.292 14.294-3.162Zm-1.137 27.822-4.371-2.72 11.092-2.454c1.875-.415 3.427-1.113 4.657-2.095 1.231-.983 2.091-2.156 2.581-3.52.484-1.392.545-2.907.182-4.548-.369-1.666-1.063-3.014-2.083-4.045-1.02-1.03-2.295-1.732-3.825-2.104-1.529-.371-3.232-.35-5.106.065l-11.092 2.454 2.815-4.31 5.15 23.277Zm31.35-9.967-1.313-5.937 20.23-4.475 1.314 5.936-20.231 4.476Zm9.9-26.73 19.993 26.302-7.85 1.737-17.397-23.64 2.265-.501-5.763 28.764-7.85 1.736 7.033-32.28 9.569-2.118Zm28.045 24.521-3.137-14.177 7.382-1.633 3.136 14.177-7.381 1.633Zm-20.228-26.25 8.163-1.806 14.011 11.484-3.398.752 7.86-16.323 8.163-1.806-10.781 22.377-4.748 1.132-19.27-15.81Z"/></mask><path d="m183.671 98.06-.981-.19-.321 1.666 1.612-.526-.31-.95Zm.306-1.584-.194-.98-.661.13-.127.661.982.19Zm5.857-.19-.201.98.007.002.194-.981Zm3.877 1.97-.719.695.009.01.01.008.7-.713Zm1.797 8.123.95.314.002-.008-.952-.306Zm-2.641 3.616-.619-.785-.005.004.624.781Zm-26.247 6.913-.997.068.079 1.159 1.134-.251-.216-.976Zm-1.061-15.538.998-.068-.011-.154-.057-.144-.93.366Zm-5.419-13.754-.216-.976-1.144.253.43 1.09.93-.367Zm27.059-3.979-.472.881.008.005.008.004.456-.89Zm3.333 8.398-.967-.252.967.252Zm-2.103 3.456.69.724.005-.005.006-.005-.701-.714Zm-14.942 18.013-.623.782 1.762 1.405-.141-2.249-.998.062Zm-3.581-2.854-.216-.976-2.046.453 1.639 1.306.623-.783Zm17.65-4.847.798.604.001-.003-.799-.601Zm-1.284-5.246-.476.879.016.009.016.008.444-.896Zm-15.925 2.458-.976.216.216.976.976-.216-.216-.976Zm-1.14-5.155-.216-.977-.977.216.216.977.977-.216Zm13.705-3.975.797.603.007-.008.006-.008-.81-.587Zm-.872-4.682-.519.855.01.006.01.006.499-.867Zm-16.242 2.692-.898-.44-.914 1.865 2.028-.448-.216-.977Zm2.004-4.09.928-.372-.838-2.084-.988 2.017.898.44Zm4.826 12.001.998-.062-.01-.161-.06-.15-.928.373Zm12.025-1.557.306-1.583-1.964-.379-.305 1.584 1.963.378Zm-.483-.791c2.225-.44 4.035-.484 5.463-.192l.402-1.959c-1.776-.364-3.871-.282-6.252.188l.387 1.962Zm5.47-.19c1.47.29 2.564.867 3.352 1.683l1.438-1.39c-1.125-1.165-2.615-1.901-4.402-2.255l-.388 1.962Zm3.371 1.701c.823.808 1.39 1.85 1.681 3.166l1.953-.432c-.366-1.651-1.104-3.052-2.234-4.161l-1.4 1.427Zm1.681 3.166c.311 1.404.258 2.71-.136 3.939l1.904.611c.511-1.593.566-3.261.185-4.982l-1.953.432Zm-.133 3.93c-.389 1.174-1.141 2.223-2.311 3.145l1.237 1.571c1.435-1.13 2.444-2.492 2.972-4.088l-1.898-.628Zm-2.316 3.149c-1.123.897-2.686 1.596-4.749 2.052l.432 1.953c2.26-.5 4.135-1.3 5.565-2.442l-1.248-1.563Zm-4.749 2.052-21.09 4.666.432 1.952 21.09-4.665-.432-1.953Zm-19.876 5.574-1.061-15.538-1.996.137 1.062 15.537 1.995-.136Zm-1.129-15.836L161.07 87.25l-1.86.733 5.419 13.754 1.86-.733Zm-6.133-12.411 20.348-4.502-.432-1.953-20.348 4.502.432 1.953Zm20.348-4.502c2.564-.567 4.536-.37 6.023.427l.945-1.762c-2.046-1.097-4.548-1.249-7.4-.618l.432 1.953Zm6.039.436c1.485.761 2.46 2.055 2.894 4.02l1.953-.433c-.545-2.461-1.847-4.297-3.935-5.367l-.912 1.78Zm2.894 4.02a6.801 6.801 0 0 1-.072 3.236l1.935.505a8.8 8.8 0 0 0 .09-4.174l-1.953.432Zm-.072 3.236c-.273 1.043-.866 2.042-1.837 2.995l1.402 1.427c1.183-1.162 1.992-2.468 2.37-3.917l-1.935-.505Zm-1.826 2.984c-.936.892-2.369 1.688-4.377 2.342l.619 1.901c2.17-.706 3.908-1.623 5.138-2.795l-1.38-1.448Zm-13.628 17.955-3.582-2.854-1.246 1.565 3.581 2.853 1.247-1.564Zm-3.989-1.095 14.88-3.292-.432-1.953-14.88 3.292.432 1.953Zm14.88-3.292c1.42-.314 2.591-.923 3.352-1.928l-1.596-1.207c-.38.504-1.056.932-2.188 1.182l.432 1.953Zm3.353-1.931c.796-1.059.991-2.323.692-3.675l-1.953.432c.196.887.048 1.529-.337 2.042l1.598 1.201Zm.692-3.675c-.307-1.388-1.084-2.449-2.33-3.068l-.889 1.792c.656.326 1.078.857 1.266 1.708l1.953-.432Zm-2.298-3.051c-1.228-.665-2.751-.707-4.432-.335l.432 1.952c1.443-.319 2.413-.202 3.047.141l.953-1.758Zm-4.432-.335-12.186 2.696.432 1.952 12.186-2.696-.432-1.952Zm-10.993 3.456-1.141-5.155-1.953.432 1.141 5.155 1.953-.432Zm-1.901-3.963 11.248-2.489-.432-1.952-11.248 2.488.432 1.953Zm11.248-2.489c1.261-.278 2.303-.885 3.038-1.858l-1.595-1.207c-.405.536-1.001.92-1.875 1.113l.432 1.953Zm3.051-1.875c.756-1.045.948-2.27.659-3.575l-1.953.432c.184.83.047 1.454-.326 1.97l1.62 1.172Zm.659-3.575c-.247-1.115-.863-1.997-1.842-2.56l-.998 1.733c.46.265.754.656.887 1.26l1.953-.433Zm-1.822-2.549c-1.019-.618-2.242-.69-3.542-.402l.432 1.953c.992-.22 1.639-.104 2.072.159l1.038-1.71Zm-3.542-.402-13.435 2.973.432 1.953 13.435-2.973-.432-1.953Zm-12.321 4.39 2.004-4.09-1.796-.88-2.004 4.09 1.796.88Zm.178-4.157 4.826 12.001 1.856-.747-4.826-12-1.856.746Zm4.756 11.69.859 13.698 1.996-.125-.859-13.698-1.996.125Zm30.925-21.636.977-.217-.216-.976-.977.216.216.977Zm5.755 26.011-.528.849 2.017 1.253-.513-2.318-.976.216Zm-4.037-2.508-.216-.976-2.397.53 2.085 1.296.528-.85Zm21.949-4.856.977-.216-.216-.976-.977.216.216.976Zm1.443 6.523.216.976.977-.216-.216-.976-.977.216Zm-26.011 5.754-.976.216.216.977.976-.216-.216-.977Zm-6.48-29.291-.216-.977-.977.216.216.977.977-.216Zm6.405-1.418 5.755 26.012 1.952-.432-5.754-26.012-1.953.432Zm7.259 24.946-4.037-2.507-1.056 1.699 4.037 2.507 1.056-1.699Zm-4.349-.681 21.949-4.856-.432-1.953-21.949 4.856.432 1.953Zm20.757-5.617 1.443 6.523 1.953-.432-1.443-6.523-1.953.432Zm2.203 5.33-26.011 5.755.432 1.953 26.011-5.755-.432-1.953Zm-24.818 6.515L196.15 79.65l-1.953.431 6.481 29.292 1.953-.432Zm-7.241-28.1 7.381-1.632-.432-1.953-7.381 1.633.432 1.953Zm39.791 14.713-.977.216.216.976.977-.216-.216-.976Zm-1.314-5.936-.216-.977-.976.216.216.977.976-.216Zm20.231-4.476.977-.216-.216-.977-.977.216.216.977Zm1.313 5.936.217.977.976-.217-.216-.976-.977.216ZM245.08 68.824l.797-.605-.388-.51-.625.139.216.976Zm19.994 26.302.216.977 1.526-.338-.946-1.244-.796.605Zm-7.85 1.737-.805.593.385.524.636-.14-.216-.977Zm-17.397-23.64-.216-.976-1.5.332.91 1.237.806-.593Zm2.265-.501.98.196.302-1.504-1.498.332.216.976Zm-5.763 28.764.216.976.637-.141.128-.639-.981-.196Zm-7.85 1.737-.977-.213-.333 1.527 1.526-.338-.216-.976Zm7.033-32.282-.216-.976-.625.138-.136.625.977.213Zm.645 24.397-1.313-5.936-1.953.431 1.313 5.937 1.953-.432Zm-2.074-4.744 20.231-4.476-.432-1.953-20.231 4.476.432 1.953Zm19.039-5.236 1.313 5.936 1.953-.432-1.313-5.936-1.953.432Zm2.073 4.744-20.23 4.475.432 1.953 20.231-4.475-.433-1.953ZM244.284 69.43l19.994 26.302 1.592-1.21-19.993-26.303-1.593 1.21Zm20.574 24.72-7.85 1.737.432 1.953 7.85-1.737-.432-1.953Zm-6.829 2.12-17.397-23.64-1.611 1.186 17.398 23.64 1.61-1.186ZM240.043 74.2l2.265-.502-.432-1.952-2.265.5.432 1.954Zm1.068-1.675-5.762 28.764 1.961.393 5.762-28.764-1.961-.393Zm-4.998 27.984-7.85 1.737.432 1.953 7.85-1.737-.432-1.953Zm-6.657 2.926 7.033-32.28-1.954-.427-7.033 32.282 1.954.425Zm6.272-31.517 9.568-2.117-.432-1.953-9.568 2.117.432 1.953Zm60.076 3.71.995-.105-.117-1.113-1.094.242.216.976Zm-1.139 7.257.906.423.003-.006-.909-.417Zm-4.795 5.732-.595-.804.595.804Zm-17.137 3.463-.247.969h.004l.243-.969Zm-7.081-4.046-.719.695.719-.695Zm-3.542-16.013-.946-.326.946.326Zm4.713-6.655-.63-.777-.003.003.633.774Zm23.764-.915-.643.766.643-.766Zm4.094 6.1.216.976 1.092-.242-.362-1.058-.946.324Zm-7.421 1.641-.916.4.329.755.803-.178-.216-.977Zm-2.353-3.043-.611.79.006.006.007.005.598-.801Zm-3.599-1.457-.169.986.012.002.012.001.145-.989Zm-9.422 2.412.63.777.006-.005.006-.005-.642-.767Zm-2.567 3.764.955.294-.955-.294Zm2.091 9.451-.742.67.742-.67Zm3.924 2.368-.258.967.007.002.007.001.244-.97Zm9.56-1.787-.549-.836-.006.004.555.832Zm2.649-2.84-.881-.473-.004.007-.004.008.889.459Zm.841-3.79-.216-.977-.807.179.023.825 1-.027Zm6.426-1.537c.254 2.42-.101 4.658-1.054 6.736l1.818.833c1.111-2.42 1.515-5.02 1.225-7.779l-1.989.21Zm-1.051 6.73c-.961 2.058-2.446 3.842-4.484 5.35l1.19 1.608c2.28-1.688 3.992-3.725 5.106-6.113l-1.812-.846Zm-4.484 5.35c-2.029 1.5-4.51 2.588-7.469 3.243l.432 1.953c3.187-.705 5.937-1.895 8.227-3.588l-1.19-1.608Zm-7.469 3.243c-3.234.715-6.17.722-8.829.054l-.487 1.94c3.009.755 6.265.73 9.748-.041l-.432-1.953Zm-8.825.055c-2.638-.674-4.832-1.932-6.609-3.772l-1.439 1.39c2.049 2.12 4.575 3.56 7.553 4.32l.495-1.938Zm-6.609-3.772c-1.769-1.83-2.984-4.17-3.624-7.06l-1.952.431c.708 3.202 2.079 5.889 4.137 8.019l1.439-1.39Zm-3.624-7.06c-.639-2.891-.524-5.526.307-7.931l-1.891-.653c-.967 2.799-1.077 5.813-.368 9.015l1.952-.432Zm.307-7.931c.835-2.418 2.294-4.484 4.401-6.208l-1.266-1.548c-2.379 1.945-4.063 4.316-5.026 7.103l1.891.653Zm4.398-6.205c2.129-1.727 4.795-2.96 8.029-3.676l-.432-1.953c-3.484.771-6.447 2.121-8.857 4.075l1.26 1.554Zm8.029-3.676c2.958-.654 5.667-.715 8.139-.21l.401-1.96c-2.791-.57-5.786-.487-8.972.218l.432 1.952Zm8.139-.21c2.485.508 4.583 1.499 6.323 2.96l1.286-1.532c-2.018-1.695-4.429-2.82-7.208-3.387l-.401 1.96Zm6.323 2.96c1.729 1.453 2.994 3.328 3.791 5.657l1.892-.647c-.905-2.647-2.369-4.838-4.397-6.542l-1.286 1.532Zm4.521 4.357-7.421 1.642.432 1.953 7.421-1.642-.432-1.953Zm-6.288 2.219c-.617-1.414-1.504-2.573-2.671-3.445l-1.197 1.602c.862.645 1.543 1.516 2.035 2.642l1.833-.8Zm-2.658-3.435c-1.142-.884-2.509-1.427-4.066-1.655l-.29 1.978c1.265.186 2.298.614 3.133 1.259l1.223-1.582Zm-4.042-1.652c-1.545-.264-3.219-.183-5.01.214l.432 1.952c1.594-.352 3.002-.406 4.24-.194l.338-1.972Zm-5.01.214c-2.074.458-3.829 1.253-5.222 2.417l1.283 1.534c1.096-.916 2.538-1.593 4.371-1.999l-.432-1.952Zm-5.21 2.407c-1.4 1.136-2.372 2.556-2.894 4.246l1.911.59c.401-1.3 1.141-2.389 2.242-3.282l-1.259-1.553Zm-2.894 4.246c-.521 1.69-.541 3.528-.108 5.487l1.953-.432c-.373-1.686-.335-3.165.066-4.466l-1.911-.59Zm-.108 5.487c.434 1.96 1.227 3.617 2.413 4.93l1.484-1.341c-.912-1.01-1.571-2.335-1.944-4.021l-1.953.432Zm2.413 4.93c1.183 1.31 2.662 2.198 4.408 2.664l.516-1.933c-1.388-.37-2.526-1.06-3.44-2.072l-1.484 1.34Zm4.422 2.667c1.745.438 3.663.404 5.731-.053l-.432-1.953c-1.837.406-3.433.413-4.812.066l-.487 1.94Zm5.731-.053c1.786-.395 3.337-1.012 4.627-1.872l-1.109-1.664c-1.042.694-2.35 1.229-3.95 1.583l.432 1.953Zm4.621-1.868c1.316-.863 2.326-1.933 2.989-3.216l-1.777-.918c-.484.937-1.24 1.76-2.309 2.462l1.097 1.672Zm2.982-3.202c.691-1.287 1.003-2.726.959-4.292l-1.999.055c.035 1.258-.214 2.345-.722 3.29l1.762.947Zm.176-3.288 7.42-1.642-.432-1.952-7.42 1.641.432 1.953Zm14.011 8.576-.976.216.216.976.976-.216-.216-.976Zm-6.48-29.292-.216-.976-.976.216.216.976.976-.216Zm7.343-1.624.976-.216-.216-.977-.976.216.216.977Zm5.175 23.394-.421.907 1.835.853-.437-1.976-.977.216Zm-2.329-1.082-.899-.438-.445.915.923.43.421-.907Zm12.502-25.708-.216-.976-.472.104-.211.435.899.437Zm7.811-1.728.894.45.945-1.881-2.055.455.216.976Zm-17.382 34.57.216.977.464-.102.213-.425-.893-.45Zm4.245-15.81-.801-.599-.505.675.58.613.726-.688Zm4.301-5.744.717-.696-.816-.841-.702.938.801.6Zm15.707 16.19.216.976 1.75-.387-1.248-1.286-.718.696Zm-8.357 1.848-.726.688.389.41.553-.121-.216-.977Zm-21.559 4.77-6.481-29.292-1.952.432 6.48 29.292 1.953-.432Zm-7.241-28.1 7.343-1.624-.432-1.953-7.343 1.625.432 1.953Zm6.15-2.384 5.176 23.394 1.953-.432-5.176-23.394-1.953.432Zm6.574 22.271-2.329-1.082-.843 1.813 2.329 1.083.843-1.814Zm-1.851.262 12.502-25.708-1.799-.874-12.502 25.707 1.799.875Zm11.818-25.169 7.812-1.728-.433-1.953-7.811 1.729.432 1.952Zm6.702-3.153-17.383 34.57 1.787.9 17.383-34.572-1.787-.898Zm-16.705 34.044-6.64 1.468.432 1.953 6.64-1.469-.432-1.952Zm5.261-14.235 4.301-5.745-1.601-1.198-4.301 5.744 1.601 1.199Zm2.783-5.648 15.708 16.19 1.435-1.393-15.708-16.19-1.435 1.393Zm16.209 14.517-8.357 1.849.432 1.953 8.357-1.85-.432-1.952Zm-7.416 2.137-11.65-12.293-1.452 1.376 11.651 12.293 1.451-1.376Zm19.303-21.686-.216-.977-.976.216.216.977.976-.216Zm21.207-4.692.977-.216-.216-.977-.977.216.216.977Zm1.392 6.288.216.976.976-.216-.216-.976-.976.216Zm-21.208 4.691-.976.217.216.976.976-.216-.216-.977Zm17.824-23.32.976-.216-.216-.977-.976.217.216.976Zm1.391 6.288.216.976.976-.216-.216-.976-.976.216Zm-21.754 4.813-.843-.538-1.298 2.036 2.357-.522-.216-.976Zm2.828-4.436.977-.216-.522-2.357-1.298 2.035.843.538Zm5.893 26.636.216.976.977-.216-.216-.976-.977.216Zm-7.381 1.633-.977.216.216.976.977-.216-.216-.976Zm-6.481-29.292-.216-.976-.976.216.216.976.976-.216Zm6.505 12.367 21.207-4.692-.432-1.953-21.207 4.692.432 1.953Zm20.015-5.452 1.391 6.288 1.953-.432-1.391-6.288-1.953.432Zm2.152 5.095-21.208 4.692.432 1.953 21.208-4.692-.432-1.953Zm-20.015 5.453-1.391-6.289-1.953.433 1.391 6.288 1.953-.432Zm15.87-22.89 1.391 6.289 1.953-.432-1.391-6.288-1.953.432Zm2.152 5.096-21.754 4.813.432 1.953 21.754-4.813-.432-1.953Zm-20.695 6.327 2.829-4.435-1.687-1.076-2.828 4.436 1.686 1.075Zm1.009-4.757 5.893 26.636 1.953-.432-5.893-26.636-1.953.432Zm6.653 25.443-7.381 1.633.432 1.953 7.381-1.633-.432-1.953Zm-6.189 2.394-6.48-29.292-1.953.432 6.48 29.292 1.953-.432Zm-7.241-28.1 25.504-5.642-.432-1.953-25.504 5.643.432 1.953Zm37.539 4.19-.216-.976-.976.216.216.977.976-.217Zm14.048-4.09.769.64.006-.008.006-.008-.781-.625Zm-1.183-5.351-.445.895.009.005.009.004.427-.904Zm-15.526 2.41-.867-.499-1.132 1.966 2.215-.49-.216-.977Zm2.516-4.366.976-.216-.556-2.516-1.286 2.233.866.499Zm6.04 27.3.216.976.976-.216-.216-.976-.976.216Zm-7.382 1.633-.976.216.216.976.976-.216-.216-.976Zm-6.48-29.292-.216-.976-.977.216.216.976.977-.216Zm23.068-3.874-.225.974.225-.974Zm4.544 2.395.696-.719-.696.718Zm2.134 9.646.934.358-.934-.358Zm-3.11 4.089.605.796.01-.008-.615-.788Zm-17.442 5.046-.976.216.216.977.976-.216-.216-.977Zm4.095-3.896-.216-.977-1.983.44 1.557 1.303.642-.766Zm8.319-1.84.634-.774-.375-.308-.475.105.216.976Zm13.812 11.323.216.977 2.01-.445-1.592-1.305-.634.773Zm-8.553 1.892-.642.767.377.316.481-.106-.216-.977Zm-18.684-12.048 10.975-2.428-.432-1.953-10.975 2.428.432 1.953Zm10.975-2.428c1.521-.337 2.773-.975 3.626-2l-1.537-1.28c-.485.583-1.282 1.053-2.521 1.327l.432 1.953Zm3.638-2.015c.874-1.093 1.121-2.398.81-3.803l-1.952.432c.195.885.033 1.555-.42 2.122l1.562 1.249Zm.81-3.803c-.311-1.406-1.085-2.48-2.347-3.077l-.854 1.809c.629.297 1.053.814 1.249 1.7l1.952-.432Zm-2.33-3.068c-1.214-.603-2.628-.67-4.157-.331l.432 1.953c1.231-.273 2.148-.172 2.836.17l.889-1.792Zm-4.157-.331-12.029 2.661.432 1.953 12.029-2.661-.432-1.953Zm-10.947 4.137 2.516-4.367-1.732-.998-2.517 4.366 1.733.999Zm.674-4.65 6.039 27.3 1.953-.432-6.04-27.3-1.952.432Zm6.8 26.107-7.382 1.633.432 1.953 7.382-1.633-.432-1.953Zm-6.189 2.394-6.481-29.292-1.953.432 6.481 29.292 1.953-.432Zm-7.241-28.1 17.067-3.776-.432-1.952-17.067 3.776.432 1.952Zm17.067-3.776c2.071-.458 3.918-.479 5.56-.1l.449-1.949c-1.984-.458-4.138-.413-6.441.097l.432 1.953Zm5.56-.1c1.654.381 3 1.1 4.073 2.139l1.392-1.437c-1.36-1.317-3.043-2.196-5.016-2.65l-.449 1.948Zm4.073 2.139c1.06 1.026 1.786 2.357 2.158 4.038l1.953-.432c-.446-2.017-1.346-3.712-2.719-5.043l-1.392 1.437Zm2.158 4.038c.366 1.652.267 3.152-.261 4.532l1.867.716c.683-1.783.788-3.687.347-5.68l-1.953.432Zm-.261 4.532c-.535 1.395-1.453 2.614-2.792 3.658l1.23 1.577c1.596-1.244 2.752-2.75 3.429-4.519l-1.867-.716Zm-2.781 3.65c-1.337 1.014-3.027 1.764-5.103 2.223l.432 1.953c2.299-.509 4.27-1.361 5.88-2.583l-1.209-1.593Zm-5.103 2.223-11.951 2.644.432 1.953 11.951-2.644-.432-1.953Zm-10.758 3.404-1.227-5.545-1.953.431L376.892 59l1.953-.432Zm3.334-2.704 8.319-1.84-.432-1.953-8.319 1.84.432 1.953Zm7.469-2.043 13.812 11.323 1.268-1.546-13.812-11.324-1.268 1.547Zm14.23 9.574-8.553 1.892.432 1.953 8.553-1.892-.432-1.953Zm-7.695 2.102L382.606 54.12l-1.285 1.533 13.578 11.376 1.284-1.533Zm5.291-31.272-.216-.976-.976.216.216.976.976-.216Zm7.382-1.633.976-.216-.216-.976-.976.216.216.976Zm6.48 29.292.216.976.977-.216-.216-.976-.977.216Zm-7.381 1.633-.977.216.216.976.977-.216-.216-.976Zm-6.265-28.315 7.382-1.633-.432-1.953-7.382 1.633.432 1.953Zm6.19-2.394 6.48 29.292 1.953-.432-6.481-29.292-1.952.432Zm7.24 28.1-7.381 1.633.432 1.952 7.381-1.633-.432-1.952Zm-6.189 2.393-6.48-29.292-1.953.432 6.48 29.292 1.953-.432Zm29.348-35.293-.224.975.224-.975Zm7.146 3.786-.698.716.006.005.692-.721Zm3.405 15.388-.934-.357-.001.003.935.354Zm-4.883 6.447-.614-.79.614.79Zm-22.91 6.994-.976.216.216.976.976-.216-.216-.976Zm-6.48-29.292-.216-.976-.977.216.216.976.977-.216Zm13.157 24.66-.528.85 2.018 1.255-.514-2.32-.976.215Zm-4.371-2.72-.216-.976-2.394.53 2.082 1.295.528-.849Zm15.749-4.55-.624-.78.624.78Zm2.581-3.52.941.338.003-.009-.944-.329Zm-1.901-8.592-.711.703.711-.703Zm-3.825-2.104.236-.971-.236.971Zm-16.198 2.519-.837-.547-1.341 2.053 2.394-.53-.216-.976Zm2.815-4.31.977-.216-.514-2.321-1.3 1.99.837.547Zm6.503-3.569c3.321-.735 6.311-.776 8.988-.162l.447-1.95c-3.019-.692-6.315-.627-9.867.16l.432 1.952Zm8.988-.162c2.687.616 4.899 1.796 6.672 3.526l1.397-1.43c-2.059-2.01-4.611-3.355-7.622-4.045l-.447 1.949Zm6.678 3.532c1.783 1.712 2.992 3.932 3.605 6.705l1.953-.432c-.688-3.111-2.072-5.698-4.173-7.715l-1.385 1.442Zm3.605 6.705c.608 2.745.449 5.27-.442 7.605l1.868.714c1.045-2.737 1.21-5.664.527-8.751l-1.953.432Zm-.443 7.608c-.878 2.316-2.386 4.32-4.562 6.011l1.228 1.58c2.438-1.897 4.185-4.192 5.204-6.883l-1.87-.708Zm-4.562 6.011c-2.168 1.687-4.897 2.91-8.218 3.645l.432 1.953c3.553-.786 6.568-2.117 9.014-4.019l-1.228-1.579Zm-8.218 3.645-14.294 3.162.432 1.953 14.294-3.162-.432-1.953Zm-13.102 3.923-6.48-29.292-1.953.432 6.481 29.292 1.952-.432Zm-7.24-28.1 14.294-3.162-.432-1.953-14.294 3.163.432 1.953Zm13.469 22.835-4.37-2.72-1.057 1.698 4.371 2.72 1.056-1.698Zm-4.683-.895 11.092-2.454-.432-1.952-11.092 2.454.432 1.952Zm11.092-2.454c1.992-.44 3.692-1.194 5.065-2.29l-1.248-1.563c-1.087.868-2.491 1.512-4.249 1.9l.432 1.953Zm5.065-2.29c1.362-1.088 2.34-2.41 2.898-3.964l-1.882-.676c-.422 1.176-1.165 2.2-2.264 3.077l1.248 1.563Zm2.901-3.973c.554-1.59.612-3.296.214-5.092l-1.952.432c.328 1.486.265 2.81-.151 4.002l1.889.658Zm.214-5.092c-.402-1.817-1.173-3.346-2.348-4.533l-1.422 1.407c.865.875 1.482 2.043 1.818 3.558l1.952-.432Zm-2.348-4.533c-1.162-1.173-2.606-1.96-4.3-2.371l-.472 1.943c1.366.332 2.472.947 3.35 1.835l1.422-1.407Zm-4.3-2.371c-1.707-.415-3.567-.381-5.558.06l.432 1.952c1.757-.389 3.302-.398 4.654-.069l.472-1.943Zm-5.558.06-11.092 2.453.432 1.953 11.092-2.454-.432-1.952Zm-10.039 3.977 2.816-4.31-1.675-1.094-2.815 4.31 1.674 1.094Zm1.002-4.641 5.15 23.277 1.952-.432-5.149-23.277-1.953.432Zm37.476 13.094-.976.216.216.976.976-.216-.216-.976Zm-1.313-5.937-.216-.976-.977.216.216.976.977-.216Zm20.23-4.475.977-.216-.216-.977-.977.216.216.977Zm1.314 5.936.216.976.976-.216-.216-.976-.976.216Zm-10.331-22.254.796-.605-.387-.51-.625.139.216.976Zm19.993 26.302.216.977 1.526-.338-.945-1.244-.797.605Zm-7.85 1.737-.805.593.386.524.635-.14-.216-.977Zm-17.397-23.64-.216-.976-1.5.331.91 1.238.806-.593Zm2.265-.501.981.196.301-1.504-1.498.331.216.977Zm-5.763 28.764.216.976.637-.14.128-.64-.981-.196Zm-7.85 1.736-.977-.212-.332 1.526 1.525-.337-.216-.977Zm7.033-32.28-.216-.977-.625.138-.136.625.977.213Zm.645 24.396-1.313-5.937-1.953.432 1.314 5.937 1.952-.432Zm-2.073-4.744 20.23-4.476-.432-1.953-20.23 4.476.432 1.953Zm19.038-5.236 1.313 5.936 1.953-.432-1.313-5.937-1.953.433Zm2.074 4.744-20.231 4.475.432 1.953 20.231-4.476-.432-1.952Zm-10.911-20.673L488.161 46.2l1.593-1.21-19.994-26.302-1.592 1.21Zm20.573 24.72-7.85 1.738.432 1.953 7.85-1.737-.432-1.953Zm-6.828 2.121L464.515 23.1l-1.611 1.186 17.398 23.64 1.611-1.186Zm-17.987-22.07 2.265-.502-.432-1.953-2.265.502.432 1.952Zm1.069-1.675-5.763 28.764 1.961.393 5.763-28.764-1.961-.393Zm-4.999 27.984-7.85 1.737.432 1.953 7.85-1.737-.432-1.953Zm-6.657 2.926 7.033-32.281-1.954-.426-7.033 32.282 1.954.425Zm6.272-31.517 9.569-2.117-.432-1.953-9.569 2.117.432 1.953Zm37.398 21.427-.976.216.216.976.976-.216-.216-.976Zm-3.137-14.177-.216-.977-.976.216.216.977.976-.216Zm7.382-1.633.976-.216-.216-.977-.976.216.216.977Zm3.136 14.177.216.976.977-.216-.216-.976-.977.216Zm-27.609-24.617-.216-.977-2.009.445 1.591 1.305.634-.773Zm8.163-1.806.634-.773-.376-.308-.474.104.216.977Zm14.011 11.484.216.977 2.01-.445-1.592-1.305-.634.773Zm-3.398.752-.901-.434-.893 1.855 2.01-.444-.216-.977Zm7.86-16.323-.216-.976-.474.104-.211.438.901.434Zm8.163-1.806.9.434.894-1.855-2.01.445.216.976Zm-10.781 22.377.232.973.462-.11.207-.429-.901-.434Zm-4.748 1.132-.634.773.384.315.482-.115-.232-.973Zm1.934 10.224-3.136-14.177-1.953.432 3.137 14.177 1.952-.432Zm-3.897-12.985 7.382-1.633-.432-1.953-7.382 1.633.432 1.953Zm6.19-2.393 3.136 14.177 1.953-.432-3.137-14.177-1.952.432Zm3.896 12.985-7.381 1.633.432 1.952 7.381-1.633-.432-1.952ZM476.997 18.54l8.163-1.806-.432-1.953-8.163 1.806.432 1.953Zm7.313-2.009 14.011 11.485 1.268-1.547-14.011-11.485-1.268 1.547Zm14.429 9.735-3.398.752.432 1.953 3.398-.752-.432-1.953Zm-2.281 2.162 7.86-16.323-1.802-.868-7.86 16.323 1.802.868Zm7.175-15.78 8.163-1.806-.432-1.953-8.163 1.806.432 1.952Zm7.046-3.217-10.781 22.377 1.802.868L512.48 10.3l-1.801-.868ZM500.567 31.27l-4.748 1.132.464 1.945 4.748-1.132-.464-1.946Zm-3.881 1.331-19.271-15.81-1.268 1.546 19.27 15.81 1.269-1.546Z" fill="#8F8FFF" mask="url(#b)"/></svg>