<svg width="526" height="93" viewBox="0 0 526 93" fill="none" xmlns="http://www.w3.org/2000/svg">
<mask id="path-1-outside-1_1_1397" maskUnits="userSpaceOnUse" x="1.00066" y="40.0251" width="137.372" height="45.1783" fill="black">
<rect fill="white" x="1.00066" y="40.0251" width="137.372" height="45.1783"/>
<path d="M3.49675 63.8377C3.46203 61.5124 4.05199 59.4558 5.26663 57.6679C6.47904 55.8534 8.16337 54.4007 10.3196 53.3098C12.5002 52.19 15.0122 51.5108 17.8555 51.272C20.566 51.0444 22.9656 51.2576 25.0543 51.9118C27.1431 52.5659 28.8212 53.5891 30.0889 54.9812C31.3565 56.3734 32.0717 58.0394 32.2347 59.9792C32.3619 61.4939 32.0815 62.9357 31.3937 64.3047C30.7036 65.6472 29.5485 67.0287 27.9284 68.4493C26.3082 69.8698 24.15 71.4159 21.4538 73.0874L13.1859 78.3578L12.6232 76.4381L34.3069 74.6171L34.809 80.5961L5.63174 83.0464L5.18987 77.7849L17.4054 69.333C19.3534 67.9919 20.8641 66.8616 21.9375 65.9418C23.0353 64.9933 23.7933 64.1402 24.2113 63.3826C24.6294 62.6249 24.8038 61.8342 24.7346 61.0105C24.6632 60.1601 24.3605 59.4229 23.8264 58.7987C23.3188 58.1723 22.5844 57.7122 21.6231 57.4182C20.6618 57.1243 19.477 57.0365 18.0686 57.1548C16.3945 57.2954 15.0339 57.6639 13.9868 58.2603C12.9375 58.8301 12.1817 59.5492 11.7194 60.4176C11.2571 61.286 11.0141 62.2162 10.9904 63.2084L3.49675 63.8377ZM54.8419 79.5559C51.4672 79.8394 48.4894 79.4338 45.9088 78.3393C43.3281 77.2447 41.2631 75.5984 39.7137 73.4004C38.1621 71.1758 37.2547 68.4956 36.9913 65.36C36.7302 62.2509 37.1791 59.4703 38.3379 57.018C39.4968 54.5658 41.2572 52.5849 43.6191 51.0752C45.9811 49.5656 48.8495 48.6691 52.2242 48.3857C55.5725 48.1045 58.5369 48.5112 61.1175 49.6057C63.6982 50.7002 65.7643 52.3598 67.3159 54.5845C68.8653 56.7825 69.7717 59.4493 70.035 62.585C70.2961 65.694 69.8472 68.4747 68.6884 70.9269C67.5295 73.3792 65.7691 75.3601 63.4072 76.8697C61.0452 78.3794 58.1902 79.2748 54.8419 79.5559ZM54.3264 73.4176C57.1698 73.1788 59.3061 72.1698 60.7356 70.3906C62.1916 68.6091 62.7936 66.2171 62.5414 63.2143C62.2892 60.2115 61.2967 57.9533 59.564 56.4397C57.8578 54.9238 55.5831 54.2853 52.7397 54.5241C49.8964 54.7628 47.7467 55.773 46.2907 57.5544C44.8347 59.3358 44.2328 61.7279 44.4849 64.7307C44.7371 67.7334 45.7296 69.9916 47.4623 71.5053C49.1951 73.0189 51.4831 73.6563 54.3264 73.4176ZM72.8619 58.0124C72.8272 55.6871 73.4172 53.6305 74.6318 51.8426C75.8442 50.0281 77.5286 48.5754 79.6848 47.4844C81.8654 46.3647 84.3774 45.6854 87.2207 45.4466C89.9312 45.219 92.3308 45.4323 94.4195 46.0865C96.5083 46.7406 98.1864 47.7638 99.4541 49.1559C100.722 50.548 101.437 52.214 101.6 54.1539C101.727 55.6685 101.447 57.1104 100.759 58.4794C100.069 59.8219 98.9137 61.2034 97.2936 62.6239C95.6734 64.0445 93.5152 65.5905 90.819 67.262L82.5511 72.5324L81.9884 70.6128L103.672 68.7918L104.174 74.7707L74.9969 77.2211L74.5551 71.9596L86.7706 63.5077C88.7186 62.1666 90.2293 61.0362 91.3027 60.1165C92.4005 59.168 93.1585 58.3149 93.5765 57.5572C93.9946 56.7996 94.169 56.0089 94.0998 55.1851C94.0284 54.3348 93.7257 53.5975 93.1916 52.9734C92.684 52.347 91.9496 51.8868 90.9883 51.5929C90.027 51.299 88.8422 51.2112 87.4338 51.3295C85.7597 51.47 84.3991 51.8385 83.352 52.4349C82.3027 53.0047 81.5469 53.7238 81.0846 54.5922C80.6223 55.4606 80.3793 56.3909 80.3556 57.383L72.8619 58.0124ZM106.144 54.1335C106.118 52.2357 106.639 50.4659 107.705 48.8243C108.771 47.1826 110.369 45.8174 112.499 44.7287C114.653 43.6112 117.298 42.9207 120.434 42.6574C123.171 42.4276 125.566 42.5877 127.619 43.1378C129.696 43.6591 131.346 44.4973 132.567 45.6525C133.785 46.7812 134.465 48.1826 134.606 49.8567C134.72 51.2119 134.411 52.4821 133.681 53.6674C132.976 54.8238 131.787 55.8067 130.116 56.6161C128.442 57.3989 126.262 57.8898 123.576 58.0886L123.509 57.2914C126.049 56.9443 128.257 56.9462 130.133 57.2971C132.009 57.648 133.484 58.3269 134.559 59.3338C135.633 60.3408 136.24 61.668 136.378 63.3155C136.53 65.1225 136.094 66.7782 135.069 68.2825C134.043 69.7603 132.461 71.0036 130.325 72.0126C128.213 72.9928 125.589 73.6146 122.453 73.8779C119.397 74.1345 116.691 73.9337 114.334 73.2752C112.002 72.588 110.133 71.5273 108.728 70.0932C107.348 68.6303 106.516 66.8536 106.234 64.7633L113.727 64.134C114.063 65.5776 114.901 66.6445 116.244 67.3346C117.611 67.9959 119.517 68.2238 121.961 68.0185C124.273 67.8244 125.998 67.3316 127.136 66.5403C128.298 65.7202 128.825 64.6724 128.718 63.3969C128.656 62.6528 128.405 62.0584 127.966 61.6135C127.525 61.1421 126.815 60.8137 125.836 60.6283C124.857 60.4429 123.518 60.4216 121.817 60.5645L116.635 60.9996L116.203 55.8577L121.385 55.4226C123.591 55.2373 125.12 54.8012 125.972 54.1141C126.822 53.4005 127.204 52.5388 127.119 51.529C127.026 50.413 126.422 49.594 125.307 49.072C124.22 48.5479 122.626 48.374 120.527 48.5503C118.348 48.7333 116.679 49.2481 115.519 50.0948C114.385 50.9393 113.758 52.0757 113.637 53.5042L106.144 54.1335Z"/>
</mask>
<path d="M3.49675 63.8377L2.49686 63.8526L2.51285 64.9238L3.58043 64.8342L3.49675 63.8377ZM5.26663 57.6679L6.09383 58.2299L6.0981 58.2235L5.26663 57.6679ZM10.3196 53.3098L10.7711 54.2021L10.7764 54.1993L10.3196 53.3098ZM25.0543 51.9118L24.7555 52.8661L25.0543 51.9118ZM30.0889 54.9812L29.3495 55.6545L29.3495 55.6545L30.0889 54.9812ZM31.3937 64.3047L32.2831 64.7619L32.2872 64.7537L31.3937 64.3047ZM27.9284 68.4493L28.5877 69.2012L27.9284 68.4493ZM21.4538 73.0874L20.9269 72.2374L20.9163 72.2441L21.4538 73.0874ZM13.1859 78.3578L12.2262 78.639L12.6007 79.9167L13.7234 79.201L13.1859 78.3578ZM12.6232 76.4381L12.5396 75.4416L11.3192 75.5441L11.6636 76.7194L12.6232 76.4381ZM34.3069 74.6171L35.3034 74.5334L35.2197 73.5369L34.2232 73.6206L34.3069 74.6171ZM34.809 80.5961L34.8927 81.5926L35.8892 81.5089L35.8055 80.5124L34.809 80.5961ZM5.63173 83.0464L4.63524 83.1301L4.71893 84.1266L5.71542 84.0429L5.63173 83.0464ZM5.18987 77.7849L4.62089 76.9626L4.14495 77.2919L4.19338 77.8686L5.18987 77.7849ZM17.4054 69.333L16.8384 68.5093L16.8364 68.5107L17.4054 69.333ZM21.9375 65.9418L22.5882 66.7012L22.5913 66.6985L21.9375 65.9418ZM24.2113 63.3826L23.3358 62.8994L24.2113 63.3826ZM23.8264 58.7987L23.0494 59.4282L23.0578 59.4387L23.0666 59.4489L23.8264 58.7987ZM21.6231 57.4182L21.9155 56.4619L21.6231 57.4182ZM13.9868 58.2603L14.464 59.139L14.4729 59.1342L14.4817 59.1292L13.9868 58.2603ZM11.7194 60.4176L12.6021 60.8875L11.7194 60.4176ZM10.9904 63.2084L11.0741 64.2049L11.9686 64.1297L11.9901 63.2323L10.9904 63.2084ZM4.49663 63.8228C4.46474 61.6865 5.00355 59.8347 6.0938 58.2299L4.43946 57.106C3.10044 59.077 2.45932 61.3383 2.49686 63.8526L4.49663 63.8228ZM6.0981 58.2235C7.20493 56.567 8.75149 55.2239 10.7711 54.2021L9.86819 52.4175C7.57525 53.5776 5.75314 55.1399 4.43516 57.1124L6.0981 58.2235ZM10.7764 54.1993C12.8234 53.1482 15.205 52.4981 17.9392 52.2685L17.7719 50.2755C14.8194 50.5234 12.1771 51.2318 9.86284 52.4202L10.7764 54.1993ZM17.9392 52.2685C20.5509 52.0491 22.8163 52.2588 24.7555 52.8661L25.3532 50.9575C23.1149 50.2565 20.5811 50.0396 17.7719 50.2755L17.9392 52.2685ZM24.7555 52.8661C26.7029 53.476 28.2194 54.4134 29.3495 55.6545L30.8283 54.308C29.4231 52.7648 27.5833 51.6559 25.3532 50.9575L24.7555 52.8661ZM29.3495 55.6545C30.4635 56.8779 31.093 58.3345 31.2382 60.0629L33.2311 59.8955C33.0505 57.7442 32.2495 55.8688 30.8283 54.308L29.3495 55.6545ZM31.2382 60.0629C31.3498 61.3924 31.1059 62.65 30.5001 63.8558L32.2872 64.7537C33.0571 63.2214 33.3739 61.5954 33.2311 59.8955L31.2382 60.0629ZM30.5043 63.8476C29.8907 65.0413 28.8319 66.3271 27.2691 67.6974L28.5877 69.2012C30.2651 67.7303 31.5165 66.2531 32.2831 64.7619L30.5043 63.8476ZM27.2691 67.6974C25.7047 69.0691 23.5961 70.5827 20.9269 72.2375L21.9807 73.9373C24.704 72.249 26.9118 70.6706 28.5877 69.2012L27.2691 67.6974ZM20.9163 72.2441L12.6483 77.5145L13.7234 79.201L21.9913 73.9306L20.9163 72.2441ZM14.1455 78.0765L13.5829 76.1569L11.6636 76.7194L12.2262 78.639L14.1455 78.0765ZM12.7069 77.4346L34.3906 75.6136L34.2232 73.6206L12.5396 75.4416L12.7069 77.4346ZM33.3104 74.7008L33.8125 80.6798L35.8055 80.5124L35.3034 74.5334L33.3104 74.7008ZM34.7253 79.5996L5.54805 82.0499L5.71542 84.0429L34.8927 81.5926L34.7253 79.5996ZM6.62823 82.9627L6.18637 77.7012L4.19338 77.8686L4.63524 83.1301L6.62823 82.9627ZM5.75886 78.6073L17.9744 70.1554L16.8364 68.5107L4.62089 76.9626L5.75886 78.6073ZM17.9725 70.1567C19.9329 68.807 21.4762 67.6539 22.5882 66.7012L21.2869 65.1824C20.2519 66.0692 18.7738 67.1769 16.8384 68.5093L17.9725 70.1567ZM22.5913 66.6985C23.7265 65.7177 24.5858 64.7737 25.0869 63.8657L23.3358 62.8994C23.0007 63.5067 22.3442 64.2689 21.2837 65.1852L22.5913 66.6985ZM25.0869 63.8657C25.5956 62.9437 25.8176 61.9568 25.7311 60.9268L23.7382 61.0941C23.79 61.7117 23.6632 62.3061 23.3358 62.8994L25.0869 63.8657ZM25.7311 60.9268C25.6429 59.8761 25.2621 58.9385 24.5862 58.1485L23.0666 59.4489C23.4588 59.9072 23.6836 60.4441 23.7382 61.0941L25.7311 60.9268ZM24.6033 58.1692C23.9426 57.3537 23.0201 56.7997 21.9155 56.4619L21.3307 58.3745C22.1488 58.6247 22.6951 58.991 23.0494 59.4282L24.6033 58.1692ZM21.9155 56.4619C20.7939 56.119 19.4724 56.0334 17.9849 56.1583L18.1523 58.1513C19.4815 58.0396 20.5297 58.1296 21.3307 58.3745L21.9155 56.4619ZM17.9849 56.1583C16.2195 56.3066 14.7046 56.7006 13.4919 57.3913L14.4817 59.1292C15.3631 58.6272 16.5695 58.2842 18.1523 58.1513L17.9849 56.1583ZM13.5096 57.3815C12.3251 58.0246 11.4092 58.8722 10.8367 59.9477L12.6021 60.8875C12.9542 60.2261 13.5498 59.6355 14.464 59.139L13.5096 57.3815ZM10.8367 59.9477C10.3005 60.9548 10.0181 62.038 9.99065 63.1845L11.9901 63.2323C12.0101 62.3945 12.2137 61.6171 12.6021 60.8875L10.8367 59.9477ZM10.9067 62.2119L3.41306 62.8412L3.58043 64.8342L11.0741 64.2049L10.9067 62.2119ZM45.9088 78.3393L45.5183 79.2599L45.9088 78.3393ZM39.7137 73.4004L38.8935 73.9725L38.8964 73.9765L39.7137 73.4004ZM38.3379 57.018L37.4338 56.5908L38.3379 57.018ZM43.6191 51.0752L44.1577 51.9178L44.1577 51.9178L43.6191 51.0752ZM61.1175 49.6057L60.7271 50.5263L60.7271 50.5263L61.1175 49.6057ZM67.3159 54.5845L66.4957 55.1565L66.4986 55.1606L67.3159 54.5845ZM68.6884 70.9269L69.5925 71.3542L68.6884 70.9269ZM63.4072 76.8697L63.9457 77.7123L63.4072 76.8697ZM60.7356 70.3906L59.9613 69.7577L59.956 69.7643L60.7356 70.3906ZM59.564 56.4397L58.8998 57.1873L58.9061 57.1928L59.564 56.4397ZM46.2907 57.5544L47.065 58.1872L46.2907 57.5544ZM47.4623 71.5053L46.8044 72.2584L47.4623 71.5053ZM54.7583 78.5595C51.5119 78.8321 48.7023 78.4378 46.2992 77.4186L45.5183 79.2599C48.2766 80.4298 51.4224 80.8466 54.9256 80.5524L54.7583 78.5595ZM46.2992 77.4186C43.8826 76.3937 41.9684 74.8633 40.5311 72.8242L38.8964 73.9765C40.5578 76.3336 42.7737 78.0958 45.5183 79.2599L46.2992 77.4186ZM40.5339 72.8283C39.0982 70.7698 38.2388 68.2649 37.9878 65.2763L35.9948 65.4437C36.2705 68.7264 37.226 71.5817 38.8935 73.9724L40.5339 72.8283ZM37.9878 65.2763C37.7392 62.316 38.1692 59.7157 39.2421 57.4453L37.4338 56.5908C36.189 59.2249 35.7212 62.1859 35.9948 65.4437L37.9878 65.2763ZM39.2421 57.4453C40.3178 55.169 41.9486 53.3297 44.1577 51.9178L43.0806 50.2326C40.5657 51.84 38.6758 53.9626 37.4338 56.5908L39.2421 57.4453ZM44.1577 51.9178C46.3571 50.5121 49.0616 49.6548 52.3079 49.3822L52.1406 47.3892C48.6373 47.6834 45.6051 48.6191 43.0806 50.2326L44.1577 51.9178ZM52.3079 49.3822C55.5262 49.1119 58.3229 49.5066 60.7271 50.5263L61.508 48.6851C58.7508 47.5157 55.6187 47.0971 52.1406 47.3892L52.3079 49.3822ZM60.7271 50.5263C63.1407 51.55 65.0555 53.0915 66.4957 55.1565L68.1361 54.0124C66.4732 51.6281 64.2557 49.8505 61.508 48.6851L60.7271 50.5263ZM66.4986 55.1606C67.9293 57.1902 68.7875 59.6797 69.0385 62.6687L71.0315 62.5013C70.7558 59.2189 69.8014 56.3748 68.1333 54.0083L66.4986 55.1606ZM69.0385 62.6687C69.2871 65.629 68.8572 68.2293 67.7843 70.4997L69.5925 71.3542C70.8373 68.7201 71.3051 65.7591 71.0315 62.5013L69.0385 62.6687ZM67.7843 70.4997C66.7086 72.7759 65.0777 74.6152 62.8686 76.0271L63.9457 77.7123C66.4606 76.105 68.3505 73.9824 69.5925 71.3542L67.7843 70.4997ZM62.8686 76.0271C60.6683 77.4335 57.9766 78.2892 54.7583 78.5595L54.9256 80.5524C58.4038 80.2603 61.4222 79.3252 63.9457 77.7123L62.8686 76.0271ZM54.4101 74.414C57.4536 74.1585 59.8733 73.0604 61.5152 71.0169L59.956 69.7643C58.7389 71.2791 56.8859 72.1991 54.2427 72.4211L54.4101 74.414ZM61.5099 71.0234C63.1762 68.9847 63.8048 66.3091 63.5379 63.1306L61.5449 63.298C61.7823 66.125 61.2071 68.2336 59.9613 69.7577L61.5099 71.0234ZM63.5379 63.1306C63.2709 59.9521 62.2049 57.4188 60.2219 55.6866L58.9061 57.1928C60.3886 58.4879 61.3075 60.471 61.5449 63.298L63.5379 63.1306ZM60.2282 55.6921C58.2685 53.951 55.6996 53.272 52.6561 53.5276L52.8234 55.5206C55.4666 55.2986 57.4471 55.8966 58.8998 57.1873L60.2282 55.6921ZM52.6561 53.5276C49.6118 53.7832 47.1833 54.8822 45.5164 56.9215L47.065 58.1872C48.3102 56.6637 50.181 55.7425 52.8234 55.5206L52.6561 53.5276ZM45.5164 56.9215C43.8502 58.9602 43.2215 61.6358 43.4884 64.8144L45.4814 64.647C45.244 61.82 45.8192 59.7114 47.065 58.1872L45.5164 56.9215ZM43.4884 64.8144C43.7554 67.9929 44.8215 70.5262 46.8044 72.2584L48.1202 70.7522C46.6377 69.4571 45.7188 67.474 45.4814 64.647L43.4884 64.8144ZM46.8044 72.2584C48.7881 73.9912 51.3659 74.6697 54.4101 74.414L54.2427 72.4211C51.6004 72.643 49.6021 72.0466 48.1202 70.7522L46.8044 72.2584ZM72.8619 58.0124L71.8621 58.0273L71.878 59.0985L72.9456 59.0088L72.8619 58.0124ZM74.6318 51.8426L75.459 52.4046L75.4633 52.3982L74.6318 51.8426ZM79.6848 47.4844L80.1363 48.3768L80.1416 48.374L79.6848 47.4844ZM94.4195 46.0865L94.1207 47.0407L94.4195 46.0865ZM99.4541 49.1559L98.7147 49.8292L98.7147 49.8292L99.4541 49.1559ZM100.759 58.4794L101.648 58.9366L101.652 58.9284L100.759 58.4794ZM97.2936 62.6239L97.9528 63.3758L97.2936 62.6239ZM90.819 67.262L90.2921 66.4121L90.2815 66.4188L90.819 67.262ZM82.5511 72.5324L81.5914 72.8137L81.9659 74.0914L83.0886 73.3757L82.5511 72.5324ZM81.9884 70.6128L81.9048 69.6163L80.6844 69.7188L81.0288 70.894L81.9884 70.6128ZM103.672 68.7918L104.669 68.7081L104.585 67.7116L103.588 67.7953L103.672 68.7918ZM104.174 74.7707L104.258 75.7672L105.254 75.6835L105.171 74.6871L104.174 74.7707ZM74.9969 77.2211L74.0004 77.3048L74.0841 78.3012L75.0806 78.2176L74.9969 77.2211ZM74.5551 71.9596L73.9861 71.1372L73.5101 71.4665L73.5586 72.0433L74.5551 71.9596ZM86.7706 63.5077L86.2035 62.684L86.2016 62.6853L86.7706 63.5077ZM91.3027 60.1165L91.9534 60.8759L91.9565 60.8732L91.3027 60.1165ZM93.5765 57.5572L92.701 57.0741L93.5765 57.5572ZM93.1916 52.9734L92.4146 53.6029L92.423 53.6133L92.4318 53.6235L93.1916 52.9734ZM90.9883 51.5929L91.2807 50.6366L90.9883 51.5929ZM83.352 52.4349L83.8292 53.3137L83.8381 53.3089L83.8469 53.3039L83.352 52.4349ZM81.0846 54.5922L81.9673 55.0621L81.0846 54.5922ZM80.3556 57.383L80.4392 58.3795L81.3338 58.3044L81.3553 57.4069L80.3556 57.383ZM73.8618 57.9974C73.8299 55.8612 74.3687 54.0094 75.459 52.4045L73.8047 51.2807C72.4656 53.2517 71.8245 55.513 71.8621 58.0273L73.8618 57.9974ZM75.4633 52.3982C76.5701 50.7417 78.1167 49.3985 80.1363 48.3767L79.2334 46.5921C76.9405 47.7522 75.1183 49.3145 73.8004 51.287L75.4633 52.3982ZM80.1416 48.374C82.1886 47.3229 84.5702 46.6728 87.3044 46.4431L87.1371 44.4502C84.1846 44.6981 81.5423 45.4065 79.228 46.5949L80.1416 48.374ZM87.3044 46.4431C89.9161 46.2238 92.1815 46.4334 94.1207 47.0407L94.7184 45.1322C92.4801 44.4311 89.9463 44.2142 87.1371 44.4502L87.3044 46.4431ZM94.1207 47.0407C96.0681 47.6506 97.5846 48.5881 98.7147 49.8292L100.193 48.4826C98.7883 46.9394 96.9485 45.8306 94.7184 45.1322L94.1207 47.0407ZM98.7147 49.8292C99.8287 51.0526 100.458 52.5092 100.603 54.2375L102.596 54.0702C102.416 51.9189 101.615 50.0435 100.193 48.4826L98.7147 49.8292ZM100.603 54.2375C100.715 55.567 100.471 56.8247 99.8653 58.0305L101.652 58.9284C102.422 57.396 102.739 55.77 102.596 54.0702L100.603 54.2375ZM99.8695 58.0222C99.2559 59.216 98.1971 60.5018 96.6343 61.872L97.9528 63.3758C99.6303 61.905 100.882 60.4278 101.648 58.9366L99.8695 58.0222ZM96.6343 61.872C95.0699 63.2438 92.9613 64.7574 90.2921 66.4121L91.3459 68.112C94.0692 66.4237 96.277 64.8453 97.9528 63.3758L96.6343 61.872ZM90.2815 66.4188L82.0135 71.6892L83.0886 73.3757L91.3565 68.1053L90.2815 66.4188ZM83.5107 72.2512L82.9481 70.3315L81.0288 70.894L81.5914 72.8137L83.5107 72.2512ZM82.0721 71.6093L103.756 69.7883L103.588 67.7953L81.9048 69.6163L82.0721 71.6093ZM102.676 68.8755L103.178 74.8544L105.171 74.6871L104.669 68.7081L102.676 68.8755ZM104.091 73.7742L74.9132 76.2246L75.0806 78.2176L104.258 75.7672L104.091 73.7742ZM75.9934 77.1374L75.5516 71.8759L73.5586 72.0433L74.0004 77.3048L75.9934 77.1374ZM75.1241 72.7819L87.3396 64.33L86.2016 62.6853L73.9861 71.1372L75.1241 72.7819ZM87.3377 64.3313C89.2981 62.9817 90.8414 61.8286 91.9533 60.8759L90.6521 59.3571C89.6171 60.2439 88.139 61.3516 86.2036 62.684L87.3377 64.3313ZM91.9565 60.8732C93.0917 59.8924 93.951 58.9484 94.4521 58.0404L92.701 57.0741C92.3659 57.6814 91.7094 58.4436 90.6489 59.3598L91.9565 60.8732ZM94.4521 58.0404C94.9608 57.1184 95.1828 56.1314 95.0963 55.1014L93.1034 55.2688C93.1552 55.8863 93.0284 56.4808 92.701 57.0741L94.4521 58.0404ZM95.0963 55.1014C95.0081 54.0508 94.6273 53.1132 93.9513 52.3232L92.4318 53.6235C92.824 54.0819 93.0488 54.6188 93.1034 55.2688L95.0963 55.1014ZM93.9685 52.3438C93.3078 51.5283 92.3853 50.9743 91.2807 50.6366L90.6959 52.5492C91.514 52.7993 92.0603 53.1656 92.4146 53.6029L93.9685 52.3438ZM91.2807 50.6366C90.1591 50.2937 88.8376 50.208 87.3501 50.333L87.5175 52.3259C88.8467 52.2143 89.8949 52.3043 90.6959 52.5492L91.2807 50.6366ZM87.3501 50.333C85.5847 50.4812 84.0698 50.8752 82.8571 51.566L83.8469 53.3039C84.7283 52.8018 85.9347 52.4589 87.5175 52.3259L87.3501 50.333ZM82.8748 51.5561C81.6903 52.1993 80.7744 53.0469 80.2019 54.1223L81.9673 55.0621C82.3193 54.4008 82.915 53.8102 83.8292 53.3137L82.8748 51.5561ZM80.2019 54.1223C79.6657 55.1295 79.3833 56.2127 79.3558 57.3591L81.3553 57.4069C81.3753 56.5691 81.5789 55.7918 81.9673 55.0621L80.2019 54.1223ZM80.2719 56.3865L72.7783 57.0159L72.9456 59.0088L80.4392 58.3795L80.2719 56.3865ZM106.144 54.1335L105.144 54.147L105.158 55.2198L106.227 55.13L106.144 54.1335ZM107.705 48.8243L106.866 48.2795L107.705 48.8243ZM112.499 44.7287L112.954 45.6191L112.96 45.6163L112.499 44.7287ZM127.619 43.1378L127.36 44.1037L127.368 44.1058L127.376 44.1077L127.619 43.1378ZM132.567 45.6525L131.879 46.379L131.887 46.3863L132.567 45.6525ZM133.681 53.6674L132.83 53.1429L132.828 53.1465L133.681 53.6674ZM130.116 56.6161L130.539 57.522L130.551 57.5162L130.116 56.6161ZM123.576 58.0886L122.579 58.1723L122.662 59.1589L123.65 59.0858L123.576 58.0886ZM123.509 57.2914L123.374 56.3006L122.433 56.4291L122.512 57.3751L123.509 57.2914ZM135.069 68.2825L135.891 68.8531L135.896 68.8453L135.069 68.2825ZM130.325 72.0126L130.746 72.9197L130.752 72.9169L130.325 72.0126ZM114.334 73.2752L114.052 74.2346L114.065 74.2383L114.334 73.2752ZM108.728 70.0932L108.001 70.7796L108.008 70.7863L108.014 70.793L108.728 70.0932ZM106.234 64.7633L106.15 63.7668L105.102 63.8548L105.243 64.8973L106.234 64.7633ZM113.727 64.134L114.701 63.9077L114.506 63.0651L113.644 63.1375L113.727 64.134ZM116.244 67.3346L115.787 68.224L115.798 68.2295L115.808 68.2348L116.244 67.3346ZM127.136 66.5403L127.707 67.3613L127.712 67.3573L127.136 66.5403ZM127.966 61.6135L127.236 62.2967L127.245 62.3063L127.254 62.3158L127.966 61.6135ZM125.836 60.6283L125.65 61.6108L125.836 60.6283ZM116.635 60.9996L115.639 61.0833L115.722 62.0798L116.719 61.9961L116.635 60.9996ZM116.203 55.8577L116.12 54.8612L115.123 54.9449L115.207 55.9414L116.203 55.8577ZM125.972 54.1141L126.599 54.8926L126.607 54.8864L126.615 54.88L125.972 54.1141ZM125.307 49.072L124.873 49.973L124.883 49.9776L125.307 49.072ZM115.519 50.0948L114.929 49.2871L114.921 49.2929L115.519 50.0948ZM113.637 53.5042L113.721 54.5007L114.563 54.43L114.634 53.5885L113.637 53.5042ZM107.144 54.12C107.121 52.4266 107.581 50.8502 108.544 49.369L106.866 48.2795C105.696 50.0817 105.116 52.0447 105.144 54.147L107.144 54.12ZM108.544 49.369C109.496 47.9034 110.946 46.6457 112.954 45.6191L112.044 43.8383C109.793 44.9891 108.047 46.4617 106.866 48.2795L108.544 49.369ZM112.96 45.6163C114.967 44.5748 117.476 43.9093 120.517 43.6539L120.35 41.6609C117.12 41.9322 114.339 42.6476 112.038 43.841L112.96 45.6163ZM120.517 43.6539C123.171 43.431 125.446 43.5908 127.36 44.1037L127.878 42.1719C125.686 41.5846 123.17 41.4241 120.35 41.6609L120.517 43.6539ZM127.376 44.1077C129.331 44.5985 130.813 45.3697 131.879 46.3789L133.254 44.9262C131.879 43.6249 130.062 42.7197 127.862 42.1679L127.376 44.1077ZM131.887 46.3863C132.921 47.3432 133.489 48.5117 133.609 49.9403L135.602 49.773C135.441 47.8534 134.65 46.2191 133.246 44.9188L131.887 46.3863ZM133.609 49.9403C133.705 51.0772 133.451 52.1351 132.83 53.1429L134.533 54.1918C135.372 52.8292 135.734 51.3465 135.602 49.773L133.609 49.9403ZM132.828 53.1465C132.253 54.0888 131.24 54.9604 129.68 55.7161L130.551 57.5162C132.334 56.6531 133.699 55.5588 134.535 54.1883L132.828 53.1465ZM129.692 55.7103C128.166 56.4238 126.118 56.8977 123.502 57.0913L123.65 59.0858C126.406 58.8818 128.717 58.3741 130.539 57.5219L129.692 55.7103ZM124.572 58.0049L124.505 57.2077L122.512 57.3751L122.579 58.1723L124.572 58.0049ZM123.644 58.2822C126.112 57.9449 128.207 57.9543 129.949 58.28L130.317 56.3141C128.306 55.9381 125.986 55.9436 123.374 56.3006L123.644 58.2822ZM129.949 58.28C131.692 58.6061 132.975 59.2204 133.875 60.0636L135.242 58.6041C133.993 57.4335 132.325 56.6899 130.317 56.3141L129.949 58.28ZM133.875 60.0636C134.747 60.8802 135.261 61.9658 135.382 63.3992L137.375 63.2318C137.218 61.3702 136.52 59.8013 135.242 58.6041L133.875 60.0636ZM135.382 63.3992C135.514 64.9767 135.138 66.4042 134.243 67.7197L135.896 68.8453C137.049 67.1521 137.546 65.2684 137.375 63.2318L135.382 63.3992ZM134.248 67.712C133.348 69.0077 131.924 70.1514 129.898 71.1084L130.752 72.9169C132.998 71.8558 134.738 70.5128 135.891 68.853L134.248 67.712ZM129.904 71.1056C127.928 72.0224 125.427 72.6247 122.37 72.8814L122.537 74.8744C125.751 74.6045 128.497 73.9632 130.746 72.9197L129.904 71.1056ZM122.37 72.8814C119.404 73.1305 116.821 72.9315 114.603 72.3121L114.065 74.2383C116.562 74.9358 119.391 75.1386 122.537 74.8744L122.37 72.8814ZM114.617 72.316C112.414 71.6669 110.706 70.6824 109.443 69.3934L108.014 70.793C109.561 72.3723 111.59 73.5091 114.052 74.2345L114.617 72.316ZM109.456 69.4069C108.226 68.1037 107.481 66.5232 107.225 64.6293L105.243 64.8973C105.552 67.1841 106.47 69.1569 108.001 70.7796L109.456 69.4069ZM106.317 65.7598L113.811 65.1305L113.644 63.1375L106.15 63.7668L106.317 65.7598ZM112.753 64.3602C113.156 66.0962 114.189 67.4024 115.787 68.224L116.701 66.4452C115.614 65.8866 114.969 65.0591 114.701 63.9077L112.753 64.3602ZM115.808 68.2348C117.407 69.0083 119.521 69.227 122.045 69.015L121.878 67.022C119.512 67.2207 117.814 66.9835 116.679 66.4344L115.808 68.2348ZM122.045 69.015C124.427 68.8149 126.358 68.2993 127.707 67.3613L126.565 65.7194C125.638 66.3639 124.119 66.8338 121.878 67.022L122.045 69.015ZM127.712 67.3573C129.125 66.3601 129.855 64.9871 129.715 63.3132L127.722 63.4805C127.795 64.3576 127.47 65.0803 126.559 65.7233L127.712 67.3573ZM129.715 63.3132C129.637 62.3835 129.312 61.5537 128.678 60.9113L127.254 62.3158C127.498 62.563 127.675 62.9222 127.722 63.4805L129.715 63.3132ZM128.697 60.9304C128.051 60.2402 127.104 59.8506 126.022 59.6458L125.65 61.6108C126.527 61.7769 127 62.044 127.236 62.2967L128.697 60.9304ZM126.022 59.6458C124.914 59.4358 123.47 59.4221 121.733 59.568L121.901 61.561C123.565 61.4211 124.801 61.4501 125.65 61.6108L126.022 59.6458ZM121.733 59.568L116.551 60.0031L116.719 61.9961L121.901 61.561L121.733 59.568ZM117.632 60.9159L117.2 55.774L115.207 55.9414L115.639 61.0833L117.632 60.9159ZM116.287 56.8542L121.469 56.4191L121.301 54.4261L116.12 54.8612L116.287 56.8542ZM121.469 56.4191C123.706 56.2312 125.499 55.7801 126.599 54.8926L125.344 53.3356C124.74 53.8223 123.475 54.2435 121.301 54.4261L121.469 56.4191ZM126.615 54.88C127.686 53.9807 128.231 52.8133 128.116 51.4453L126.123 51.6127C126.178 52.2643 125.957 52.8204 125.329 53.3483L126.615 54.88ZM128.116 51.4453C127.989 49.9319 127.131 48.822 125.732 48.1665L124.883 49.9776C125.712 50.3659 126.063 50.894 126.123 51.6127L128.116 51.4453ZM125.742 48.1712C124.413 47.5312 122.605 47.3722 120.443 47.5538L120.611 49.5468C122.647 49.3757 124.026 49.5646 124.873 49.9729L125.742 48.1712ZM120.443 47.5538C118.17 47.7447 116.295 48.2898 114.929 49.2871L116.108 50.9025C117.062 50.2064 118.526 49.7218 120.611 49.5468L120.443 47.5538ZM114.921 49.2929C113.555 50.3113 112.786 51.7108 112.641 53.4199L114.634 53.5885C114.731 52.4406 115.216 51.5673 116.116 50.8967L114.921 49.2929ZM113.554 52.5077L106.06 53.137L106.227 55.13L113.721 54.5007L113.554 52.5077Z" fill="#FFEB1C" mask="url(#path-1-outside-1_1_1397)"/>
<mask id="path-3-outside-2_1_1397" maskUnits="userSpaceOnUse" x="160.439" y="7.4712" width="365.568" height="64.3424" fill="black">
<rect fill="white" x="160.439" y="7.4712" width="365.568" height="64.3424"/>
<path d="M184.526 53.2509L185.04 51.7226C187.383 51.5793 189.326 51.7774 190.87 52.3168C192.44 52.8539 193.633 53.6769 194.449 54.7859C195.289 55.866 195.773 57.1635 195.9 58.6781C196.034 60.2725 195.782 61.7387 195.145 63.0767C194.506 64.3881 193.473 65.4651 192.045 66.3075C190.644 67.1477 188.84 67.6604 186.635 67.8457L165.11 69.6533L166.133 54.1131L162.6 39.7585L183.367 38.0145C186.13 37.7824 188.324 38.2538 189.948 39.4287C191.596 40.5748 192.515 42.2772 192.705 44.5359C192.81 45.7848 192.618 47.0051 192.13 48.1969C191.641 49.3886 190.792 50.4367 189.584 51.341C188.373 52.2187 186.687 52.8554 184.526 53.2509ZM172.37 67.1971L169.202 63.8906L184.389 62.6152C185.691 62.5059 186.675 62.1155 187.341 61.4441C188.032 60.7438 188.329 59.8224 188.233 58.6797C188.137 57.5371 187.649 56.6682 186.77 56.073C185.915 55.4491 184.69 55.2041 183.095 55.338L170.659 56.3824L170.217 51.1209L181.697 50.1568C182.786 50.0653 183.664 49.6839 184.33 49.0124C184.994 48.3144 185.281 47.4207 185.189 46.3312C185.115 45.4543 184.75 44.7624 184.092 44.2557C183.431 43.7225 182.516 43.5049 181.347 43.6031L167.636 44.7546L170.168 40.9694L173.348 53.5073L172.37 67.1971ZM205.888 36.1231L208.118 62.6697L204.452 59.6458L226.853 57.7646L227.412 64.4212L200.865 66.6505L198.355 36.7558L205.888 36.1231ZM235.908 57.6464L235.399 51.5877L256.047 49.8537L256.556 55.9124L235.908 57.6464ZM249.289 32.4783L265.591 61.2149L257.579 61.8877L243.495 36.136L245.807 35.9419L236.254 63.6786L228.242 64.3514L239.523 33.2984L249.289 32.4783ZM298.65 45.9949C298.574 48.597 297.875 50.9438 296.552 53.0352C295.226 55.1 293.387 56.7798 291.034 58.0746C288.681 59.3694 285.936 60.1485 282.801 60.4118C279.373 60.6997 276.302 60.302 273.589 59.2186C270.902 58.133 268.742 56.4812 267.111 54.2633C265.48 52.0453 264.534 49.3818 264.273 46.2728C264.011 43.1637 264.5 40.3797 265.739 37.9208C266.977 35.4618 268.831 33.4731 271.299 31.9545C273.794 30.4338 276.755 29.5294 280.183 29.2415C283.319 28.9782 286.155 29.2886 288.691 30.1728C291.227 31.057 293.321 32.4065 294.972 34.2214C296.623 36.0363 297.704 38.2335 298.215 40.8131L290.641 41.4492C290.262 40.1162 289.62 39.0061 288.716 38.1186C287.838 37.2289 286.714 36.5874 285.343 36.1941C283.996 35.772 282.459 35.6335 280.732 35.7785C278.739 35.9459 277.056 36.4619 275.684 37.3264C274.309 38.1644 273.293 39.2934 272.637 40.7133C271.98 42.1333 271.729 43.7733 271.886 45.6334C272.042 47.4935 272.562 49.0689 273.447 50.3594C274.331 51.6499 275.522 52.6069 277.019 53.2304C278.515 53.8274 280.259 54.0422 282.252 53.8748C283.979 53.7298 285.472 53.3501 286.732 52.7359C288.018 52.1194 289.02 51.2994 289.737 50.2758C290.48 49.25 290.927 48.035 291.076 46.6309L298.65 45.9949ZM303.901 57.9975L301.391 28.1028L308.884 27.4735L310.889 51.3494L308.726 49.9656L324.549 26.1579L332.521 25.4884L310.677 57.4285L303.901 57.9975ZM316.996 42.3267L322.025 37.2079L335.43 55.3497L326.9 56.0661L316.996 42.3267ZM349.738 36.5665L371.381 34.7488L371.92 41.1663L350.276 42.9839L349.738 36.5665ZM371.054 22.2524L371.593 28.6698L349.391 30.5343L352.787 26.516L355.07 53.7003L347.537 54.333L345.026 24.4382L371.054 22.2524ZM381.753 34.6004L392.954 33.6597C394.362 33.5414 395.451 33.1288 396.222 32.4219C396.99 31.6884 397.324 30.737 397.226 29.5678C397.128 28.3986 396.64 27.5297 395.763 26.9611C394.883 26.366 393.739 26.1275 392.331 26.2458L380.054 27.2768L383.131 23.2853L385.471 51.1473L377.937 51.7799L375.427 21.8852L392.846 20.4223C395.078 20.2349 397.064 20.4695 398.805 21.1261C400.546 21.7827 401.941 22.7761 402.989 24.1064C404.038 25.4366 404.641 27.0451 404.8 28.9318C404.956 30.7919 404.628 32.4652 403.816 33.9517C403.004 35.4382 401.795 36.6503 400.188 37.5881C398.578 38.4993 396.658 39.0487 394.425 39.2361L382.228 40.2604L381.753 34.6004ZM386.807 36.9456L395.297 36.2326L407.473 49.2995L398.744 50.0326L386.807 36.9456ZM408.903 19.0738L416.436 18.4412L418.947 48.3359L411.413 48.9686L408.903 19.0738ZM436.843 16.7274C440.35 16.4328 443.472 16.7996 446.208 17.8276C448.943 18.8556 451.136 20.4243 452.785 22.5337C454.46 24.6408 455.424 27.1958 455.676 30.1986C455.926 33.1748 455.402 35.8547 454.104 38.2384C452.829 40.5933 450.93 42.5057 448.404 43.9755C445.878 45.4454 442.861 46.3276 439.353 46.6222L424.765 47.8473L422.254 17.9526L436.843 16.7274ZM432.001 44.1488L428.032 40.8694L439.352 39.9188C441.266 39.7581 442.897 39.2731 444.248 38.464C445.598 37.6548 446.607 36.6067 447.275 35.3196C447.941 34.0059 448.204 32.512 448.063 30.8379C447.92 29.1373 447.412 27.7081 446.539 26.5505C445.666 25.3928 444.496 24.5277 443.029 23.955C441.563 23.3824 439.873 23.1764 437.96 23.3371L426.64 24.2878L430.006 20.3925L432.001 44.1488ZM464.401 38.4574L463.892 32.3988L484.539 30.6648L485.048 36.7235L464.401 38.4574ZM477.782 13.2894L494.084 42.0259L486.072 42.6987L471.987 16.9471L474.299 16.7529L464.747 44.4896L456.735 45.1625L468.016 14.1095L477.782 13.2894ZM502.301 41.3358L501.086 26.8668L508.619 26.2341L509.834 40.7032L502.301 41.3358ZM485.76 12.6193L494.09 11.9197L506.443 25.1725L502.975 25.4637L512.944 10.3364L521.275 9.63678L507.602 30.3737L502.746 30.8618L485.76 12.6193Z"/>
</mask>
<path d="M184.526 53.2509L183.578 52.9322L183.037 54.54L184.706 54.2346L184.526 53.2509ZM185.04 51.7226L184.979 50.7244L184.306 50.7655L184.092 51.4039L185.04 51.7226ZM190.87 52.3168L190.54 53.2608L190.546 53.2629L190.87 52.3168ZM194.449 54.7859L193.644 55.3784L193.651 55.3892L193.66 55.3998L194.449 54.7859ZM195.145 63.0767L196.044 63.5148L196.048 63.5065L195.145 63.0767ZM192.045 66.3075L191.537 65.4462L191.531 65.4499L192.045 66.3075ZM165.11 69.6533L164.113 69.5876L164.036 70.747L165.194 70.6498L165.11 69.6533ZM166.133 54.1131L167.131 54.1788L167.141 54.0244L167.104 53.8741L166.133 54.1131ZM162.6 39.7585L162.516 38.762L161.349 38.8601L161.629 39.9975L162.6 39.7585ZM189.948 39.4287L189.362 40.2389L189.37 40.2444L189.377 40.2497L189.948 39.4287ZM192.13 48.1969L191.204 47.8175L192.13 48.1969ZM189.584 51.341L190.171 52.1506L190.177 52.1462L190.183 52.1416L189.584 51.341ZM172.37 67.1971L171.648 67.8889L173.207 69.5162L173.368 67.2684L172.37 67.1971ZM169.202 63.8906L169.119 62.8941L167.031 63.0695L168.48 64.5824L169.202 63.8906ZM187.341 61.4441L188.051 62.1484L188.053 62.1462L187.341 61.4441ZM186.77 56.073L186.18 56.8809L186.195 56.8913L186.209 56.9013L186.77 56.073ZM170.659 56.3824L169.663 56.4661L169.746 57.4625L170.743 57.3789L170.659 56.3824ZM170.217 51.1209L170.134 50.1244L169.137 50.2081L169.221 51.2046L170.217 51.1209ZM184.33 49.0124L185.04 49.7167L185.048 49.7092L185.055 49.7016L184.33 49.0124ZM184.092 44.2557L183.463 45.0337L183.472 45.041L183.481 45.0481L184.092 44.2557ZM167.636 44.7546L166.804 44.1986L165.65 45.9249L167.719 45.7511L167.636 44.7546ZM170.168 40.9694L171.137 40.7236L170.585 38.5472L169.336 40.4134L170.168 40.9694ZM173.348 53.5073L174.346 53.5785L174.357 53.4177L174.317 53.2614L173.348 53.5073ZM185.474 53.5696L185.988 52.0413L184.092 51.4039L183.578 52.9322L185.474 53.5696ZM185.101 52.7207C187.364 52.5823 189.164 52.7799 190.54 53.2608L191.2 51.3727C189.488 50.7749 187.401 50.5763 184.979 50.7244L185.101 52.7207ZM190.546 53.2629C191.964 53.7479 192.972 54.465 193.644 55.3784L195.255 54.1934C194.295 52.8888 192.917 51.9599 191.193 51.3706L190.546 53.2629ZM193.66 55.3998C194.368 56.3103 194.791 57.418 194.903 58.7618L196.896 58.5944C196.755 56.9089 196.21 55.4218 195.238 54.172L193.66 55.3998ZM194.903 58.7618C195.024 60.1943 194.797 61.4814 194.242 62.6469L196.048 63.5065C196.767 61.996 197.044 60.3507 196.896 58.5944L194.903 58.7618ZM194.246 62.6386C193.705 63.7504 192.819 64.6895 191.537 65.4462L192.553 67.1688C194.126 66.2407 195.308 65.0258 196.044 63.5148L194.246 62.6386ZM191.531 65.4499C190.298 66.1888 188.655 66.6724 186.551 66.8492L186.718 68.8422C189.025 68.6484 190.989 68.1067 192.559 67.1651L191.531 65.4499ZM186.551 66.8492L165.027 68.6568L165.194 70.6498L186.718 68.8422L186.551 66.8492ZM166.108 69.719L167.131 54.1788L165.136 54.0475L164.113 69.5876L166.108 69.719ZM167.104 53.8741L163.571 39.5195L161.629 39.9975L165.162 54.3522L167.104 53.8741ZM162.683 40.755L183.45 39.011L183.283 37.018L162.516 38.762L162.683 40.755ZM183.45 39.011C186.067 38.7913 187.995 39.2499 189.362 40.2389L190.534 38.6185C188.653 37.2577 186.194 36.7736 183.283 37.018L183.45 39.011ZM189.377 40.2497C190.748 41.2025 191.54 42.6147 191.709 44.6196L193.702 44.4522C193.491 41.9397 192.445 39.9471 190.519 38.6076L189.377 40.2497ZM191.709 44.6196C191.8 45.7062 191.635 46.7681 191.204 47.8175L193.055 48.5763C193.602 47.2422 193.82 45.8634 193.702 44.4522L191.709 44.6196ZM191.204 47.8175C190.795 48.815 190.074 49.7255 188.985 50.5403L190.183 52.1416C191.511 51.1478 192.486 49.9622 193.055 48.5763L191.204 47.8175ZM188.997 50.5313C187.95 51.2901 186.423 51.887 184.346 52.2673L184.706 54.2346C186.95 53.8237 188.796 53.1473 190.171 52.1506L188.997 50.5313ZM173.092 66.5053L169.925 63.1988L168.48 64.5824L171.648 67.8889L173.092 66.5053ZM169.286 64.8871L184.473 63.6117L184.305 61.6187L169.119 62.8941L169.286 64.8871ZM184.473 63.6117C185.922 63.4901 187.163 63.0432 188.051 62.1484L186.631 60.7398C186.187 61.1878 185.461 61.5217 184.305 61.6187L184.473 63.6117ZM188.053 62.1462C188.984 61.2027 189.346 59.9761 189.23 58.596L187.237 58.7634C187.313 59.6687 187.08 60.285 186.629 60.7419L188.053 62.1462ZM189.23 58.596C189.111 57.1796 188.482 56.0243 187.33 55.2448L186.209 56.9013C186.817 57.312 187.164 57.8946 187.237 58.7634L189.23 58.596ZM187.359 55.2652C186.231 54.4424 184.728 54.1974 183.012 54.3415L183.179 56.3345C184.652 56.2108 185.598 56.4558 186.18 56.8809L187.359 55.2652ZM183.012 54.3415L170.576 55.3859L170.743 57.3789L183.179 56.3345L183.012 54.3415ZM171.656 56.2987L171.214 51.0372L169.221 51.2046L169.663 56.4661L171.656 56.2987ZM170.301 52.1174L181.781 51.1533L181.613 49.1603L170.134 50.1244L170.301 52.1174ZM181.781 51.1533C183.068 51.0452 184.181 50.5828 185.04 49.7167L183.621 48.3081C183.147 48.785 182.505 49.0854 181.613 49.1603L181.781 51.1533ZM185.055 49.7016C185.943 48.7675 186.297 47.579 186.186 46.2475L184.193 46.4148C184.264 47.2623 184.045 47.8613 183.606 48.3232L185.055 49.7016ZM186.186 46.2475C186.09 45.1093 185.597 44.1527 184.702 43.4634L183.481 45.0481C183.902 45.3722 184.141 45.7992 184.193 46.4148L186.186 46.2475ZM184.72 43.4778C183.793 42.7293 182.59 42.4952 181.264 42.6066L181.431 44.5996C182.443 44.5146 183.069 44.7156 183.463 45.0337L184.72 43.4778ZM181.264 42.6066L167.552 43.7581L167.719 45.7511L181.431 44.5996L181.264 42.6066ZM168.467 45.3106L170.999 41.5255L169.336 40.4134L166.804 44.1986L168.467 45.3106ZM169.198 41.2153L172.379 53.7531L174.317 53.2614L171.137 40.7236L169.198 41.2153ZM172.351 53.436L171.373 67.1259L173.368 67.2684L174.346 53.5785L172.351 53.436ZM205.888 36.1231L206.885 36.0394L206.801 35.0429L205.805 35.1266L205.888 36.1231ZM208.118 62.6697L207.481 63.4411L209.313 64.9518L209.114 62.586L208.118 62.6697ZM204.452 59.6458L204.368 58.6494L201.921 58.8548L203.815 60.4173L204.452 59.6458ZM226.853 57.7646L227.849 57.6809L227.766 56.6844L226.769 56.7681L226.853 57.7646ZM227.412 64.4212L227.496 65.4176L228.492 65.334L228.408 64.3375L227.412 64.4212ZM200.865 66.6505L199.869 66.7342L199.953 67.7307L200.949 67.647L200.865 66.6505ZM198.355 36.7558L198.271 35.7593L197.275 35.843L197.358 36.8395L198.355 36.7558ZM204.892 36.2068L207.121 62.7534L209.114 62.586L206.885 36.0394L204.892 36.2068ZM208.754 61.8982L205.088 58.8744L203.815 60.4173L207.481 63.4411L208.754 61.8982ZM204.535 60.6423L226.937 58.7611L226.769 56.7681L204.368 58.6494L204.535 60.6423ZM225.856 57.8483L226.415 64.5048L228.408 64.3375L227.849 57.6809L225.856 57.8483ZM227.328 63.4247L200.782 65.6541L200.949 67.647L227.496 65.4176L227.328 63.4247ZM201.862 66.5669L199.351 36.6721L197.358 36.8395L199.869 66.7342L201.862 66.5669ZM198.439 37.7523L205.972 37.1196L205.805 35.1266L198.271 35.7593L198.439 37.7523ZM235.908 57.6464L234.912 57.7301L234.995 58.7265L235.992 58.6429L235.908 57.6464ZM235.399 51.5877L235.316 50.5912L234.319 50.6749L234.403 51.6714L235.399 51.5877ZM256.047 49.8537L257.043 49.77L256.96 48.7735L255.963 48.8572L256.047 49.8537ZM256.556 55.9124L256.639 56.9089L257.636 56.8252L257.552 55.8287L256.556 55.9124ZM249.289 32.4783L250.159 31.9849L249.843 31.4283L249.205 31.4818L249.289 32.4783ZM265.591 61.2149L265.675 62.2113L267.232 62.0806L266.461 60.7214L265.591 61.2149ZM257.579 61.8877L256.702 62.3675L257.014 62.9387L257.663 62.8842L257.579 61.8877ZM243.495 36.136L243.411 35.1395L241.88 35.2681L242.617 36.6159L243.495 36.136ZM245.807 35.9419L246.752 36.2675L247.252 34.817L245.723 34.9454L245.807 35.9419ZM236.254 63.6786L236.338 64.6751L236.988 64.6205L237.2 64.0042L236.254 63.6786ZM228.242 64.3514L227.303 64.01L226.769 65.4787L228.326 65.3479L228.242 64.3514ZM239.523 33.2984L239.44 32.3019L238.802 32.3555L238.583 32.957L239.523 33.2984ZM236.905 57.5627L236.396 51.504L234.403 51.6714L234.912 57.7301L236.905 57.5627ZM235.483 52.5842L256.13 50.8502L255.963 48.8572L235.316 50.5912L235.483 52.5842ZM255.05 49.9374L255.559 55.9961L257.552 55.8287L257.043 49.77L255.05 49.9374ZM256.472 54.9159L235.825 56.6499L235.992 58.6429L256.639 56.9089L256.472 54.9159ZM248.419 32.9717L264.721 61.7083L266.461 60.7214L250.159 31.9849L248.419 32.9717ZM265.507 60.2184L257.496 60.8912L257.663 62.8842L265.675 62.2113L265.507 60.2184ZM258.457 61.4078L244.372 35.6562L242.617 36.6159L256.702 62.3675L258.457 61.4078ZM243.578 37.1325L245.89 36.9384L245.723 34.9454L243.411 35.1395L243.578 37.1325ZM244.861 35.6163L235.309 63.3529L237.2 64.0042L246.752 36.2675L244.861 35.6163ZM236.171 62.6821L228.159 63.3549L228.326 65.3479L236.338 64.6751L236.171 62.6821ZM229.182 64.6928L240.463 33.6399L238.583 32.957L227.303 64.01L229.182 64.6928ZM239.607 34.2949L249.373 33.4748L249.205 31.4818L239.44 32.3019L239.607 34.2949ZM298.65 45.9949L299.649 46.024L299.682 44.9047L298.566 44.9984L298.65 45.9949ZM296.552 53.0352L297.393 53.5753L297.397 53.5698L296.552 53.0352ZM291.034 58.0746L290.552 57.1985L291.034 58.0746ZM273.589 59.2186L273.214 60.1458L273.218 60.1473L273.589 59.2186ZM267.111 54.2633L266.306 54.8558L267.111 54.2633ZM265.739 37.9208L264.846 37.4709L265.739 37.9208ZM271.299 31.9545L270.778 31.1007L270.775 31.1028L271.299 31.9545ZM294.972 34.2214L294.232 34.8943L294.232 34.8943L294.972 34.2214ZM298.215 40.8131L298.298 41.8096L299.413 41.716L299.196 40.6188L298.215 40.8131ZM290.641 41.4492L289.68 41.723L289.905 42.5145L290.725 42.4456L290.641 41.4492ZM288.716 38.1186L288.004 38.8208L288.01 38.8266L288.015 38.8323L288.716 38.1186ZM285.343 36.1941L285.044 37.1483L285.056 37.152L285.067 37.1554L285.343 36.1941ZM275.684 37.3264L276.204 38.1803L276.211 38.1765L276.217 38.1725L275.684 37.3264ZM272.637 40.7133L273.544 41.1331L272.637 40.7133ZM273.447 50.3594L272.622 50.9247L272.622 50.9247L273.447 50.3594ZM277.019 53.2304L276.635 54.1536L276.642 54.1564L276.649 54.1592L277.019 53.2304ZM286.732 52.7359L286.3 51.8341L286.294 51.8371L286.732 52.7359ZM289.737 50.2758L288.927 49.689L288.922 49.6955L288.918 49.7022L289.737 50.2758ZM291.077 46.6309L290.993 45.6344L290.17 45.7036L290.082 46.5249L291.077 46.6309ZM297.65 45.9658C297.579 48.3983 296.929 50.5688 295.707 52.5006L297.397 53.5698C298.821 51.3188 299.569 48.7958 299.649 46.024L297.65 45.9658ZM295.71 52.4951C294.483 54.4067 292.773 55.9762 290.552 57.1985L291.516 58.9507C294.001 57.5834 295.97 55.7933 297.393 53.5753L295.71 52.4951ZM290.552 57.1985C288.341 58.4151 285.737 59.1617 282.717 59.4153L282.884 61.4083C286.136 61.1352 289.021 60.3238 291.516 58.9507L290.552 57.1985ZM282.717 59.4153C279.417 59.6925 276.505 59.3063 273.959 58.2899L273.218 60.1473C276.099 61.2976 279.329 61.7069 282.884 61.4083L282.717 59.4153ZM273.963 58.2914C271.439 57.2714 269.432 55.7313 267.917 53.6707L266.306 54.8558C268.053 57.231 270.365 58.9945 273.214 60.1457L273.963 58.2914ZM267.917 53.6707C266.409 51.6206 265.517 49.1393 265.269 46.1891L263.276 46.3565C263.55 49.6244 264.551 52.47 266.306 54.8558L267.917 53.6707ZM265.269 46.1891C265.021 43.2389 265.487 40.6436 266.632 38.3706L264.846 37.4709C263.513 40.1159 263.002 43.0885 263.276 46.3565L265.269 46.1891ZM266.632 38.3706C267.783 36.0861 269.504 34.233 271.823 32.8063L270.775 31.1028C268.157 32.7132 266.172 34.8375 264.846 37.4709L266.632 38.3706ZM271.819 32.8084C274.16 31.3816 276.966 30.5152 280.267 30.238L280.099 28.2451C276.544 28.5436 273.427 29.4859 270.778 31.1007L271.819 32.8084ZM280.267 30.238C283.286 29.9845 285.979 30.2863 288.362 31.1171L289.02 29.2286C286.331 28.291 283.351 27.972 280.099 28.2451L280.267 30.238ZM288.362 31.1171C290.756 31.9518 292.703 33.2141 294.232 34.8943L295.711 33.5485C293.938 31.599 291.698 30.1623 289.02 29.2286L288.362 31.1171ZM294.232 34.8943C295.752 36.5649 296.755 38.593 297.234 41.0075L299.196 40.6188C298.652 37.874 297.494 35.5077 295.711 33.5485L294.232 34.8943ZM298.131 39.8167L290.558 40.4527L290.725 42.4456L298.298 41.8096L298.131 39.8167ZM291.603 41.1753C291.181 39.6917 290.456 38.4251 289.416 37.405L288.015 38.8323C288.784 39.587 289.343 40.5408 289.68 41.723L291.603 41.1753ZM289.428 37.4164C288.413 36.3879 287.131 35.6668 285.619 35.2329L285.067 37.1554C286.297 37.5081 287.263 38.07 288.004 38.8208L289.428 37.4164ZM285.642 35.2399C284.147 34.7713 282.476 34.6285 280.648 34.782L280.816 36.775C282.442 36.6384 283.846 36.7727 285.044 37.1483L285.642 35.2399ZM280.648 34.782C278.532 34.9597 276.687 35.5127 275.151 36.4803L276.217 38.1725C277.426 37.411 278.946 36.9321 280.816 36.775L280.648 34.782ZM275.163 36.4726C273.625 37.4105 272.472 38.6882 271.729 40.2935L273.544 41.1331C274.115 39.8985 274.994 38.9183 276.204 38.1803L275.163 36.4726ZM271.729 40.2935C270.987 41.8986 270.721 43.7177 270.889 45.7171L272.882 45.5497C272.738 43.8289 272.973 42.3679 273.544 41.1331L271.729 40.2935ZM270.889 45.7171C271.057 47.7165 271.622 49.4659 272.622 50.9247L274.272 49.794C273.502 48.6718 273.027 47.2706 272.882 45.5497L270.889 45.7171ZM272.622 50.9247C273.62 52.3806 274.966 53.4587 276.635 54.1536L277.404 52.3073C276.078 51.7551 275.043 50.9192 274.272 49.794L272.622 50.9247ZM276.649 54.1592C278.319 54.8259 280.224 55.0486 282.335 54.8713L282.168 52.8783C280.293 53.0358 278.711 52.8289 277.39 52.3017L276.649 54.1592ZM282.335 54.8713C284.158 54.7183 285.777 54.3143 287.17 53.6347L286.294 51.8371C285.168 52.3859 283.8 52.7413 282.168 52.8783L282.335 54.8713ZM287.164 53.6377C288.583 52.9576 289.727 52.0328 290.556 50.8495L288.918 49.7022C288.313 50.566 287.453 51.2813 286.3 51.8341L287.164 53.6377ZM290.547 50.8626C291.404 49.6797 291.905 48.2943 292.071 46.7369L290.082 46.5249C289.949 47.7757 289.557 48.8203 288.927 49.689L290.547 50.8626ZM291.16 47.6274L298.734 46.9914L298.566 44.9984L290.993 45.6344L291.16 47.6274ZM303.901 57.9975L302.905 58.0812L302.988 59.0777L303.985 58.994L303.901 57.9975ZM301.391 28.1028L301.307 27.1063L300.31 27.19L300.394 28.1865L301.391 28.1028ZM308.884 27.4735L309.881 27.3898L309.797 26.3933L308.801 26.477L308.884 27.4735ZM310.889 51.3494L310.35 52.1918L312.055 53.2822L311.886 51.2657L310.889 51.3494ZM308.726 49.9656L307.893 49.4121L307.33 50.2596L308.187 50.808L308.726 49.9656ZM324.549 26.1579L324.465 25.1614L323.984 25.2019L323.716 25.6044L324.549 26.1579ZM332.521 25.4884L333.346 26.0529L334.534 24.3158L332.437 24.4919L332.521 25.4884ZM310.677 57.4285L310.761 58.425L311.234 58.3852L311.503 57.993L310.677 57.4285ZM316.996 42.3267L316.282 41.6259L315.691 42.2275L316.184 42.9115L316.996 42.3267ZM322.025 37.2079L322.829 36.6136L322.133 35.6712L321.312 36.5071L322.025 37.2079ZM335.43 55.3497L335.514 56.3462L337.299 56.1963L336.234 54.7554L335.43 55.3497ZM326.9 56.0661L326.089 56.6509L326.42 57.1099L326.984 57.0626L326.9 56.0661ZM304.898 57.9139L302.387 28.0191L300.394 28.1865L302.905 58.0812L304.898 57.9139ZM301.474 29.0993L308.968 28.47L308.801 26.477L301.307 27.1063L301.474 29.0993ZM307.888 27.5571L309.893 51.4331L311.886 51.2657L309.881 27.3898L307.888 27.5571ZM311.428 50.507L309.265 49.1232L308.187 50.808L310.35 52.1918L311.428 50.507ZM309.559 50.5191L325.382 26.7114L323.716 25.6044L307.893 49.4121L309.559 50.5191ZM324.633 27.1544L332.605 26.4849L332.437 24.4919L324.465 25.1614L324.633 27.1544ZM331.696 24.9239L309.852 56.864L311.503 57.993L333.346 26.0529L331.696 24.9239ZM310.594 56.432L303.817 57.0011L303.985 58.994L310.761 58.425L310.594 56.432ZM317.709 43.0276L322.738 37.9088L321.312 36.5071L316.282 41.6259L317.709 43.0276ZM321.221 37.8022L334.626 55.944L336.234 54.7554L322.829 36.6136L321.221 37.8022ZM335.346 54.3532L326.817 55.0696L326.984 57.0626L335.514 56.3462L335.346 54.3532ZM327.711 55.4813L317.807 41.742L316.184 42.9115L326.089 56.6509L327.711 55.4813ZM349.738 36.5665L349.654 35.57L348.657 35.6537L348.741 36.6502L349.738 36.5665ZM371.381 34.7488L372.378 34.6652L372.294 33.6687L371.298 33.7524L371.381 34.7488ZM371.92 41.1663L372.004 42.1627L373 42.0791L372.917 41.0826L371.92 41.1663ZM350.276 42.9839L349.28 43.0676L349.364 44.0641L350.36 43.9804L350.276 42.9839ZM371.054 22.2524L372.051 22.1687L371.967 21.1722L370.971 21.2559L371.054 22.2524ZM371.593 28.6698L371.677 29.6663L372.674 29.5826L372.59 28.5861L371.593 28.6698ZM349.391 30.5343L348.628 29.8889L347.069 31.7328L349.475 31.5308L349.391 30.5343ZM352.787 26.516L353.784 26.4324L353.582 24.0266L352.023 25.8706L352.787 26.516ZM355.07 53.7003L355.154 54.6968L356.15 54.6132L356.067 53.6167L355.07 53.7003ZM347.537 54.333L346.54 54.4167L346.624 55.4132L347.62 55.3295L347.537 54.333ZM345.026 24.4382L344.942 23.4418L343.946 23.5254L344.03 24.5219L345.026 24.4382ZM349.821 37.563L371.465 35.7453L371.298 33.7524L349.654 35.57L349.821 37.563ZM370.385 34.8325L370.924 41.2499L372.917 41.0826L372.378 34.6652L370.385 34.8325ZM371.837 40.1698L350.193 41.9874L350.36 43.9804L372.004 42.1627L371.837 40.1698ZM351.273 42.9002L350.734 36.4828L348.741 36.6502L349.28 43.0676L351.273 42.9002ZM370.058 22.3361L370.597 28.7535L372.59 28.5861L372.051 22.1687L370.058 22.3361ZM371.51 27.6733L349.308 29.5378L349.475 31.5308L371.677 29.6663L371.51 27.6733ZM350.155 31.1798L353.551 27.1615L352.023 25.8706L348.628 29.8889L350.155 31.1798ZM351.791 26.5997L354.074 53.784L356.067 53.6167L353.784 26.4324L351.791 26.5997ZM354.986 52.7039L347.453 53.3365L347.62 55.3295L355.154 54.6968L354.986 52.7039ZM348.533 54.2493L346.023 24.3546L344.03 24.5219L346.54 54.4167L348.533 54.2493ZM345.11 25.4347L371.138 23.2489L370.971 21.2559L344.942 23.4418L345.11 25.4347ZM381.753 34.6004L381.669 33.6039L380.673 33.6875L380.757 34.684L381.753 34.6004ZM396.222 32.4219L396.898 33.1586L396.905 33.1519L396.912 33.1451L396.222 32.4219ZM395.763 26.9611L395.203 27.7893L395.211 27.7949L395.219 27.8003L395.763 26.9611ZM380.054 27.2768L379.262 26.6663L377.877 28.4632L380.138 28.2733L380.054 27.2768ZM383.131 23.2853L384.128 23.2017L383.912 20.6343L382.339 22.6748L383.131 23.2853ZM385.471 51.1473L385.555 52.1438L386.551 52.0601L386.467 51.0636L385.471 51.1473ZM377.937 51.7799L376.941 51.8636L377.025 52.8601L378.021 52.7764L377.937 51.7799ZM375.427 21.8852L375.343 20.8887L374.347 20.9724L374.43 21.9689L375.427 21.8852ZM398.805 21.1261L398.452 22.0617L398.805 21.1261ZM402.989 24.1064L403.775 23.4874L402.989 24.1064ZM403.816 33.9517L404.694 34.431L403.816 33.9517ZM400.188 37.5881L400.681 38.4584L400.692 38.4518L400.188 37.5881ZM382.228 40.2604L381.232 40.3441L381.316 41.3406L382.312 41.2569L382.228 40.2604ZM386.807 36.9456L386.723 35.9491L384.7 36.1191L386.068 37.6195L386.807 36.9456ZM395.297 36.2326L396.029 35.5509L395.698 35.1955L395.214 35.2361L395.297 36.2326ZM407.473 49.2995L407.557 50.296L409.608 50.1237L408.205 48.6177L407.473 49.2995ZM398.744 50.0326L398.005 50.7065L398.337 51.0703L398.828 51.0291L398.744 50.0326ZM381.837 35.5968L393.037 34.6562L392.87 32.6632L381.669 33.6039L381.837 35.5968ZM393.037 34.6562C394.589 34.5259 395.915 34.0604 396.898 33.1586L395.545 31.6852C394.987 32.1972 394.135 32.557 392.87 32.6632L393.037 34.6562ZM396.912 33.1451C397.924 32.179 398.343 30.9188 398.223 29.4841L396.23 29.6515C396.306 30.5553 396.055 31.1978 395.531 31.6988L396.912 33.1451ZM398.223 29.4841C398.102 28.0496 397.478 26.8809 396.307 26.1219L395.219 27.8003C395.803 28.1785 396.154 28.7476 396.23 29.6515L398.223 29.4841ZM396.323 26.1329C395.2 25.3729 393.808 25.1183 392.247 25.2493L392.415 27.2423C393.671 27.1368 394.567 27.359 395.203 27.7893L396.323 26.1329ZM392.247 25.2493L379.971 26.2803L380.138 28.2733L392.415 27.2423L392.247 25.2493ZM380.846 27.8873L383.923 23.8959L382.339 22.6748L379.262 26.6663L380.846 27.8873ZM382.135 23.369L384.474 51.231L386.467 51.0636L384.128 23.2017L382.135 23.369ZM385.387 50.1508L377.854 50.7834L378.021 52.7764L385.555 52.1438L385.387 50.1508ZM378.934 51.6963L376.423 21.8015L374.43 21.9689L376.941 51.8636L378.934 51.6963ZM375.511 22.8817L392.929 21.4188L392.762 19.4258L375.343 20.8887L375.511 22.8817ZM392.929 21.4188C395.043 21.2413 396.876 21.4672 398.452 22.0617L399.158 20.1904C397.252 19.4717 395.112 19.2284 392.762 19.4258L392.929 21.4188ZM398.452 22.0617C400.041 22.6606 401.279 23.5519 402.204 24.7253L403.775 23.4874C402.603 22.0003 401.052 20.9047 399.158 20.1904L398.452 22.0617ZM402.204 24.7253C403.117 25.8839 403.659 27.3002 403.803 29.0155L405.796 28.8481C405.623 26.79 404.958 24.9893 403.775 23.4874L402.204 24.7253ZM403.803 29.0155C403.945 30.7011 403.647 32.1753 402.939 33.4724L404.694 34.431C405.609 32.7552 405.967 30.8827 405.796 28.8481L403.803 29.0155ZM402.939 33.4724C402.222 34.7836 401.15 35.869 399.684 36.7244L400.692 38.4518C402.44 37.4316 403.786 36.0928 404.694 34.431L402.939 33.4724ZM399.695 36.7179C398.235 37.5446 396.46 38.0617 394.342 38.2396L394.509 40.2326C396.855 40.0356 398.922 39.454 400.68 38.4583L399.695 36.7179ZM394.342 38.2396L382.145 39.2639L382.312 41.2569L394.509 40.2326L394.342 38.2396ZM383.225 40.1767L382.75 34.5167L380.757 34.684L381.232 40.3441L383.225 40.1767ZM386.891 37.9421L395.381 37.2291L395.214 35.2361L386.723 35.9491L386.891 37.9421ZM394.566 36.9144L406.742 49.9812L408.205 48.6177L396.029 35.5509L394.566 36.9144ZM407.39 48.303L398.66 49.0361L398.828 51.0291L407.557 50.296L407.39 48.303ZM399.483 49.3587L387.546 36.2717L386.068 37.6195L398.005 50.7065L399.483 49.3587ZM408.903 19.0738L408.819 18.0774L407.823 18.161L407.906 19.1575L408.903 19.0738ZM416.436 18.4412L417.433 18.3575L417.349 17.361L416.353 17.4447L416.436 18.4412ZM418.947 48.3359L419.03 49.3324L420.027 49.2487L419.943 48.2523L418.947 48.3359ZM411.413 48.9686L410.417 49.0523L410.501 50.0488L411.497 49.9651L411.413 48.9686ZM408.986 20.0703L416.52 19.4377L416.353 17.4447L408.819 18.0774L408.986 20.0703ZM415.44 18.5249L417.95 48.4196L419.943 48.2523L417.433 18.3575L415.44 18.5249ZM418.863 47.3395L411.33 47.9721L411.497 49.9651L419.03 49.3324L418.863 47.3395ZM412.41 48.8849L409.899 18.9902L407.906 19.1575L410.417 49.0523L412.41 48.8849ZM446.208 17.8276L445.856 18.7637L446.208 17.8276ZM452.785 22.5337L451.997 23.1496L452.002 23.1561L452.785 22.5337ZM454.104 38.2384L453.225 37.76L453.224 37.7625L454.104 38.2384ZM448.404 43.9755L447.901 43.1112L448.404 43.9755ZM424.765 47.8473L423.768 47.931L423.852 48.9275L424.848 48.8438L424.765 47.8473ZM422.254 17.9526L422.17 16.9561L421.174 17.0398L421.258 18.0363L422.254 17.9526ZM432.001 44.1488L431.364 44.9197L433.196 46.434L432.997 44.0651L432.001 44.1488ZM428.032 40.8694L427.949 39.8729L425.505 40.0782L427.395 41.6403L428.032 40.8694ZM444.248 38.464L443.734 37.6062L444.248 38.464ZM447.275 35.3196L448.163 35.7802L448.167 35.7716L447.275 35.3196ZM446.539 26.5505L445.741 27.1527L446.539 26.5505ZM443.029 23.955L443.393 23.0235L443.393 23.0235L443.029 23.955ZM426.64 24.2878L425.883 23.634L424.28 25.4895L426.723 25.2843L426.64 24.2878ZM430.006 20.3925L431.002 20.3088L430.803 17.9399L429.249 19.7387L430.006 20.3925ZM436.926 17.7239C440.316 17.4393 443.285 17.7974 445.856 18.7637L446.56 16.8915C443.659 15.8017 440.385 15.4264 436.759 15.7309L436.926 17.7239ZM445.856 18.7637C448.436 19.7331 450.471 21.198 451.997 23.1496L453.572 21.9178C451.8 19.6505 449.451 17.978 446.56 16.8915L445.856 18.7637ZM452.002 23.1561C453.54 25.0906 454.442 27.4519 454.68 30.2823L456.673 30.1149C456.406 26.9397 455.38 24.1911 453.567 21.9113L452.002 23.1561ZM454.68 30.2823C454.915 33.0839 454.421 35.5652 453.225 37.7601L454.982 38.7167C456.383 36.1442 456.937 33.2656 456.673 30.1149L454.68 30.2823ZM453.224 37.7625C452.045 39.9412 450.283 41.725 447.901 43.1112L448.907 44.8398C451.576 43.2863 453.614 41.2454 454.983 38.7142L453.224 37.7625ZM447.901 43.1112C445.527 44.4928 442.659 45.341 439.27 45.6257L439.437 47.6187C443.063 47.3142 446.229 46.398 448.907 44.8398L447.901 43.1112ZM439.27 45.6257L424.681 46.8509L424.848 48.8438L439.437 47.6187L439.27 45.6257ZM425.761 47.7637L423.251 17.8689L421.258 18.0363L423.768 47.931L425.761 47.7637ZM422.338 18.9491L436.926 17.7239L436.759 15.7309L422.17 16.9561L422.338 18.9491ZM432.638 43.378L428.669 40.0986L427.395 41.6403L431.364 44.9197L432.638 43.378ZM428.116 41.8659L439.436 40.9152L439.269 38.9223L427.949 39.8729L428.116 41.8659ZM439.436 40.9152C441.469 40.7446 443.255 40.2248 444.762 39.3218L443.734 37.6062C442.54 38.3215 441.063 38.7716 439.269 38.9223L439.436 40.9152ZM444.762 39.3218C446.257 38.4258 447.402 37.2457 448.163 35.7802L446.388 34.8589C445.812 35.9676 444.939 36.8838 443.734 37.6062L444.762 39.3218ZM448.167 35.7716C448.928 34.2702 449.213 32.5866 449.06 30.7543L447.067 30.9216C447.194 32.4375 446.954 33.7416 446.383 34.8675L448.167 35.7716ZM449.06 30.7543C448.904 28.8993 448.343 27.2815 447.337 25.9482L445.741 27.1527C446.481 28.1347 446.937 29.3752 447.067 30.9216L449.06 30.7543ZM447.337 25.9482C446.343 24.6301 445.017 23.6576 443.393 23.0235L442.666 24.8865C443.975 25.3978 444.988 26.1555 445.741 27.1527L447.337 25.9482ZM443.393 23.0235C441.757 22.3845 439.909 22.1699 437.876 22.3406L438.044 24.3336C439.838 24.183 441.369 24.3803 442.666 24.8865L443.393 23.0235ZM437.876 22.3406L426.556 23.2913L426.723 25.2843L438.044 24.3336L437.876 22.3406ZM427.396 24.9416L430.762 21.0463L429.249 19.7387L425.883 23.634L427.396 24.9416ZM429.009 20.4761L431.004 44.2325L432.997 44.0651L431.002 20.3088L429.009 20.4761ZM464.401 38.4574L463.404 38.5411L463.488 39.5376L464.484 39.4539L464.401 38.4574ZM463.892 32.3988L463.808 31.4023L462.812 31.4859L462.895 32.4824L463.892 32.3988ZM484.539 30.6648L485.536 30.5811L485.452 29.5846L484.456 29.6683L484.539 30.6648ZM485.048 36.7235L485.132 37.7199L486.128 37.6363L486.045 36.6398L485.048 36.7235ZM477.782 13.2894L478.651 12.7959L478.336 12.2393L477.698 12.2929L477.782 13.2894ZM494.084 42.0259L494.167 43.0224L495.724 42.8916L494.953 41.5325L494.084 42.0259ZM486.072 42.6987L485.194 43.1786L485.507 43.7497L486.155 43.6952L486.072 42.6987ZM471.987 16.9471L471.904 15.9506L470.373 16.0792L471.11 17.4269L471.987 16.9471ZM474.299 16.7529L475.245 17.0786L475.744 15.6281L474.215 15.7564L474.299 16.7529ZM464.747 44.4896L464.831 45.4861L465.48 45.4316L465.692 44.8153L464.747 44.4896ZM456.735 45.1625L455.795 44.821L455.262 46.2897L456.819 46.159L456.735 45.1625ZM468.016 14.1095L467.932 13.113L467.294 13.1665L467.076 13.768L468.016 14.1095ZM465.397 38.3737L464.888 32.3151L462.895 32.4824L463.404 38.5411L465.397 38.3737ZM463.976 33.3952L484.623 31.6613L484.456 29.6683L463.808 31.4023L463.976 33.3952ZM483.543 30.7485L484.052 36.8071L486.045 36.6398L485.536 30.5811L483.543 30.7485ZM484.964 35.727L464.317 37.4609L464.484 39.4539L485.132 37.7199L484.964 35.727ZM476.912 13.7828L493.214 42.5193L494.953 41.5325L478.651 12.7959L476.912 13.7828ZM494 41.0294L485.988 41.7023L486.155 43.6952L494.167 43.0224L494 41.0294ZM486.949 42.2189L472.865 16.4672L471.11 17.4269L485.194 43.1786L486.949 42.2189ZM472.071 17.9436L474.383 17.7494L474.215 15.7564L471.904 15.9506L472.071 17.9436ZM473.354 16.4273L463.801 44.164L465.692 44.8153L475.245 17.0786L473.354 16.4273ZM464.663 43.4931L456.651 44.166L456.819 46.159L464.831 45.4861L464.663 43.4931ZM457.675 45.5039L468.956 14.4509L467.076 13.768L455.795 44.821L457.675 45.5039ZM468.1 15.106L477.865 14.2859L477.698 12.2929L467.932 13.113L468.1 15.106ZM502.301 41.3358L501.304 41.4195L501.388 42.416L502.385 42.3323L502.301 41.3358ZM501.086 26.8668L501.002 25.8703L500.006 25.9539L500.089 26.9504L501.086 26.8668ZM508.619 26.2341L509.616 26.1504L509.532 25.1539L508.536 25.2376L508.619 26.2341ZM509.834 40.7032L509.918 41.6996L510.915 41.616L510.831 40.6195L509.834 40.7032ZM485.76 12.6194L485.676 11.6229L483.626 11.795L485.028 13.3008L485.76 12.6194ZM494.09 11.9197L494.822 11.2379L494.491 10.8826L494.007 10.9232L494.09 11.9197ZM506.443 25.1725L506.526 26.169L508.578 25.9967L507.174 24.4907L506.443 25.1725ZM502.975 25.4637L502.14 24.9135L501.007 26.6325L503.059 26.4602L502.975 25.4637ZM512.944 10.3364L512.86 9.3399L512.376 9.38055L512.109 9.78613L512.944 10.3364ZM521.275 9.63678L522.11 10.1872L523.243 8.46795L521.191 8.64029L521.275 9.63678ZM507.602 30.3737L507.702 31.3687L508.175 31.3212L508.437 30.9242L507.602 30.3737ZM502.746 30.8618L502.014 31.5433L502.352 31.9064L502.846 31.8568L502.746 30.8618ZM503.297 41.2521L502.082 26.7831L500.089 26.9504L501.304 41.4195L503.297 41.2521ZM501.169 27.8632L508.703 27.2306L508.536 25.2376L501.002 25.8703L501.169 27.8632ZM507.623 26.3178L508.838 40.7868L510.831 40.6195L509.616 26.1504L507.623 26.3178ZM509.751 39.7067L502.217 40.3393L502.385 42.3323L509.918 41.6996L509.751 39.7067ZM485.843 13.6158L494.174 12.9162L494.007 10.9232L485.676 11.6229L485.843 13.6158ZM493.359 12.6016L505.711 25.8543L507.174 24.4907L494.822 11.2379L493.359 12.6016ZM506.359 24.176L502.891 24.4672L503.059 26.4602L506.526 26.169L506.359 24.176ZM503.81 26.014L513.779 10.8867L512.109 9.78613L502.14 24.9135L503.81 26.014ZM513.028 11.3329L521.358 10.6333L521.191 8.64029L512.86 9.3399L513.028 11.3329ZM520.44 9.08632L506.767 29.8233L508.437 30.9242L522.11 10.1872L520.44 9.08632ZM507.502 29.3787L502.646 29.8668L502.846 31.8568L507.702 31.3687L507.502 29.3787ZM503.478 30.1804L486.492 11.9379L485.028 13.3008L502.014 31.5433L503.478 30.1804Z" fill="#FFEB1C" mask="url(#path-3-outside-2_1_1397)"/>
</svg>
