<svg width="522" height="161" viewBox="0 0 522 161" fill="none" xmlns="http://www.w3.org/2000/svg">
<mask id="path-1-outside-1_1_1409" maskUnits="userSpaceOnUse" x="2.44645" y="91.2391" width="139.157" height="62.359" fill="black">
<rect fill="white" x="2.44645" y="91.2391" width="139.157" height="62.359"/>
<path d="M6.5915 132.47C6.24657 130.171 6.5566 128.054 7.52159 126.12C8.48082 124.159 9.95606 122.495 11.9473 121.126C13.9589 119.725 16.3576 118.716 19.1436 118.1C21.7994 117.512 24.206 117.403 26.3633 117.772C28.5207 118.142 30.3205 118.932 31.7627 120.142C33.2049 121.352 34.1362 122.908 34.5567 124.809C34.885 126.293 34.7998 127.759 34.3009 129.208C33.7963 130.63 32.8361 132.154 31.4201 133.778C30.0042 135.402 28.0718 137.223 25.623 139.239L18.1329 145.567L17.319 143.739L38.5652 139.039L39.8613 144.897L11.2726 151.222L10.132 146.067L21.1095 136.059C22.8609 134.47 24.2071 133.148 25.1481 132.093C26.1094 131.006 26.7466 130.06 27.0598 129.253C27.3729 128.446 27.4402 127.639 27.2616 126.832C27.0773 125.999 26.6788 125.309 26.0661 124.762C25.4795 124.209 24.6902 123.851 23.6982 123.688C22.7063 123.525 21.5203 123.596 20.1404 123.901C18.5 124.264 17.2008 124.811 16.2427 125.542C15.2789 126.247 14.6259 127.061 14.2837 127.983C13.9416 128.905 13.825 129.86 13.934 130.846L6.5915 132.47ZM59.5759 141.191C56.2692 141.923 53.264 141.918 50.5603 141.178C47.8566 140.438 45.5902 139.082 43.7611 137.111C41.9263 135.113 40.6691 132.578 39.9894 129.506C39.3154 126.46 39.3889 123.644 40.2099 121.059C41.0309 118.474 42.5109 116.276 44.6501 114.464C46.7893 112.653 49.5123 111.381 52.819 110.65C56.0997 109.924 59.0919 109.931 61.7956 110.671C64.4993 111.411 66.7685 112.78 68.6033 114.777C70.4324 116.749 71.6867 119.271 72.3665 122.343C73.0404 125.389 72.9669 128.205 72.1459 130.79C71.325 133.375 69.8449 135.574 67.7057 137.385C65.5665 139.197 62.8566 140.465 59.5759 141.191ZM58.2452 135.176C61.0312 134.56 63.0137 133.275 64.1928 131.321C65.3978 129.361 65.6749 126.91 65.024 123.968C64.3731 121.025 63.0879 118.92 61.1686 117.651C59.2752 116.377 56.9356 116.048 54.1496 116.664C51.3637 117.28 49.3681 118.569 48.1631 120.529C46.958 122.488 46.6809 124.939 47.3318 127.882C47.9827 130.824 49.2679 132.929 51.1872 134.198C53.1066 135.467 55.4593 135.793 58.2452 135.176ZM74.5574 117.434C74.2125 115.134 74.5225 113.017 75.4875 111.083C76.4467 109.123 77.922 107.458 79.9133 106.089C81.9248 104.688 84.3236 103.68 87.1095 103.063C89.7653 102.476 92.1719 102.367 94.3293 102.736C96.4867 103.105 98.2864 103.895 99.7286 105.106C101.171 106.316 102.102 107.871 102.523 109.772C102.851 111.256 102.766 112.723 102.267 114.171C101.762 115.594 100.802 117.117 99.3861 118.741C97.9702 120.366 96.0378 122.186 93.5889 124.203L86.0988 130.53L85.2849 128.703L106.531 124.002L107.827 129.861L79.2385 136.185L78.098 131.03L89.0754 121.023C90.8268 119.433 92.173 118.111 93.114 117.057C94.0753 115.97 94.7125 115.023 95.0257 114.217C95.3388 113.41 95.4061 112.603 95.2275 111.796C95.0432 110.963 94.6447 110.272 94.032 109.725C93.4454 109.172 92.6561 108.814 91.6641 108.651C90.6722 108.488 89.4863 108.56 88.1063 108.865C86.466 109.228 85.1667 109.775 84.2087 110.506C83.2448 111.21 82.5918 112.024 82.2497 112.946C81.9075 113.869 81.7909 114.823 81.8999 115.81L74.5574 117.434ZM107.023 109.145C106.744 107.268 107.024 105.444 107.861 103.675C108.699 101.906 110.1 100.339 112.065 98.9759C114.051 97.5807 116.58 96.5433 119.652 95.8636C122.334 95.2703 124.729 95.1091 126.838 95.3801C128.966 95.6192 130.713 96.2297 132.077 97.2115C133.435 98.1673 134.296 99.4654 134.659 101.106C134.953 102.434 134.817 103.734 134.252 105.006C133.707 106.246 132.66 107.379 131.112 108.404C129.558 109.404 127.463 110.181 124.827 110.737L124.655 109.956C127.125 109.273 129.314 108.98 131.22 109.077C133.126 109.174 134.678 109.65 135.878 110.504C137.078 111.359 137.856 112.593 138.213 114.207C138.605 115.978 138.393 117.677 137.579 119.305C136.759 120.906 135.358 122.35 133.375 123.635C131.413 124.888 128.896 125.855 125.823 126.535C122.829 127.197 120.12 127.359 117.697 127.022C115.293 126.652 113.3 125.85 111.716 124.617C110.152 123.351 109.091 121.702 108.532 119.668L115.874 118.043C116.399 119.429 117.373 120.375 118.796 120.879C120.239 121.352 122.158 121.323 124.553 120.794C126.818 120.292 128.462 119.574 129.484 118.638C130.526 117.67 130.909 116.561 130.632 115.311C130.471 114.582 130.143 114.026 129.649 113.644C129.149 113.236 128.402 113.005 127.407 112.952C126.412 112.899 125.081 113.057 123.415 113.425L118.338 114.549L117.223 109.511L122.3 108.387C124.461 107.909 125.918 107.273 126.671 106.478C127.418 105.657 127.682 104.752 127.463 103.763C127.221 102.669 126.513 101.938 125.339 101.57C124.191 101.196 122.589 101.236 120.532 101.691C118.397 102.164 116.811 102.897 115.775 103.891C114.764 104.879 114.295 106.089 114.366 107.521L107.023 109.145Z"/>
</mask>
<path d="M6.5915 132.47L5.60256 132.619L5.76146 133.678L6.80751 133.447L6.5915 132.47ZM7.52159 126.12L8.41642 126.566L8.4198 126.559L7.52159 126.12ZM11.9473 121.126L12.5139 121.95L12.5188 121.946L11.9473 121.126ZM26.3633 117.772L26.1946 118.758L26.3633 117.772ZM31.7627 120.142L31.1198 120.908L31.1198 120.908L31.7627 120.142ZM34.3009 129.208L35.2434 129.542L35.2464 129.533L34.3009 129.208ZM31.4201 133.778L32.1739 134.435L31.4201 133.778ZM25.623 139.239L24.9872 138.467L24.9776 138.475L25.623 139.239ZM18.1329 145.567L17.2194 145.973L17.7612 147.19L18.7782 146.33L18.1329 145.567ZM17.319 143.739L17.103 142.763L15.9072 143.027L16.4055 144.146L17.319 143.739ZM38.5652 139.039L39.5416 138.823L39.3256 137.846L38.3492 138.062L38.5652 139.039ZM39.8613 144.897L40.0773 145.874L41.0537 145.658L40.8377 144.681L39.8613 144.897ZM11.2726 151.222L10.2962 151.438L10.5122 152.414L11.4886 152.198L11.2726 151.222ZM10.132 146.067L9.45834 145.328L9.03063 145.718L9.15565 146.283L10.132 146.067ZM21.1095 136.059L20.4375 135.319L20.4358 135.32L21.1095 136.059ZM25.1481 132.093L25.8943 132.759L25.8971 132.756L25.1481 132.093ZM27.0597 129.253L26.1275 128.891L27.0597 129.253ZM26.0661 124.762L25.3802 125.489L25.3899 125.499L25.3999 125.508L26.0661 124.762ZM23.6982 123.688L23.8603 122.701L23.6982 123.688ZM16.2427 125.542L16.833 126.349L16.8412 126.343L16.8493 126.337L16.2427 125.542ZM14.2837 127.983L15.2213 128.331L14.2837 127.983ZM13.934 130.846L14.15 131.822L15.0265 131.629L14.9279 130.736L13.934 130.846ZM7.58044 132.322C7.26355 130.209 7.55022 128.302 8.4164 126.566L6.62678 125.673C5.56298 127.805 5.22959 130.132 5.60256 132.619L7.58044 132.322ZM8.4198 126.559C9.29551 124.77 10.6488 123.232 12.5139 121.95L11.3808 120.302C9.26328 121.758 7.66613 123.549 6.62337 125.68L8.4198 126.559ZM12.5188 121.946C14.4071 120.631 16.6805 119.669 19.3596 119.076L18.9276 117.123C16.0347 117.763 13.5106 118.818 11.3758 120.305L12.5188 121.946ZM19.3596 119.076C21.9186 118.51 24.1917 118.415 26.1946 118.758L26.5321 116.787C24.2202 116.391 21.6801 116.514 18.9276 117.123L19.3596 119.076ZM26.1946 118.758C28.206 119.103 29.8341 119.829 31.1198 120.908L32.4056 119.376C30.8069 118.034 28.8355 117.181 26.5321 116.787L26.1946 118.758ZM31.1198 120.908C32.3872 121.972 33.2057 123.331 33.5803 125.025L35.5331 124.593C35.0668 122.485 34.0225 120.733 32.4056 119.376L31.1198 120.908ZM33.5803 125.025C33.8685 126.327 33.7948 127.606 33.3554 128.882L35.2464 129.533C35.8048 127.912 35.9016 126.258 35.5331 124.593L33.5803 125.025ZM33.3585 128.874C32.9098 130.139 32.0321 131.554 30.6664 133.121L32.1739 134.435C33.64 132.753 34.6829 131.122 35.2434 129.542L33.3585 128.874ZM30.6664 133.121C29.2991 134.689 27.4116 136.471 24.9873 138.467L26.2586 140.011C28.7321 137.974 30.7093 136.115 32.1739 134.435L30.6664 133.121ZM24.9776 138.475L17.4876 144.803L18.7782 146.33L26.2683 140.003L24.9776 138.475ZM19.0464 145.16L18.2324 143.332L16.4055 144.146L17.2194 145.973L19.0464 145.16ZM17.535 144.716L38.7812 140.015L38.3492 138.062L17.103 142.763L17.535 144.716ZM37.5888 139.255L38.8849 145.113L40.8377 144.681L39.5416 138.823L37.5888 139.255ZM39.6453 143.921L11.0566 150.246L11.4886 152.198L40.0773 145.874L39.6453 143.921ZM12.249 151.006L11.1084 145.851L9.15565 146.283L10.2962 151.438L12.249 151.006ZM10.8058 146.806L21.7832 136.798L20.4358 135.32L9.45834 145.328L10.8058 146.806ZM21.7814 136.8C23.5441 135.2 24.9195 133.851 25.8943 132.759L24.4019 131.427C23.4946 132.444 22.1776 133.74 20.4375 135.319L21.7814 136.8ZM25.8971 132.756C26.8911 131.632 27.6167 130.582 27.992 129.615L26.1275 128.891C25.8765 129.538 25.3277 130.381 24.3991 131.431L25.8971 132.756ZM27.992 129.615C28.373 128.633 28.4613 127.626 28.238 126.616L26.2852 127.048C26.4191 127.653 26.3727 128.259 26.1275 128.891L27.992 129.615ZM28.238 126.616C28.0102 125.587 27.5077 124.708 26.7322 124.016L25.3999 125.508C25.8499 125.909 26.1443 126.411 26.2852 127.048L28.238 126.616ZM26.752 124.034C25.9883 123.314 25.0001 122.888 23.8603 122.701L23.5362 124.675C24.3803 124.813 24.9706 125.103 25.3802 125.489L26.752 124.034ZM23.8603 122.701C22.7029 122.511 21.3818 122.603 19.9243 122.925L20.3564 124.878C21.6588 124.59 22.7096 124.539 23.5362 124.675L23.8603 122.701ZM19.9243 122.925C18.1945 123.308 16.7459 123.901 15.6362 124.747L16.8493 126.337C17.6557 125.722 18.8055 125.221 20.3564 124.878L19.9243 122.925ZM15.6525 124.735C14.5645 125.531 13.7699 126.493 13.3462 127.635L15.2213 128.331C15.4819 127.628 15.9933 126.963 16.833 126.349L15.6525 124.735ZM13.3462 127.635C12.9493 128.705 12.8141 129.816 12.94 130.956L14.9279 130.736C14.8359 129.903 14.9338 129.106 15.2213 128.331L13.3462 127.635ZM13.7179 129.87L6.37548 131.494L6.80751 133.447L14.15 131.822L13.7179 129.87ZM50.5603 141.178L50.2962 142.143L50.5603 141.178ZM43.7611 137.111L43.0247 137.787L43.028 137.791L43.7611 137.111ZM40.2099 121.059L39.2568 120.756L40.2099 121.059ZM44.6501 114.464L45.2964 115.227L45.2964 115.227L44.6501 114.464ZM61.7956 110.671L61.5315 111.636L61.5315 111.636L61.7956 110.671ZM68.6033 114.777L67.8668 115.454L67.8702 115.458L68.6033 114.777ZM72.1459 130.79L73.099 131.093L72.1459 130.79ZM67.7057 137.385L68.3519 138.148L67.7057 137.385ZM64.1928 131.321L63.3409 130.797L63.3365 130.804L64.1928 131.321ZM61.1686 117.651L60.6102 118.481L60.6172 118.485L61.1686 117.651ZM48.1631 120.529L49.0149 121.052L48.1631 120.529ZM51.1872 134.198L50.6358 135.032L51.1872 134.198ZM59.3599 140.215C56.179 140.918 53.3419 140.903 50.8243 140.214L50.2962 142.143C53.186 142.934 56.3593 142.927 59.7919 142.167L59.3599 140.215ZM50.8243 140.214C48.2924 139.521 46.191 138.26 44.4942 136.431L43.028 137.791C44.9894 139.905 47.4207 141.356 50.2962 142.143L50.8243 140.214ZM44.4976 136.434C42.7998 134.586 41.6136 132.218 40.9657 129.29L39.013 129.722C39.7246 132.939 41.0528 135.641 43.0247 137.787L44.4976 136.434ZM40.9657 129.29C40.324 126.389 40.4029 123.755 41.163 121.362L39.2568 120.756C38.3749 123.533 38.3068 126.53 39.013 129.722L40.9657 129.29ZM41.163 121.362C41.925 118.962 43.2957 116.922 45.2964 115.227L44.0039 113.701C41.7262 115.63 40.1367 117.986 39.2568 120.756L41.163 121.362ZM45.2964 115.227C47.2883 113.54 49.8542 112.33 53.035 111.626L52.603 109.673C49.1704 110.433 46.2903 111.765 44.0039 113.701L45.2964 115.227ZM53.035 111.626C56.1884 110.928 59.0128 110.946 61.5315 111.636L62.0596 109.706C59.1709 108.916 56.0109 108.919 52.603 109.673L53.035 111.626ZM61.5315 111.636C64.0602 112.328 66.1637 113.6 67.8669 115.454L69.3398 114.101C67.3733 111.96 64.9383 110.494 62.0596 109.706L61.5315 111.636ZM67.8702 115.458C69.5591 117.278 70.7422 119.631 71.3901 122.559L73.3428 122.127C72.6313 118.911 71.3056 116.22 69.3364 114.097L67.8702 115.458ZM71.3901 122.559C72.0318 125.46 71.9529 128.094 71.1928 130.487L73.099 131.093C73.9809 128.316 74.049 125.319 73.3428 122.127L71.3901 122.559ZM71.1928 130.487C70.4308 132.887 69.0601 134.928 67.0594 136.622L68.3519 138.148C70.6296 136.219 72.2191 133.863 73.099 131.093L71.1928 130.487ZM67.0594 136.622C65.0666 138.31 62.5132 139.517 59.3599 140.215L59.7919 142.167C63.1999 141.413 66.0664 140.084 68.3519 138.148L67.0594 136.622ZM58.4613 136.153C61.4434 135.493 63.6948 134.082 65.049 131.837L63.3365 130.804C62.3327 132.468 60.6191 133.627 58.0292 134.2L58.4613 136.153ZM65.0446 131.844C66.4237 129.602 66.6894 126.866 66.0004 123.752L64.0476 124.184C64.6604 126.954 64.372 129.12 63.3409 130.797L65.0446 131.844ZM66.0004 123.752C65.3114 120.637 63.9165 118.269 61.72 116.817L60.6172 118.485C62.2594 119.571 63.4348 121.414 64.0476 124.184L66.0004 123.752ZM61.727 116.822C59.5524 115.358 56.9157 115.028 53.9336 115.688L54.3656 117.64C56.9555 117.068 58.9981 117.396 60.6102 118.481L61.727 116.822ZM53.9336 115.688C50.9508 116.348 48.6908 117.761 47.3112 120.005L49.0149 121.052C50.0455 119.376 51.7766 118.213 54.3656 117.64L53.9336 115.688ZM47.3112 120.005C45.9321 122.248 45.6664 124.983 46.3554 128.098L48.3082 127.666C47.6954 124.896 47.9839 122.729 49.0149 121.052L47.3112 120.005ZM46.3554 128.098C47.0444 131.212 48.4393 133.58 50.6358 135.032L51.7387 133.364C50.0965 132.278 48.921 130.436 48.3082 127.666L46.3554 128.098ZM50.6358 135.032C52.8331 136.485 55.4784 136.813 58.4613 136.153L58.0292 134.2C55.4401 134.773 53.3801 134.449 51.7387 133.364L50.6358 135.032ZM74.5574 117.434L73.5685 117.582L73.7274 118.642L74.7734 118.41L74.5574 117.434ZM75.4875 111.083L76.3824 111.53L76.3857 111.523L75.4875 111.083ZM79.9133 106.089L80.4798 106.913L80.4848 106.91L79.9133 106.089ZM94.3293 102.736L94.1605 103.722L94.3293 102.736ZM99.7286 105.106L99.0858 105.872L99.0858 105.872L99.7286 105.106ZM102.267 114.171L103.209 114.506L103.212 114.497L102.267 114.171ZM99.3861 118.741L100.14 119.399L99.3861 118.741ZM93.5889 124.203L92.9532 123.431L92.9436 123.439L93.5889 124.203ZM86.0988 130.53L85.1854 130.937L85.7271 132.153L86.7442 131.294L86.0988 130.53ZM85.2849 128.703L85.0689 127.726L83.8731 127.991L84.3714 129.11L85.2849 128.703ZM106.531 124.002L107.508 123.786L107.292 122.81L106.315 123.026L106.531 124.002ZM107.827 129.861L108.043 130.837L109.02 130.621L108.804 129.645L107.827 129.861ZM79.2385 136.185L78.2621 136.401L78.4781 137.378L79.4545 137.162L79.2385 136.185ZM78.098 131.03L77.4243 130.291L76.9966 130.681L77.1216 131.246L78.098 131.03ZM89.0754 121.023L88.4034 120.282L88.4017 120.284L89.0754 121.023ZM93.114 117.057L93.8602 117.722L93.863 117.719L93.114 117.057ZM95.0257 114.217L94.0935 113.855L95.0257 114.217ZM94.032 109.725L93.3461 110.453L93.3558 110.462L93.3659 110.471L94.032 109.725ZM91.6641 108.651L91.8262 107.665L91.6641 108.651ZM84.2087 110.506L84.799 111.313L84.8071 111.307L84.8152 111.301L84.2087 110.506ZM82.2497 112.946L83.1872 113.294L82.2497 112.946ZM81.8999 115.81L82.1159 116.786L82.9924 116.592L82.8938 115.7L81.8999 115.81ZM75.5464 117.286C75.2295 115.173 75.5162 113.266 76.3823 111.53L74.5927 110.637C73.5289 112.769 73.1955 115.095 73.5685 117.582L75.5464 117.286ZM76.3857 111.523C77.2614 109.733 78.6148 108.196 80.4798 106.913L79.3467 105.265C77.2292 106.721 75.6321 108.513 74.5893 110.644L76.3857 111.523ZM80.4848 106.91C82.373 105.595 84.6464 104.632 87.3255 104.04L86.8935 102.087C84.0007 102.727 81.4766 103.782 79.3418 105.269L80.4848 106.91ZM87.3255 104.04C89.8845 103.473 92.1577 103.379 94.1605 103.722L94.498 101.75C92.1861 101.354 89.6461 101.478 86.8935 102.087L87.3255 104.04ZM94.1605 103.722C96.1719 104.066 97.8001 104.792 99.0858 105.872L100.371 104.34C98.7728 102.998 96.8014 102.145 94.498 101.75L94.1605 103.722ZM99.0858 105.872C100.353 106.935 101.172 108.295 101.546 109.988L103.499 109.556C103.033 107.448 101.988 105.697 100.371 104.34L99.0858 105.872ZM101.546 109.988C101.834 111.291 101.761 112.57 101.321 113.846L103.212 114.497C103.771 112.875 103.868 111.222 103.499 109.556L101.546 109.988ZM101.324 113.837C100.876 115.102 99.9981 116.518 98.6323 118.084L100.14 119.399C101.606 117.717 102.649 116.086 103.209 114.506L101.324 113.837ZM98.6323 118.084C97.2651 119.653 95.3775 121.434 92.9532 123.431L94.2246 124.975C96.6981 122.938 98.6753 121.079 100.14 119.399L98.6323 118.084ZM92.9436 123.439L85.4535 129.766L86.7442 131.294L94.2342 124.967L92.9436 123.439ZM87.0123 130.123L86.1984 128.296L84.3714 129.11L85.1854 130.937L87.0123 130.123ZM85.5009 129.679L106.747 124.979L106.315 123.026L85.0689 127.726L85.5009 129.679ZM105.555 124.218L106.851 130.077L108.804 129.645L107.508 123.786L105.555 124.218ZM107.611 128.884L79.0225 135.209L79.4545 137.162L108.043 130.837L107.611 128.884ZM80.2149 135.969L79.0744 130.814L77.1216 131.246L78.2621 136.401L80.2149 135.969ZM78.7717 131.769L89.7491 121.762L88.4017 120.284L77.4243 130.291L78.7717 131.769ZM89.7474 121.763C91.51 120.164 92.8855 118.815 93.8602 117.722L92.3678 116.391C91.4605 117.408 90.1436 118.703 88.4034 120.282L89.7474 121.763ZM93.863 117.719C94.857 116.596 95.5826 115.545 95.9579 114.578L94.0935 113.855C93.8425 114.501 93.2936 115.344 92.365 116.394L93.863 117.719ZM95.9579 114.578C96.339 113.597 96.4272 112.589 96.2039 111.58L94.2511 112.012C94.385 112.617 94.3387 113.223 94.0935 113.855L95.9579 114.578ZM96.2039 111.58C95.9762 110.55 95.4736 109.672 94.6982 108.979L93.3659 110.471C93.8158 110.873 94.1102 111.375 94.2511 112.012L96.2039 111.58ZM94.718 108.997C93.9542 108.278 92.966 107.852 91.8262 107.665L91.5021 109.638C92.3462 109.777 92.9365 110.067 93.3461 110.453L94.718 108.997ZM91.8262 107.665C90.6689 107.474 89.3478 107.566 87.8903 107.888L88.3223 109.841C89.6247 109.553 90.6755 109.502 91.5021 109.638L91.8262 107.665ZM87.8903 107.888C86.1605 108.271 84.7118 108.864 83.6021 109.71L84.8152 111.301C85.6217 110.685 86.7714 110.184 88.3223 109.841L87.8903 107.888ZM83.6184 109.698C82.5304 110.494 81.7359 111.456 81.3121 112.599L83.1872 113.294C83.4478 112.592 83.9592 111.927 84.799 111.313L83.6184 109.698ZM81.3121 112.599C80.9153 113.668 80.78 114.779 80.9059 115.919L82.8938 115.7C82.8018 114.867 82.8997 114.069 83.1872 113.294L81.3121 112.599ZM81.6839 114.833L74.3414 116.458L74.7734 118.41L82.1159 116.786L81.6839 114.833ZM107.023 109.145L106.034 109.292L106.192 110.353L107.239 110.122L107.023 109.145ZM107.861 103.675L106.957 103.247L107.861 103.675ZM112.065 98.9759L112.636 99.7976L112.64 99.7941L112.065 98.9759ZM126.838 95.3801L126.71 96.3719L126.718 96.3729L126.726 96.3738L126.838 95.3801ZM132.077 97.2115L131.493 98.0233L131.501 98.0294L132.077 97.2115ZM134.252 105.006L133.338 104.6L133.336 104.603L134.252 105.006ZM131.112 108.404L131.653 109.245L131.664 109.238L131.112 108.404ZM124.827 110.737L123.851 110.953L124.065 111.92L125.034 111.715L124.827 110.737ZM124.655 109.956L124.388 108.992L123.473 109.245L123.678 110.172L124.655 109.956ZM137.579 119.305L138.469 119.76L138.473 119.752L137.579 119.305ZM133.375 123.635L133.914 124.478L133.919 124.474L133.375 123.635ZM117.697 127.022L117.545 128.01L117.559 128.012L117.697 127.022ZM111.716 124.617L111.087 125.394L111.094 125.4L111.102 125.406L111.716 124.617ZM108.532 119.668L108.316 118.691L107.289 118.919L107.568 119.933L108.532 119.668ZM115.874 118.043L116.809 117.689L116.503 116.88L115.658 117.067L115.874 118.043ZM118.796 120.879L118.461 121.822L118.473 121.826L118.484 121.829L118.796 120.879ZM129.484 118.638L130.159 119.375L130.164 119.37L129.484 118.638ZM129.649 113.644L129.017 114.418L129.027 114.427L129.037 114.435L129.649 113.644ZM127.407 112.952L127.354 113.951L127.407 112.952ZM118.338 114.549L117.361 114.765L117.577 115.741L118.554 115.525L118.338 114.549ZM117.223 109.511L117.007 108.534L116.03 108.75L116.246 109.727L117.223 109.511ZM126.671 106.478L127.397 107.166L127.404 107.159L127.41 107.151L126.671 106.478ZM125.339 101.57L125.029 102.521L125.04 102.524L125.339 101.57ZM115.775 103.891L115.082 103.169L115.075 103.176L115.775 103.891ZM114.366 107.521L114.582 108.497L115.406 108.315L115.364 107.471L114.366 107.521ZM108.012 108.998C107.764 107.323 108.009 105.699 108.765 104.103L106.957 103.247C106.038 105.189 105.725 107.212 106.034 109.292L108.012 108.998ZM108.765 104.103C109.513 102.523 110.782 101.083 112.636 99.7975L111.495 98.1543C109.418 99.5954 107.885 101.288 106.957 103.247L108.765 104.103ZM112.64 99.7941C114.491 98.4937 116.888 97.4992 119.868 96.84L119.436 94.8872C116.272 95.5874 113.611 96.6677 111.491 98.1577L112.64 99.7941ZM119.868 96.84C122.469 96.2647 124.744 96.1192 126.71 96.3719L126.965 94.3882C124.714 94.0989 122.2 94.2758 119.436 94.8872L119.868 96.84ZM126.726 96.3738C128.73 96.599 130.301 97.1655 131.493 98.0232L132.661 96.3999C131.124 95.294 129.202 94.6395 126.949 94.3863L126.726 96.3738ZM131.501 98.0294C132.653 98.8398 133.373 99.9219 133.683 101.322L135.635 100.89C135.219 99.0088 134.217 97.4948 132.652 96.3937L131.501 98.0294ZM133.683 101.322C133.929 102.436 133.819 103.518 133.338 104.6L135.166 105.412C135.815 103.949 135.976 102.432 135.635 100.89L133.683 101.322ZM133.336 104.603C132.892 105.614 132.005 106.613 130.56 107.57L131.664 109.238C133.315 108.145 134.522 106.878 135.167 105.408L133.336 104.603ZM130.571 107.563C129.154 108.474 127.187 109.217 124.621 109.758L125.034 111.715C127.738 111.145 129.961 110.333 131.653 109.245L130.571 107.563ZM125.804 110.521L125.631 109.74L123.678 110.172L123.851 110.953L125.804 110.521ZM124.921 110.92C127.322 110.256 129.399 109.985 131.169 110.076L131.271 108.078C129.228 107.974 126.929 108.289 124.388 108.992L124.921 110.92ZM131.169 110.076C132.94 110.166 134.293 110.603 135.298 111.319L136.458 109.69C135.064 108.696 133.311 108.182 131.271 108.078L131.169 110.076ZM135.298 111.319C136.271 112.012 136.926 113.019 137.237 114.423L139.189 113.991C138.786 112.167 137.884 110.706 136.458 109.69L135.298 111.319ZM137.237 114.423C137.579 115.969 137.397 117.434 136.685 118.857L138.473 119.752C139.39 117.92 139.631 115.987 139.189 113.991L137.237 114.423ZM136.689 118.849C135.97 120.253 134.712 121.577 132.831 122.796L133.919 124.474C136.004 123.122 137.548 121.559 138.469 119.76L136.689 118.849ZM132.837 122.792C131.001 123.965 128.603 124.896 125.607 125.558L126.039 127.511C129.189 126.814 131.825 125.812 133.914 124.478L132.837 122.792ZM125.607 125.558C122.701 126.201 120.115 126.349 117.835 126.031L117.559 128.012C120.126 128.37 122.957 128.193 126.039 127.511L125.607 125.558ZM117.849 126.033C115.579 125.684 113.754 124.937 112.33 123.828L111.102 125.406C112.846 126.764 115.008 127.62 117.545 128.01L117.849 126.033ZM112.345 123.839C110.952 122.712 110.003 121.245 109.496 119.403L107.568 119.933C108.179 122.158 109.353 123.99 111.087 125.394L112.345 123.839ZM108.748 120.644L116.09 119.02L115.658 117.067L108.316 118.691L108.748 120.644ZM114.939 118.398C115.571 120.064 116.768 121.221 118.461 121.822L119.13 119.937C117.979 119.528 117.228 118.794 116.809 117.689L114.939 118.398ZM118.484 121.829C120.172 122.383 122.296 122.317 124.769 121.77L124.337 119.817C122.02 120.33 120.305 120.322 119.107 119.929L118.484 121.829ZM124.769 121.77C127.104 121.253 128.948 120.485 130.159 119.375L128.808 117.9C127.976 118.663 126.533 119.331 124.337 119.817L124.769 121.77ZM130.164 119.37C131.432 118.193 131.972 116.735 131.609 115.095L129.656 115.527C129.846 116.386 129.62 117.146 128.803 117.905L130.164 119.37ZM131.609 115.095C131.407 114.184 130.975 113.405 130.261 112.853L129.037 114.435C129.312 114.647 129.535 114.98 129.656 115.527L131.609 115.095ZM130.282 112.869C129.55 112.272 128.559 112.012 127.46 111.953L127.354 113.951C128.244 113.998 128.749 114.2 129.017 114.418L130.282 112.869ZM127.46 111.953C126.333 111.893 124.9 112.073 123.199 112.449L123.631 114.402C125.262 114.041 126.491 113.905 127.354 113.951L127.46 111.953ZM123.199 112.449L118.121 113.572L118.554 115.525L123.631 114.402L123.199 112.449ZM119.314 114.333L118.199 109.295L116.246 109.727L117.361 114.765L119.314 114.333ZM117.439 110.487L122.516 109.364L122.084 107.411L117.007 108.534L117.439 110.487ZM122.516 109.364C124.708 108.879 126.425 108.192 127.397 107.166L125.945 105.79C125.412 106.353 124.214 106.94 122.084 107.411L122.516 109.364ZM127.41 107.151C128.352 106.117 128.736 104.887 128.439 103.547L126.487 103.979C126.628 104.617 126.484 105.198 125.931 105.805L127.41 107.151ZM128.439 103.547C128.111 102.064 127.113 101.079 125.639 100.616L125.04 102.524C125.913 102.798 126.331 103.275 126.487 103.979L128.439 103.547ZM125.649 100.619C124.247 100.162 122.434 100.246 120.316 100.715L120.748 102.668C122.744 102.226 124.135 102.229 125.029 102.521L125.649 100.619ZM120.316 100.715C118.088 101.208 116.303 101.998 115.083 103.169L116.467 104.612C117.319 103.795 118.705 103.119 120.748 102.668L120.316 100.715ZM115.075 103.176C113.857 104.368 113.282 105.857 113.367 107.57L115.364 107.471C115.307 106.321 115.672 105.39 116.474 104.606L115.075 103.176ZM114.15 106.544L106.807 108.169L107.239 110.122L114.582 108.497L114.15 106.544Z" fill="#8F8FFF" mask="url(#path-1-outside-1_1_1409)"/>
<mask id="path-3-outside-2_1_1409" maskUnits="userSpaceOnUse" x="158.669" y="7.21002" width="362.751" height="111.826" fill="black">
<rect fill="white" x="158.669" y="7.21002" width="362.751" height="111.826"/>
<path d="M184.585 97.803L184.89 96.2197C187.193 95.7649 189.146 95.7016 190.748 96.03C192.376 96.3525 193.668 97.0089 194.625 97.999C195.601 98.9573 196.254 100.179 196.582 101.663C196.928 103.225 196.874 104.711 196.422 106.123C195.964 107.508 195.083 108.713 193.781 109.738C192.504 110.758 190.785 111.507 188.624 111.985L167.534 116.651L166.473 101.114L161.054 87.3595L181.402 82.8578C184.11 82.2588 186.347 82.433 188.113 83.3804C189.9 84.2961 191.038 85.8605 191.527 88.0737C191.798 89.2974 191.771 90.5325 191.446 91.7788C191.121 93.0251 190.42 94.1771 189.343 95.2347C188.26 96.2662 186.674 97.1224 184.585 97.803ZM174.401 113.248L170.82 110.394L185.7 107.102C186.976 106.819 187.899 106.301 188.47 105.547C189.06 104.761 189.232 103.808 188.984 102.688C188.737 101.568 188.137 100.773 187.186 100.3C186.255 99.796 185.009 99.7167 183.446 100.062L171.261 102.758L170.12 97.6028L181.368 95.1144C182.436 94.8782 183.255 94.3829 183.826 93.6285C184.39 92.8481 184.555 91.9242 184.318 90.8566C184.128 89.9974 183.673 89.3607 182.954 88.9464C182.228 88.506 181.292 88.4126 180.147 88.6661L166.712 91.6384L168.716 87.549L173.542 99.5498L174.401 113.248ZM203.469 77.9757L209.224 103.987L205.187 101.48L227.136 96.6236L228.579 103.146L202.568 108.901L196.088 79.6088L203.469 77.9757ZM236.094 95.2972L234.781 89.3607L255.012 84.8849L256.325 90.8214L236.094 95.2972ZM245.994 68.5676L265.988 94.8697L258.138 96.6065L240.74 72.9664L243.006 72.4652L237.243 101.229L229.393 102.966L236.426 70.6845L245.994 68.5676ZM296.718 75.3712C296.99 77.9602 296.611 80.3793 295.579 82.6287C294.541 84.852 292.943 86.7623 290.784 88.3598C288.624 89.9573 286.009 91.0959 282.936 91.7756C279.577 92.5187 276.481 92.5346 273.647 91.8233C270.839 91.1062 268.479 89.7576 266.566 87.7774C264.653 85.7972 263.36 83.2839 262.686 80.2376C262.012 77.1912 262.124 74.3669 263.023 71.7646C263.922 69.1622 265.494 66.9438 267.737 65.1092C270.006 63.2689 272.821 61.9772 276.179 61.2341C279.252 60.5544 282.104 60.4833 284.735 61.0209C287.367 61.5584 289.622 62.6163 291.5 64.1944C293.379 65.7725 294.744 67.8057 295.595 70.294L288.174 71.9357C287.62 70.6654 286.836 69.6509 285.821 68.8921C284.833 68.1276 283.633 67.642 282.221 67.4353C280.83 67.1968 279.289 67.2648 277.596 67.6392C275.644 68.0713 274.045 68.8073 272.8 69.8474C271.55 70.8615 270.694 72.116 270.232 73.6109C269.771 75.1059 269.742 76.7646 270.145 78.5872C270.549 80.4098 271.275 81.9015 272.323 83.0624C273.372 84.2232 274.68 85.0126 276.248 85.4306C277.809 85.8225 279.566 85.8025 281.519 85.3705C283.212 84.9961 284.641 84.4204 285.807 83.6434C287 82.8607 287.883 81.9142 288.457 80.8041C289.056 79.6882 289.337 78.4245 289.297 77.0129L296.718 75.3712ZM303.525 86.5651L297.045 57.2734L304.387 55.649L309.563 79.0433L307.234 77.9608L319.736 52.2532L327.547 50.5251L310.165 85.0962L303.525 86.5651ZM314.41 69.286L318.71 63.5413L334.418 79.7304L326.06 81.5795L314.41 69.286ZM346.089 59.2048L367.296 54.513L368.687 60.8009L347.48 65.4927L346.089 59.2048ZM365.303 42.1721L366.694 48.4601L344.94 53.2728L347.769 48.8371L353.662 75.473L346.28 77.1061L339.8 47.8144L365.303 42.1721ZM377.555 52.9807L388.53 50.5527C389.91 50.2474 390.934 49.6931 391.603 48.8896C392.266 48.0601 392.471 47.0725 392.218 45.9269C391.964 44.7813 391.365 43.9853 390.419 43.539C389.468 43.0666 388.303 42.9831 386.923 43.2884L374.894 45.9497L377.41 41.583L383.449 68.8829L376.068 70.516L369.588 41.2243L386.655 37.4484C388.842 36.9645 390.842 36.9317 392.655 37.3499C394.468 37.7681 395.983 38.5664 397.2 39.7447C398.416 40.9231 399.229 42.4366 399.638 44.2852C400.041 46.1078 399.94 47.8099 399.334 49.3915C398.728 50.973 397.691 52.3358 396.224 53.4798C394.75 54.5978 392.92 55.3987 390.733 55.8826L378.782 58.5266L377.555 52.9807ZM382.877 54.6301L391.196 52.7896L405.008 64.1134L396.455 66.0056L382.877 54.6301ZM402.388 33.9676L409.77 32.3345L416.25 61.6262L408.869 63.2593L402.388 33.9676ZM429.765 27.9109C433.202 27.1505 436.344 27.0971 439.193 27.7506C442.041 28.404 444.423 29.6659 446.339 31.5362C448.281 33.4007 449.577 35.8041 450.228 38.7463C450.874 41.6625 450.712 44.3884 449.743 46.9241C448.795 49.4281 447.168 51.577 444.861 53.3711C442.554 55.1651 439.682 56.4423 436.245 57.2026L421.951 60.3651L415.47 31.0733L429.765 27.9109ZM428.628 55.7334L424.257 53.0133L435.349 50.5594C437.224 50.1446 438.776 49.4461 440.006 48.4639C441.236 47.4816 442.096 46.3081 442.587 44.9433C443.071 43.5525 443.132 42.037 442.769 40.3966C442.4 38.7303 441.706 37.3818 440.686 36.3511C439.666 35.3204 438.391 34.6193 436.861 34.2476C435.331 33.8759 433.629 33.8975 431.754 34.3122L420.663 36.7661L423.478 32.4562L428.628 55.7334ZM459.978 45.766L458.664 39.8296L478.895 35.3538L480.209 41.2903L459.978 45.766ZM469.877 19.0365L489.871 45.3386L482.021 47.0753L464.624 23.4352L466.889 22.9341L461.126 51.698L453.276 53.4348L460.309 21.1534L469.877 19.0365ZM497.923 43.5573L494.786 29.3801L502.168 27.747L505.304 41.9242L497.923 43.5573ZM477.695 17.307L485.857 15.5012L499.869 26.9856L496.471 27.7373L504.331 11.4142L512.493 9.60832L501.712 31.9854L496.965 33.1177L477.695 17.307Z"/>
</mask>
<path d="M184.585 97.803L183.603 97.6137L183.282 99.2793L184.895 98.7538L184.585 97.803ZM184.89 96.2197L184.697 95.2386L184.036 95.3691L183.908 96.0304L184.89 96.2197ZM190.748 96.03L190.547 97.0096L190.553 97.0109L190.748 96.03ZM194.625 97.999L193.905 98.6938L193.915 98.7034L193.924 98.7128L194.625 97.999ZM196.422 106.123L197.371 106.437L197.374 106.428L196.422 106.123ZM193.781 109.738L193.162 108.953L193.156 108.957L193.781 109.738ZM167.534 116.651L166.536 116.719L166.616 117.879L167.75 117.628L167.534 116.651ZM166.473 101.114L167.47 101.046L167.46 100.891L167.403 100.747L166.473 101.114ZM161.054 87.3595L160.838 86.3832L159.694 86.6362L160.123 87.7261L161.054 87.3595ZM188.113 83.3804L187.64 84.2617L187.649 84.2661L187.657 84.2704L188.113 83.3804ZM191.446 91.7788L190.478 91.5264L191.446 91.7788ZM189.343 95.2347L190.033 95.9587L190.038 95.9535L190.043 95.9482L189.343 95.2347ZM174.401 113.248L173.778 114.03L175.54 115.434L175.399 113.185L174.401 113.248ZM170.82 110.394L170.604 109.417L168.558 109.87L170.197 111.176L170.82 110.394ZM188.47 105.547L189.267 106.15L189.269 106.147L188.47 105.547ZM187.186 100.3L186.71 101.179L186.725 101.188L186.741 101.196L187.186 100.3ZM171.261 102.758L170.285 102.974L170.501 103.951L171.477 103.735L171.261 102.758ZM170.12 97.6028L169.904 96.6265L168.928 96.8425L169.144 97.8189L170.12 97.6028ZM183.826 93.6285L184.623 94.2317L184.629 94.2233L184.636 94.2148L183.826 93.6285ZM182.954 88.9464L182.435 89.8013L182.445 89.8073L182.455 89.8131L182.954 88.9464ZM166.712 91.6384L165.814 91.1984L164.9 93.0634L166.928 92.6148L166.712 91.6384ZM168.716 87.549L169.643 87.1758L168.806 85.0927L167.818 87.1089L168.716 87.549ZM173.542 99.5498L174.54 99.4872L174.53 99.3262L174.47 99.1766L173.542 99.5498ZM185.567 97.9923L185.872 96.409L183.908 96.0304L183.603 97.6137L185.567 97.9923ZM185.084 97.2007C187.309 96.7613 189.119 96.7169 190.547 97.0096L190.948 95.0503C189.173 94.6864 187.077 94.7684 184.697 95.2386L185.084 97.2007ZM190.553 97.0109C192.023 97.3021 193.118 97.8783 193.905 98.6938L195.344 97.3042C194.219 96.1395 192.728 95.403 190.942 95.049L190.553 97.0109ZM193.924 98.7128C194.748 99.5206 195.315 100.562 195.606 101.879L197.559 101.447C197.193 99.795 196.455 98.394 195.325 97.2852L193.924 98.7128ZM195.606 101.879C195.916 103.282 195.864 104.588 195.47 105.817L197.374 106.428C197.885 104.835 197.939 103.167 197.559 101.447L195.606 101.879ZM195.472 105.808C195.084 106.983 194.332 108.031 193.162 108.953L194.399 110.524C195.834 109.394 196.843 108.033 197.371 106.437L195.472 105.808ZM193.156 108.957C192.034 109.854 190.47 110.553 188.408 111.009L188.84 112.962C191.1 112.462 192.974 111.663 194.405 110.52L193.156 108.957ZM188.408 111.009L167.318 115.675L167.75 117.628L188.84 112.962L188.408 111.009ZM168.532 116.583L167.47 101.046L165.475 101.182L166.536 116.719L168.532 116.583ZM167.403 100.747L161.984 86.993L160.123 87.7261L165.542 101.48L167.403 100.747ZM161.27 88.3359L181.618 83.8342L181.186 81.8814L160.838 86.3832L161.27 88.3359ZM181.618 83.8342C184.181 83.2671 186.153 83.4641 187.64 84.2617L188.586 82.4992C186.54 81.4018 184.038 81.2505 181.186 81.8814L181.618 83.8342ZM187.657 84.2704C189.142 85.0316 190.116 86.3252 190.551 88.2897L192.504 87.8577C191.959 85.3958 190.657 83.5607 188.569 82.4905L187.657 84.2704ZM190.551 88.2897C190.787 89.3544 190.765 90.4289 190.478 91.5264L192.414 92.0312C192.777 90.636 192.81 89.2404 192.504 87.8577L190.551 88.2897ZM190.478 91.5264C190.206 92.5696 189.612 93.5683 188.642 94.5212L190.043 95.9482C191.227 94.7859 192.035 93.4806 192.414 92.0312L190.478 91.5264ZM188.653 94.5107C187.717 95.4025 186.284 96.1979 184.275 96.8522L184.895 98.7538C187.065 98.0469 188.803 97.13 190.033 95.9587L188.653 94.5107ZM175.024 112.466L171.443 109.612L170.197 111.176L173.778 114.03L175.024 112.466ZM171.036 111.37L185.916 108.078L185.484 106.125L170.604 109.417L171.036 111.37ZM185.916 108.078C187.336 107.764 188.507 107.155 189.267 106.15L187.672 104.944C187.291 105.447 186.616 105.875 185.484 106.125L185.916 108.078ZM189.269 106.147C190.065 105.088 190.26 103.824 189.961 102.472L188.008 102.904C188.204 103.791 188.056 104.433 187.67 104.946L189.269 106.147ZM189.961 102.472C189.654 101.084 188.877 100.023 187.631 99.4045L186.741 101.196C187.398 101.522 187.82 102.053 188.008 102.904L189.961 102.472ZM187.662 99.4208C186.435 98.756 184.912 98.714 183.23 99.086L183.662 101.039C185.106 100.719 186.076 100.836 186.71 101.179L187.662 99.4208ZM183.23 99.086L171.045 101.782L171.477 103.735L183.662 101.039L183.23 99.086ZM172.237 102.542L171.097 97.3868L169.144 97.8189L170.285 102.974L172.237 102.542ZM170.336 98.5792L181.585 96.0908L181.152 94.138L169.904 96.6265L170.336 98.5792ZM181.585 96.0908C182.846 95.8117 183.887 95.2048 184.623 94.2317L183.028 93.0253C182.623 93.5611 182.026 93.9447 181.152 94.138L181.585 96.0908ZM184.636 94.2148C185.391 93.1704 185.583 91.9453 185.295 90.6406L183.342 91.0726C183.526 91.903 183.389 92.5258 183.015 93.0423L184.636 94.2148ZM185.295 90.6406C185.048 89.5254 184.432 88.6433 183.452 88.0797L182.455 89.8131C182.915 90.078 183.209 90.4694 183.342 91.0726L185.295 90.6406ZM183.472 88.0915C182.454 87.4735 181.23 87.4021 179.931 87.6897L180.363 89.6424C181.354 89.4231 182.002 89.5386 182.435 89.8013L183.472 88.0915ZM179.931 87.6897L166.496 90.662L166.928 92.6148L180.363 89.6424L179.931 87.6897ZM167.61 92.0784L169.614 87.989L167.818 87.1089L165.814 91.1984L167.61 92.0784ZM167.788 87.9221L172.614 99.9229L174.47 99.1766L169.643 87.1758L167.788 87.9221ZM172.544 99.6124L173.403 113.31L175.399 113.185L174.54 99.4872L172.544 99.6124ZM203.469 77.9757L204.445 77.7597L204.229 76.7833L203.253 76.9993L203.469 77.9757ZM209.224 103.987L208.696 104.836L210.713 106.089L210.2 103.771L209.224 103.987ZM205.187 101.48L204.971 100.503L202.573 101.034L204.659 102.329L205.187 101.48ZM227.136 96.6236L228.112 96.4076L227.896 95.4312L226.92 95.6472L227.136 96.6236ZM228.579 103.146L228.795 104.122L229.771 103.906L229.555 102.93L228.579 103.146ZM202.568 108.901L201.592 109.117L201.808 110.093L202.784 109.877L202.568 108.901ZM196.088 79.6088L195.872 78.6324L194.895 78.8484L195.111 79.8248L196.088 79.6088ZM202.493 78.1917L208.247 104.203L210.2 103.771L204.445 77.7597L202.493 78.1917ZM209.751 103.137L205.714 100.63L204.659 102.329L208.696 104.836L209.751 103.137ZM205.403 102.456L227.352 97.6L226.92 95.6472L204.971 100.503L205.403 102.456ZM226.16 96.8396L227.603 103.362L229.555 102.93L228.112 96.4076L226.16 96.8396ZM228.363 102.17L202.352 107.924L202.784 109.877L228.795 104.122L228.363 102.17ZM203.544 108.684L197.064 79.3928L195.111 79.8248L201.592 109.117L203.544 108.684ZM196.304 80.5852L203.685 78.9521L203.253 76.9993L195.872 78.6324L196.304 80.5852ZM236.094 95.2972L235.118 95.5132L235.334 96.4896L236.31 96.2736L236.094 95.2972ZM234.781 89.3607L234.565 88.3843L233.589 88.6003L233.805 89.5767L234.781 89.3607ZM255.012 84.8849L255.988 84.6689L255.772 83.6925L254.796 83.9085L255.012 84.8849ZM256.325 90.8214L256.541 91.7978L257.518 91.5818L257.302 90.6054L256.325 90.8214ZM245.994 68.5676L246.79 67.9625L246.403 67.453L245.778 67.5912L245.994 68.5676ZM265.988 94.8697L266.204 95.8461L267.73 95.5086L266.784 94.2646L265.988 94.8697ZM258.138 96.6065L257.332 97.1992L257.718 97.7235L258.354 97.5829L258.138 96.6065ZM240.74 72.9664L240.524 71.99L239.024 72.3218L239.935 73.5591L240.74 72.9664ZM243.006 72.4652L243.986 72.6617L244.287 71.1574L242.79 71.4888L243.006 72.4652ZM237.243 101.229L237.459 102.206L238.095 102.065L238.223 101.426L237.243 101.229ZM229.393 102.966L228.416 102.753L228.083 104.28L229.609 103.942L229.393 102.966ZM236.426 70.6845L236.21 69.7082L235.585 69.8464L235.449 70.4717L236.426 70.6845ZM237.071 95.0812L235.757 89.1447L233.805 89.5767L235.118 95.5132L237.071 95.0812ZM234.997 90.3371L255.228 85.8613L254.796 83.9085L234.565 88.3843L234.997 90.3371ZM254.035 85.1009L255.349 91.0374L257.302 90.6054L255.988 84.6689L254.035 85.1009ZM256.109 89.845L235.878 94.3208L236.31 96.2736L256.541 91.7978L256.109 89.845ZM245.198 69.1728L265.192 95.4749L266.784 94.2646L246.79 67.9625L245.198 69.1728ZM265.772 93.8933L257.922 95.6301L258.354 97.5829L266.204 95.8461L265.772 93.8933ZM258.943 96.0137L241.546 72.3737L239.935 73.5591L257.332 97.1992L258.943 96.0137ZM240.956 73.9428L243.222 73.4416L242.79 71.4888L240.524 71.99L240.956 73.9428ZM242.025 72.2688L236.262 101.033L238.223 101.426L243.986 72.6617L242.025 72.2688ZM237.027 100.253L229.177 101.989L229.609 103.942L237.459 102.206L237.027 100.253ZM230.37 103.179L237.403 70.8974L235.449 70.4717L228.416 102.753L230.37 103.179ZM236.642 71.6609L246.21 69.544L245.778 67.5912L236.21 69.7082L236.642 71.6609ZM296.718 75.3712L297.713 75.2666L297.595 74.153L296.502 74.3949L296.718 75.3712ZM295.579 82.6287L296.485 83.0516L296.488 83.0456L295.579 82.6287ZM290.784 88.3598L290.189 87.5559L290.784 88.3598ZM273.647 91.8233L273.4 92.7922L273.404 92.7932L273.647 91.8233ZM266.566 87.7774L265.847 88.4722L266.566 87.7774ZM263.023 71.7646L262.078 71.438L263.023 71.7646ZM267.737 65.1092L267.107 64.3325L267.104 64.3351L267.737 65.1092ZM291.5 64.1944L290.857 64.9601L290.857 64.9601L291.5 64.1944ZM295.595 70.294L295.811 71.2704L296.903 71.0288L296.541 69.9704L295.595 70.294ZM288.174 71.9357L287.258 72.3356L287.587 73.0899L288.39 72.9121L288.174 71.9357ZM285.821 68.8921L285.209 69.6832L285.216 69.6881L285.222 69.6929L285.821 68.8921ZM282.221 67.4353L282.053 68.4209L282.065 68.423L282.077 68.4248L282.221 67.4353ZM272.8 69.8474L273.43 70.6241L273.436 70.6195L273.441 70.6148L272.8 69.8474ZM270.232 73.6109L271.188 73.9058L270.232 73.6109ZM272.323 83.0624L271.581 83.7328L271.581 83.7328L272.323 83.0624ZM276.248 85.4306L275.99 86.3968L275.997 86.3987L276.004 86.4005L276.248 85.4306ZM285.807 83.6434L285.259 82.8074L285.253 82.8111L285.807 83.6434ZM288.457 80.8041L287.576 80.3307L287.572 80.3378L287.568 80.345L288.457 80.8041ZM289.297 77.0129L289.081 76.0366L288.275 76.215L288.298 77.0407L289.297 77.0129ZM295.724 75.4759C295.978 77.8961 295.623 80.134 294.67 82.2117L296.488 83.0456C297.598 80.6247 298.003 78.0243 297.713 75.2666L295.724 75.4759ZM294.673 82.2058C293.712 84.2641 292.227 86.0479 290.189 87.5559L291.378 89.1637C293.659 87.4768 295.37 85.4398 296.485 83.0516L294.673 82.2058ZM290.189 87.5559C288.16 89.0569 285.679 90.1446 282.72 90.7992L283.152 92.752C286.338 92.0471 289.089 90.8577 291.378 89.1637L290.189 87.5559ZM282.72 90.7992C279.486 91.5147 276.549 91.5207 273.891 90.8534L273.404 92.7932C276.413 93.5484 279.669 93.5227 283.152 92.752L282.72 90.7992ZM273.895 90.8544C271.257 90.1807 269.062 88.9223 267.285 87.0826L265.847 88.4722C267.895 90.5928 270.422 92.0318 273.4 92.7922L273.895 90.8544ZM267.285 87.0826C265.517 85.2522 264.302 82.9122 263.662 80.0215L261.709 80.4536C262.418 83.6556 263.789 86.3421 265.847 88.4722L267.285 87.0826ZM263.662 80.0215C263.023 77.1309 263.138 74.4966 263.969 72.0911L262.078 71.438C261.111 74.2372 261.001 77.2516 261.709 80.4536L263.662 80.0215ZM263.969 72.0911C264.804 69.6734 266.262 67.607 268.37 65.8833L267.104 64.3351C264.725 66.2806 263.041 68.6511 262.078 71.438L263.969 72.0911ZM268.367 65.8859C270.496 64.1593 273.161 62.926 276.395 62.2105L275.963 60.2577C272.48 61.0284 269.517 62.3785 267.107 64.3325L268.367 65.8859ZM276.395 62.2105C279.354 61.5559 282.062 61.4955 284.535 62.0006L284.935 60.0411C282.145 59.4711 279.149 59.5528 275.963 60.2577L276.395 62.2105ZM284.535 62.0006C287.019 62.5081 289.118 63.4991 290.857 64.9601L292.144 63.4287C290.126 61.7335 287.714 60.6088 284.935 60.0411L284.535 62.0006ZM290.857 64.9601C292.586 66.4127 293.852 68.2887 294.649 70.6176L296.541 69.9704C295.636 67.3228 294.172 65.1324 292.144 63.4287L290.857 64.9601ZM295.379 69.3176L287.958 70.9593L288.39 72.9121L295.811 71.2704L295.379 69.3176ZM289.091 71.5359C288.474 70.122 287.586 68.9635 286.42 68.0913L285.222 69.6929C286.085 70.3383 286.766 71.2089 287.258 72.3356L289.091 71.5359ZM286.433 68.1011C285.29 67.2173 283.923 66.6739 282.366 66.4459L282.077 68.4248C283.342 68.6101 284.375 69.0379 285.209 69.6832L286.433 68.1011ZM282.39 66.4497C280.846 66.1849 279.171 66.2666 277.38 66.6628L277.812 68.6156C279.406 68.263 280.815 68.2087 282.053 68.4209L282.39 66.4497ZM277.38 66.6628C275.307 67.1215 273.552 67.916 272.159 69.0801L273.441 70.6148C274.538 69.6986 275.98 69.021 277.812 68.6156L277.38 66.6628ZM272.17 69.0707C270.771 70.2057 269.798 71.626 269.277 73.3161L271.188 73.9058C271.589 72.6059 272.329 71.5172 273.43 70.6241L272.17 69.0707ZM269.277 73.3161C268.755 75.0059 268.736 76.8442 269.169 78.8032L271.122 78.3712C270.749 76.6851 270.787 75.2058 271.188 73.9058L269.277 73.3161ZM269.169 78.8032C269.602 80.7623 270.396 82.4206 271.581 83.7328L273.065 82.392C272.153 81.3825 271.495 80.0573 271.122 78.3712L269.169 78.8032ZM271.581 83.7328C272.765 85.0424 274.243 85.931 275.99 86.3968L276.505 84.4644C275.117 84.0942 273.98 83.404 273.065 82.392L271.581 83.7328ZM276.004 86.4005C277.748 86.8383 279.667 86.8045 281.735 86.3469L281.303 84.3941C279.466 84.8005 277.87 84.8068 276.491 84.4607L276.004 86.4005ZM281.735 86.3469C283.521 85.9518 285.071 85.3353 286.362 84.4757L285.253 82.8111C284.211 83.5055 282.902 84.0403 281.303 84.3941L281.735 86.3469ZM286.356 84.4794C287.672 83.6159 288.682 82.5466 289.345 81.2632L287.568 80.345C287.084 81.2819 286.328 82.1055 285.259 82.8074L286.356 84.4794ZM289.337 81.2775C290.029 79.9907 290.34 78.5508 290.297 76.9852L288.298 77.0407C288.333 78.2981 288.084 79.3857 287.576 80.3307L289.337 81.2775ZM289.513 77.9893L296.934 76.3476L296.502 74.3949L289.081 76.0366L289.513 77.9893ZM303.525 86.5651L302.549 86.7811L302.765 87.7575L303.741 87.5415L303.525 86.5651ZM297.045 57.2734L296.829 56.297L295.852 56.513L296.068 57.4894L297.045 57.2734ZM304.387 55.649L305.364 55.4329L305.148 54.4565L304.171 54.6726L304.387 55.649ZM309.563 79.0433L309.141 79.9501L310.976 80.8031L310.539 78.8273L309.563 79.0433ZM307.234 77.9608L306.335 77.5234L305.89 78.4386L306.813 78.8676L307.234 77.9608ZM319.736 52.2532L319.52 51.2768L319.048 51.3812L318.837 51.8159L319.736 52.2532ZM327.547 50.5251L328.441 50.9743L329.386 49.0941L327.331 49.5487L327.547 50.5251ZM310.165 85.0962L310.381 86.0726L310.845 85.9699L311.058 85.5454L310.165 85.0962ZM314.41 69.286L313.609 68.6867L313.104 69.3617L313.684 69.9738L314.41 69.286ZM318.71 63.5413L319.428 62.845L318.612 62.004L317.91 62.942L318.71 63.5413ZM334.418 79.7304L334.634 80.7068L336.383 80.3198L335.136 79.0341L334.418 79.7304ZM326.06 81.5795L325.334 82.2674L325.724 82.6781L326.276 82.5559L326.06 81.5795ZM304.502 86.3491L298.021 57.0574L296.068 57.4894L302.549 86.7811L304.502 86.3491ZM297.261 58.2498L304.603 56.6253L304.171 54.6726L296.829 56.297L297.261 58.2498ZM303.411 55.865L308.587 79.2593L310.539 78.8273L305.364 55.4329L303.411 55.865ZM309.984 78.1365L307.656 77.054L306.813 78.8676L309.141 79.9501L309.984 78.1365ZM308.133 78.3981L320.635 52.6906L318.837 51.8159L306.335 77.5234L308.133 78.3981ZM319.952 53.2296L327.763 51.5015L327.331 49.5487L319.52 51.2768L319.952 53.2296ZM326.654 50.0759L309.271 84.647L311.058 85.5454L328.441 50.9743L326.654 50.0759ZM309.949 84.1198L303.309 85.5887L303.741 87.5415L310.381 86.0726L309.949 84.1198ZM315.21 69.8853L319.511 64.1406L317.91 62.942L313.609 68.6867L315.21 69.8853ZM317.993 64.2377L333.7 80.4268L335.136 79.0341L319.428 62.845L317.993 64.2377ZM334.202 78.754L325.844 80.6031L326.276 82.5559L334.634 80.7068L334.202 78.754ZM326.786 80.8916L315.135 68.5981L313.684 69.9738L325.334 82.2674L326.786 80.8916ZM346.089 59.2048L345.873 58.2284L344.897 58.4444L345.113 59.4208L346.089 59.2048ZM367.296 54.513L368.273 54.297L368.057 53.3206L367.08 53.5366L367.296 54.513ZM368.687 60.8009L368.903 61.7773L369.88 61.5613L369.664 60.5849L368.687 60.8009ZM347.48 65.4927L346.504 65.7088L346.72 66.6851L347.696 66.4691L347.48 65.4927ZM365.303 42.1721L366.28 41.9561L366.064 40.9797L365.087 41.1957L365.303 42.1721ZM366.694 48.4601L366.91 49.4364L367.887 49.2204L367.671 48.244L366.694 48.4601ZM344.94 53.2728L344.097 52.7352L342.799 54.7707L345.156 54.2492L344.94 53.2728ZM347.769 48.8371L348.745 48.6211L348.224 46.2639L346.926 48.2994L347.769 48.8371ZM353.662 75.473L353.878 76.4494L354.854 76.2334L354.638 75.257L353.662 75.473ZM346.28 77.1061L345.304 77.3221L345.52 78.2985L346.496 78.0825L346.28 77.1061ZM339.8 47.8144L339.584 46.838L338.608 47.054L338.824 48.0304L339.8 47.8144ZM346.305 60.1812L367.512 55.4894L367.08 53.5366L345.873 58.2284L346.305 60.1812ZM366.32 54.729L367.711 61.0169L369.664 60.5849L368.273 54.297L366.32 54.729ZM368.471 59.8245L347.264 64.5164L347.696 66.4691L368.903 61.7773L368.471 59.8245ZM348.456 65.2767L347.065 58.9888L345.113 59.4208L346.504 65.7088L348.456 65.2767ZM364.327 42.3881L365.718 48.6761L367.671 48.244L366.28 41.9561L364.327 42.3881ZM366.478 47.4837L344.724 52.2964L345.156 54.2492L366.91 49.4364L366.478 47.4837ZM345.784 53.8105L348.612 49.3748L346.926 48.2994L344.097 52.7352L345.784 53.8105ZM346.793 49.0531L352.686 75.689L354.638 75.257L348.745 48.6211L346.793 49.0531ZM353.446 74.4966L346.064 76.1297L346.496 78.0825L353.878 76.4494L353.446 74.4966ZM347.257 76.8901L340.776 47.5983L338.824 48.0304L345.304 77.3221L347.257 76.8901ZM340.016 48.7908L365.519 43.1485L365.087 41.1957L339.584 46.838L340.016 48.7908ZM377.555 52.9807L377.339 52.0043L376.363 52.2203L376.579 53.1967L377.555 52.9807ZM391.603 48.8896L392.372 49.5294L392.378 49.5218L392.384 49.514L391.603 48.8896ZM390.419 43.539L389.975 44.4346L389.983 44.439L389.992 44.4433L390.419 43.539ZM374.894 45.9497L374.027 45.4504L372.894 47.4161L375.11 46.9261L374.894 45.9497ZM377.41 41.5831L378.386 41.367L377.83 38.8515L376.543 41.0838L377.41 41.5831ZM383.449 68.8829L383.665 69.8593L384.642 69.6433L384.426 68.6669L383.449 68.8829ZM376.068 70.516L375.092 70.732L375.308 71.7084L376.284 71.4924L376.068 70.516ZM369.588 41.2243L369.372 40.2479L368.395 40.4639L368.611 41.4403L369.588 41.2243ZM392.655 37.3499L392.43 38.3243L392.655 37.3499ZM397.2 39.7447L397.896 39.0264L397.2 39.7447ZM399.334 49.3915L400.268 49.7493L399.334 49.3915ZM396.224 53.4798L396.828 54.2765L396.839 54.2685L396.224 53.4798ZM378.782 58.5266L377.806 58.7426L378.022 59.719L378.998 59.503L378.782 58.5266ZM382.877 54.6301L382.661 53.6537L380.678 54.0924L382.235 55.3966L382.877 54.6301ZM391.196 52.7896L391.83 52.0163L391.454 51.7083L390.98 51.8132L391.196 52.7896ZM405.008 64.1134L405.224 65.0898L407.234 64.6451L405.642 63.34L405.008 64.1134ZM396.455 66.0056L395.813 66.7722L396.19 67.0884L396.671 66.982L396.455 66.0056ZM377.771 53.9571L388.746 51.5291L388.314 49.5763L377.339 52.0043L377.771 53.9571ZM388.746 51.5291C390.267 51.1927 391.518 50.5544 392.372 49.5294L390.835 48.2498C390.35 48.8317 389.553 49.3022 388.314 49.5763L388.746 51.5291ZM392.384 49.514C393.258 48.4215 393.505 47.1166 393.194 45.7109L391.241 46.1429C391.437 47.0285 391.275 47.6987 390.822 48.2652L392.384 49.514ZM393.194 45.7109C392.883 44.3053 392.108 43.2305 390.846 42.6347L389.992 44.4433C390.621 44.7401 391.045 45.2572 391.241 46.1429L393.194 45.7109ZM390.864 42.6433C389.65 42.0401 388.236 41.9737 386.707 42.312L387.139 44.2648C388.37 43.9925 389.287 44.0931 389.975 44.4346L390.864 42.6433ZM386.707 42.312L374.678 44.9733L375.11 46.9261L387.139 44.2648L386.707 42.312ZM375.76 46.4489L378.276 42.0823L376.543 41.0838L374.027 45.4504L375.76 46.4489ZM376.433 41.7991L382.473 69.0989L384.426 68.6669L378.386 41.367L376.433 41.7991ZM383.233 67.9065L375.852 69.5396L376.284 71.4924L383.665 69.8593L383.233 67.9065ZM377.044 70.3L370.564 41.0083L368.611 41.4403L375.092 70.732L377.044 70.3ZM369.804 42.2007L386.871 38.4248L386.439 36.472L369.372 40.2479L369.804 42.2007ZM386.871 38.4248C388.942 37.9666 390.789 37.9456 392.43 38.3243L392.88 36.3755C390.895 35.9177 388.742 35.9624 386.439 36.472L386.871 38.4248ZM392.43 38.3243C394.084 38.7058 395.431 39.4236 396.504 40.463L397.896 39.0264C396.536 37.7091 394.852 36.8304 392.88 36.3755L392.43 38.3243ZM396.504 40.463C397.564 41.4893 398.29 42.8205 398.662 44.5012L400.615 44.0692C400.168 42.0526 399.269 40.3568 397.896 39.0264L396.504 40.463ZM398.662 44.5012C399.027 46.1528 398.929 47.6536 398.4 49.0337L400.268 49.7493C400.951 47.9662 401.056 46.0628 400.615 44.0692L398.662 44.5012ZM398.4 49.0337C397.866 50.4288 396.948 51.6477 395.609 52.6912L396.839 54.2685C398.435 53.024 399.59 51.5173 400.268 49.7493L398.4 49.0337ZM395.619 52.6832C394.283 53.6975 392.593 54.4471 390.517 54.9062L390.949 56.859C393.248 56.3504 395.218 55.4981 396.828 54.2765L395.619 52.6832ZM390.517 54.9062L378.566 57.5502L378.998 59.503L390.949 56.859L390.517 54.9062ZM379.759 58.3106L378.532 52.7647L376.579 53.1967L377.806 58.7426L379.759 58.3106ZM383.093 55.6064L391.412 53.766L390.98 51.8132L382.661 53.6537L383.093 55.6064ZM390.562 53.563L404.374 64.8867L405.642 63.34L391.83 52.0163L390.562 53.563ZM404.792 63.137L396.239 65.0292L396.671 66.982L405.224 65.0898L404.792 63.137ZM397.097 65.2391L383.519 53.8635L382.235 55.3966L395.813 66.7722L397.097 65.2391ZM402.388 33.9676L402.172 32.9912L401.196 33.2072L401.412 34.1836L402.388 33.9676ZM409.77 32.3345L410.746 32.1185L410.53 31.1421L409.554 31.3581L409.77 32.3345ZM416.25 61.6262L416.466 62.6026L417.442 62.3866L417.226 61.4102L416.25 61.6262ZM408.869 63.2593L407.892 63.4753L408.108 64.4517L409.085 64.2357L408.869 63.2593ZM402.604 34.944L409.986 33.3109L409.554 31.3581L402.172 32.9912L402.604 34.944ZM408.793 32.5505L415.274 61.8423L417.226 61.4102L410.746 32.1185L408.793 32.5505ZM416.034 60.6498L408.653 62.2829L409.085 64.2357L416.466 62.6026L416.034 60.6498ZM409.845 63.0433L403.365 33.7516L401.412 34.1836L407.892 63.4753L409.845 63.0433ZM439.193 27.7506L438.969 28.7252L439.193 27.7506ZM446.339 31.5362L445.64 32.2518L445.646 32.2575L446.339 31.5362ZM449.743 46.9241L448.809 46.5673L448.808 46.57L449.743 46.9241ZM444.861 53.3711L444.247 52.5817L444.861 53.3711ZM421.951 60.3651L420.974 60.5811L421.19 61.5575L422.167 61.3414L421.951 60.3651ZM415.47 31.0733L415.254 30.097L414.278 30.313L414.494 31.2894L415.47 31.0733ZM428.628 55.7334L428.099 56.5824L430.118 57.8384L429.604 55.5173L428.628 55.7334ZM424.257 53.0133L424.041 52.0369L421.647 52.5666L423.729 53.8623L424.257 53.0133ZM440.006 48.4639L439.382 47.6824L440.006 48.4639ZM442.587 44.9433L443.528 45.2813L443.531 45.2722L442.587 44.9433ZM440.686 36.3511L439.975 37.0545L440.686 36.3511ZM436.861 34.2476L437.097 33.2759L437.097 33.2759L436.861 34.2476ZM420.663 36.7661L419.825 36.2192L418.484 38.2722L420.879 37.7425L420.663 36.7661ZM423.478 32.4562L424.454 32.2402L423.941 29.9191L422.641 31.9093L423.478 32.4562ZM429.981 28.8873C433.302 28.1525 436.292 28.111 438.969 28.7252L439.416 26.7759C436.397 26.0832 433.101 26.1486 429.549 26.9345L429.981 28.8873ZM438.969 28.7252C441.655 29.3415 443.868 30.5215 445.641 32.2518L447.038 30.8206C444.978 28.8103 442.427 27.4666 439.416 26.7759L438.969 28.7252ZM445.646 32.2575C447.429 33.9694 448.638 36.1891 449.252 38.9623L451.205 38.5303C450.516 35.4192 449.133 32.8321 447.032 30.8149L445.646 32.2575ZM449.252 38.9623C449.859 41.7074 449.701 44.2325 448.809 46.5673L450.678 47.2809C451.723 44.5443 451.888 41.6175 451.205 38.5303L449.252 38.9623ZM448.808 46.57C447.931 48.8865 446.422 50.8898 444.247 52.5817L445.475 54.1604C447.913 52.2643 449.659 49.9696 450.679 47.2783L448.808 46.57ZM444.247 52.5817C442.079 54.2679 439.35 55.4915 436.029 56.2262L436.461 58.179C440.014 57.3931 443.029 56.0623 445.475 54.1604L444.247 52.5817ZM436.029 56.2262L421.735 59.3887L422.167 61.3414L436.461 58.179L436.029 56.2262ZM422.927 60.149L416.447 30.8573L414.494 31.2894L420.974 60.5811L422.927 60.149ZM415.686 32.0497L429.981 28.8873L429.549 26.9345L415.254 30.097L415.686 32.0497ZM429.156 54.8843L424.785 52.1643L423.729 53.8623L428.099 56.5824L429.156 54.8843ZM424.473 53.9897L435.565 51.5358L435.133 49.583L424.041 52.0369L424.473 53.9897ZM435.565 51.5358C437.556 51.0952 439.257 50.3415 440.63 49.2453L439.382 47.6824C438.295 48.5508 436.891 49.1941 435.133 49.583L435.565 51.5358ZM440.63 49.2453C441.992 48.1577 442.97 46.8353 443.528 45.2813L441.645 44.6054C441.223 45.7809 440.48 46.8055 439.382 47.6824L440.63 49.2453ZM443.531 45.2722C444.085 43.6827 444.142 41.976 443.745 40.1806L441.792 40.6127C442.121 42.098 442.057 43.4224 441.642 44.6145L443.531 45.2722ZM443.745 40.1806C443.343 38.3631 442.571 36.8347 441.396 35.6477L439.975 37.0545C440.84 37.9288 441.457 39.0975 441.792 40.6127L443.745 40.1806ZM441.396 35.6477C440.235 34.4741 438.791 33.6874 437.097 33.2759L436.625 35.2193C437.991 35.5512 439.096 36.1668 439.975 37.0545L441.396 35.6477ZM437.097 33.2759C435.39 32.8611 433.53 32.8952 431.538 33.3358L431.97 35.2886C433.728 34.8997 435.273 34.8908 436.625 35.2193L437.097 33.2759ZM431.538 33.3358L420.447 35.7898L420.879 37.7425L431.97 35.2886L431.538 33.3358ZM421.5 37.313L424.315 33.0031L422.641 31.9093L419.825 36.2192L421.5 37.313ZM422.502 32.6722L427.651 55.9494L429.604 55.5173L424.454 32.2402L422.502 32.6722ZM459.978 45.766L459.001 45.9821L459.217 46.9584L460.194 46.7424L459.978 45.766ZM458.664 39.8296L458.448 38.8532L457.472 39.0692L457.688 40.0456L458.664 39.8296ZM478.895 35.3538L479.872 35.1378L479.656 34.1614L478.679 34.3774L478.895 35.3538ZM480.209 41.2903L480.425 42.2666L481.401 42.0506L481.185 41.0742L480.209 41.2903ZM469.878 19.0365L470.674 18.4313L470.286 17.9219L469.661 18.0601L469.878 19.0365ZM489.871 45.3386L490.087 46.315L491.613 45.9774L490.667 44.7334L489.871 45.3386ZM482.021 47.0753L481.216 47.668L481.601 48.1923L482.237 48.0517L482.021 47.0753ZM464.624 23.4352L464.408 22.4589L462.908 22.7907L463.818 24.028L464.624 23.4352ZM466.889 22.9341L467.869 23.1305L468.171 21.6263L466.673 21.9577L466.889 22.9341ZM461.126 51.698L461.342 52.6744L461.979 52.5336L462.107 51.8944L461.126 51.698ZM453.276 53.4348L452.299 53.2219L451.966 54.7487L453.492 54.4111L453.276 53.4348ZM460.309 21.1534L460.093 20.177L459.468 20.3153L459.332 20.9405L460.309 21.1534ZM460.954 45.55L459.641 39.6136L457.688 40.0456L459.001 45.9821L460.954 45.55ZM458.88 40.806L479.111 36.3302L478.679 34.3774L458.448 38.8532L458.88 40.806ZM477.919 35.5698L479.232 41.5063L481.185 41.0742L479.872 35.1378L477.919 35.5698ZM479.993 40.3139L459.762 44.7897L460.194 46.7424L480.425 42.2666L479.993 40.3139ZM469.081 19.6416L489.075 45.9437L490.667 44.7334L470.674 18.4313L469.081 19.6416ZM489.655 44.3622L481.805 46.0989L482.237 48.0517L490.087 46.315L489.655 44.3622ZM482.826 46.4826L465.429 22.8425L463.818 24.028L481.216 47.668L482.826 46.4826ZM464.84 24.4116L467.105 23.9105L466.673 21.9577L464.408 22.4589L464.84 24.4116ZM465.908 22.7377L460.146 51.5016L462.107 51.8944L467.869 23.1305L465.908 22.7377ZM460.91 50.7216L453.06 52.4584L453.492 54.4111L461.342 52.6744L460.91 50.7216ZM454.253 53.6476L461.286 21.3663L459.332 20.9405L452.299 53.2219L454.253 53.6476ZM460.525 22.1298L470.094 20.0129L469.661 18.0601L460.093 20.177L460.525 22.1298ZM497.923 43.5573L496.946 43.7733L497.162 44.7497L498.139 44.5337L497.923 43.5573ZM494.786 29.3801L494.57 28.4037L493.594 28.6197L493.81 29.5961L494.786 29.3801ZM502.168 27.747L503.144 27.531L502.928 26.5546L501.952 26.7706L502.168 27.747ZM505.304 41.9242L505.52 42.9006L506.497 42.6846L506.281 41.7082L505.304 41.9242ZM477.695 17.307L477.479 16.3306L475.47 16.7751L477.06 18.0801L477.695 17.307ZM485.857 15.5012L486.491 14.7278L486.116 14.4198L485.641 14.5248L485.857 15.5012ZM499.869 26.9856L500.085 27.962L502.095 27.5173L500.503 26.2122L499.869 26.9856ZM496.471 27.7373L495.57 27.3035L494.677 29.1585L496.687 28.7137L496.471 27.7373ZM504.331 11.4142L504.115 10.4378L503.64 10.5427L503.43 10.9804L504.331 11.4142ZM512.493 9.60832L513.394 10.0424L514.288 8.18708L512.277 8.63193L512.493 9.60832ZM501.713 31.9854L501.944 32.9581L502.407 32.8478L502.613 32.4195L501.713 31.9854ZM496.965 33.1177L496.331 33.8908L496.714 34.2055L497.197 34.0904L496.965 33.1177ZM498.899 43.3413L495.763 29.1641L493.81 29.5961L496.946 43.7733L498.899 43.3413ZM495.002 30.3565L502.384 28.7234L501.952 26.7706L494.57 28.4037L495.002 30.3565ZM501.191 27.963L504.328 42.1402L506.281 41.7082L503.144 27.531L501.191 27.963ZM505.088 40.9478L497.707 42.5809L498.139 44.5337L505.52 42.9006L505.088 40.9478ZM477.911 18.2834L486.073 16.4776L485.641 14.5248L477.479 16.3306L477.911 18.2834ZM485.223 16.2746L499.235 27.759L500.503 26.2122L486.491 14.7278L485.223 16.2746ZM499.653 26.0092L496.255 26.761L496.687 28.7137L500.085 27.962L499.653 26.0092ZM497.372 28.1712L505.232 11.848L503.43 10.9804L495.57 27.3035L497.372 28.1712ZM504.547 12.3906L512.709 10.5847L512.277 8.63193L504.115 10.4378L504.547 12.3906ZM511.592 9.17429L500.812 31.5514L502.613 32.4195L513.394 10.0424L511.592 9.17429ZM501.48 31.0127L496.733 32.145L497.197 34.0904L501.944 32.9581L501.48 31.0127ZM497.599 32.3446L478.329 16.5339L477.06 18.0801L496.331 33.8908L497.599 32.3446Z" fill="#8F8FFF" mask="url(#path-3-outside-2_1_1409)"/>
</svg>
