<svg xmlns="http://www.w3.org/2000/svg" width="526" height="93" fill="none"><mask id="a" width="137.372" height="45.178" x="1.001" y="40.025" fill="#000" maskUnits="userSpaceOnUse"><path fill="#fff" d="M1.001 40.025h137.372v45.178H1.001z"/><path d="M3.497 63.838c-.035-2.326.555-4.382 1.77-6.17 1.212-1.815 2.896-3.267 5.053-4.358 2.18-1.12 4.692-1.8 7.535-2.038 2.711-.228 5.11-.014 7.2.64 2.088.654 3.766 1.677 5.034 3.07 1.268 1.391 1.983 3.057 2.146 4.997a7.974 7.974 0 0 1-.841 4.326c-.69 1.342-1.845 2.724-3.466 4.144-1.62 1.42-3.778 2.967-6.474 4.638l-8.268 5.27-.563-1.919 21.684-1.82.502 5.978-29.177 2.45-.442-5.261 12.215-8.452c1.948-1.341 3.46-2.471 4.532-3.391 1.098-.949 1.856-1.802 2.274-2.56a4.105 4.105 0 0 0 .524-2.371 3.804 3.804 0 0 0-.909-2.212c-.507-.627-1.242-1.087-2.203-1.38-.961-.295-2.146-.383-3.554-.264-1.674.14-3.035.509-4.082 1.105-1.05.57-1.805 1.29-2.268 2.158a6.172 6.172 0 0 0-.729 2.79l-7.493.63Zm51.345 15.718c-3.375.283-6.353-.122-8.933-1.217-2.58-1.094-4.646-2.74-6.195-4.939-1.552-2.224-2.46-4.904-2.723-8.04-.26-3.11.188-5.89 1.347-8.342 1.159-2.452 2.92-4.433 5.281-5.943 2.362-1.51 5.23-2.406 8.605-2.69 3.349-.28 6.313.126 8.894 1.22 2.58 1.095 4.646 2.755 6.198 4.98 1.55 2.197 2.456 4.864 2.719 8 .261 3.109-.188 5.89-1.347 8.342-1.159 2.452-2.919 4.433-5.28 5.943-2.363 1.51-5.218 2.405-8.566 2.686Zm-.516-6.138c2.844-.24 4.98-1.248 6.41-3.027 1.456-1.782 2.058-4.174 1.805-7.177-.252-3.002-1.244-5.26-2.977-6.774-1.706-1.516-3.98-2.155-6.824-1.916-2.844.239-4.993 1.249-6.45 3.03-1.455 1.782-2.057 4.174-1.805 7.177.252 3.002 1.245 5.26 2.977 6.774 1.733 1.514 4.021 2.151 6.864 1.913Zm18.536-15.406c-.035-2.325.555-4.382 1.77-6.17 1.212-1.814 2.897-3.267 5.053-4.358 2.18-1.12 4.692-1.799 7.536-2.037 2.71-.228 5.11-.015 7.198.64 2.09.654 3.767 1.677 5.035 3.069 1.268 1.392 1.983 3.058 2.146 4.998a7.974 7.974 0 0 1-.841 4.325c-.69 1.343-1.845 2.724-3.465 4.145-1.62 1.42-3.779 2.967-6.475 4.638l-8.268 5.27-.563-1.92 21.684-1.82.502 5.979-29.177 2.45-.442-5.261 12.216-8.452c1.948-1.341 3.458-2.472 4.532-3.392 1.097-.948 1.856-1.801 2.273-2.559a4.104 4.104 0 0 0 .524-2.372 3.804 3.804 0 0 0-.908-2.212c-.508-.626-1.242-1.086-2.204-1.38-.961-.294-2.146-.382-3.554-.264-1.674.141-3.035.51-4.082 1.106-1.05.57-1.805 1.289-2.267 2.157a6.172 6.172 0 0 0-.73 2.791l-7.493.63Zm33.282-3.879c-.026-1.897.495-3.667 1.561-5.309 1.066-1.641 2.664-3.007 4.794-4.095 2.154-1.118 4.799-1.808 7.935-2.072 2.737-.23 5.132-.07 7.185.48 2.077.522 3.727 1.36 4.948 2.516 1.218 1.128 1.898 2.53 2.039 4.204.114 1.355-.195 2.625-.925 3.81-.705 1.157-1.894 2.14-3.565 2.95-1.674.782-3.854 1.273-6.54 1.472l-.067-.798c2.54-.347 4.748-.345 6.624.006 1.876.351 3.351 1.03 4.426 2.037 1.074 1.007 1.681 2.334 1.819 3.981.152 1.808-.284 3.463-1.309 4.968-1.026 1.477-2.608 2.72-4.744 3.73-2.112.98-4.736 1.602-7.872 1.865-3.056.257-5.762.056-8.119-.603-2.332-.687-4.201-1.748-5.606-3.182-1.38-1.463-2.212-3.24-2.494-5.33l7.493-.629c.336 1.444 1.174 2.51 2.517 3.2 1.367.662 3.273.89 5.717.684 2.312-.194 4.037-.686 5.175-1.478 1.162-.82 1.689-1.868 1.582-3.143-.062-.744-.313-1.339-.752-1.783-.441-.472-1.151-.8-2.13-.986-.979-.185-2.318-.206-4.019-.063l-5.182.435-.432-5.142 5.182-.435c2.206-.186 3.735-.622 4.587-1.309.85-.713 1.232-1.575 1.147-2.585-.093-1.116-.697-1.935-1.812-2.457-1.087-.524-2.681-.698-4.78-.522-2.179.183-3.848.698-5.008 1.545-1.134.844-1.761 1.98-1.882 3.41l-7.493.628Z"/></mask><path fill="#FFEB1C" d="m3.497 63.838-1 .015.016 1.07 1.067-.089-.083-.996Zm1.77-6.17.827.562.004-.006-.831-.556Zm5.053-4.358.451.892.005-.003-.456-.89Zm14.734-1.398-.298.954.298-.954Zm5.035 3.07-.74.672.74-.673Zm1.305 9.323.89.457.003-.008-.893-.45Zm-3.466 4.144.66.752-.66-.752Zm-6.474 4.638-.527-.85-.01.007.537.843Zm-8.268 5.27-.96.282.375 1.278 1.122-.716-.537-.843Zm-.563-1.919-.083-.996-1.22.102.344 1.175.96-.28Zm21.684-1.82.996-.085-.083-.996-.997.084.084.996Zm.502 5.978.084.997.996-.084-.084-.997-.996.084Zm-29.177 2.45-.997.084.084.997.996-.084-.083-.997Zm-.442-5.261-.57-.822-.475.329.048.577.997-.084Zm12.215-8.452-.567-.824-.002.002.57.822Zm4.532-3.391.651.76.003-.004-.654-.756Zm2.274-2.56-.875-.483.875.484Zm-.385-4.583-.777.63.009.01.009.01.76-.65Zm-2.203-1.38.293-.957-.293.956Zm-7.636.841.477.879.009-.005.009-.005-.495-.869Zm-2.268 2.158.883.47-.883-.47Zm-.729 2.79.084.997.895-.075.021-.898-1-.024Zm-6.493.615c-.032-2.136.507-3.988 1.597-5.593l-1.655-1.124c-1.339 1.971-1.98 4.232-1.942 6.747l2-.03Zm1.601-5.6c1.107-1.656 2.653-3 4.673-4.02l-.903-1.786c-2.293 1.16-4.115 2.723-5.433 4.695l1.663 1.111Zm4.678-4.024c2.047-1.05 4.429-1.7 7.163-1.93l-.167-1.993c-2.953.247-5.595.956-7.91 2.144l.914 1.78Zm7.163-1.93c2.612-.22 4.877-.01 6.817.597l.597-1.908c-2.238-.701-4.772-.918-7.581-.682l.167 1.992Zm6.817.597c1.947.61 3.463 1.547 4.593 2.788l1.48-1.346c-1.406-1.543-3.246-2.652-5.476-3.35l-.598 1.908Zm4.593 2.788c1.114 1.224 1.744 2.68 1.89 4.409l1.992-.168c-.18-2.15-.982-4.026-2.403-5.587l-1.479 1.346Zm1.89 4.409a6.975 6.975 0 0 1-.739 3.793l1.787.898a8.973 8.973 0 0 0 .944-4.859l-1.993.168Zm-.735 3.785c-.613 1.193-1.672 2.48-3.235 3.85l1.319 1.503c1.677-1.47 2.928-2.948 3.695-4.44l-1.779-.913Zm-3.235 3.85c-1.564 1.371-3.673 2.885-6.342 4.54l1.054 1.7c2.723-1.689 4.93-3.267 6.607-4.737l-1.319-1.504Zm-6.353 4.546-8.268 5.27 1.075 1.687 8.268-5.27-1.075-1.687Zm-6.77 5.832-.563-1.92-1.92.563.563 1.92 1.92-.563Zm-1.44-.641 21.685-1.821-.168-1.993-21.683 1.82.167 1.994ZM33.31 74.7l.502 5.979 1.994-.168-.503-5.979-1.993.168Zm1.415 4.899L5.548 82.05l.167 1.993 29.178-2.45-.168-1.993ZM6.628 82.963 6.186 77.7l-1.993.168.442 5.261 1.993-.167Zm-.87-4.356 12.216-8.452-1.138-1.644-12.215 8.452 1.138 1.644Zm12.215-8.45c1.96-1.35 3.503-2.503 4.615-3.456l-1.301-1.519c-1.035.887-2.513 1.995-4.449 3.327l1.134 1.648Zm4.618-3.459c1.136-.98 1.995-1.924 2.496-2.832l-1.751-.967c-.335.608-.992 1.37-2.052 2.286l1.307 1.513Zm2.496-2.832c.509-.922.73-1.91.644-2.94l-1.993.168a3.106 3.106 0 0 1-.402 1.805l1.75.967Zm.644-2.94a4.804 4.804 0 0 0-1.145-2.778l-1.52 1.3c.393.46.618.996.672 1.646l1.993-.167Zm-1.128-2.757c-.66-.815-1.583-1.37-2.688-1.707l-.584 1.912c.818.25 1.364.617 1.718 1.054l1.554-1.259Zm-2.688-1.707c-1.121-.343-2.443-.429-3.93-.304l.167 1.993c1.33-.111 2.378-.021 3.179.223l.585-1.912Zm-3.93-.304c-1.765.149-3.28.543-4.493 1.233l.99 1.738c.881-.502 2.088-.845 3.67-.978l-.167-1.993Zm-4.475 1.224c-1.185.643-2.1 1.49-2.673 2.566l1.765.94c.352-.662.948-1.252 1.862-1.749l-.954-1.758Zm-2.673 2.566a7.172 7.172 0 0 0-.846 3.236l2 .048c.02-.837.223-1.615.611-2.344l-1.765-.94Zm.07 2.264-7.494.63.167 1.992 7.494-.63-.167-1.992Zm35.002 16.127-.39.92.39-.92ZM39.714 73.4l-.82.572.002.005.818-.577Zm-1.376-16.382-.904-.427.904.427Zm5.281-5.943.539.843-.539-.843Zm17.498-1.47-.39.921.39-.92Zm6.199 4.98-.82.572.003.004.817-.577Zm1.372 16.342.904.427-.904-.427Zm-5.28 5.943.538.842-.539-.842Zm-2.672-6.48-.775-.632-.005.006.78.627Zm-1.172-13.95-.664.747.006.006.658-.753Zm-13.273 1.114.774.633-.774-.633Zm1.171 13.951-.658.753.658-.753Zm7.296 7.055c-3.246.272-6.056-.122-8.459-1.141l-.78 1.84c2.758 1.17 5.903 1.588 9.407 1.293l-.168-1.993ZM46.3 77.418c-2.416-1.025-4.33-2.556-5.768-4.595l-1.635 1.153c1.662 2.357 3.878 4.119 6.622 5.283l.781-1.841Zm-5.765-4.59c-1.436-2.06-2.295-4.564-2.546-7.553l-1.993.168c.276 3.282 1.231 6.138 2.899 8.528l1.64-1.144Zm-2.546-7.553c-.249-2.96.181-5.56 1.254-7.83l-1.808-.855c-1.245 2.634-1.713 5.595-1.44 8.853l1.994-.168Zm1.254-7.83c1.076-2.277 2.707-4.116 4.916-5.528l-1.077-1.685c-2.515 1.607-4.405 3.73-5.647 6.358l1.808.854Zm4.916-5.528c2.2-1.406 4.904-2.263 8.15-2.536l-.167-1.993c-3.504.294-6.536 1.23-9.06 2.844l1.077 1.685Zm8.15-2.536c3.218-.27 6.015.125 8.42 1.144l.78-1.84c-2.757-1.17-5.89-1.589-9.367-1.297l.167 1.993Zm8.42 1.144c2.413 1.024 4.327 2.566 5.768 4.63l1.64-1.144c-1.663-2.384-3.88-4.162-6.628-5.327l-.78 1.841Zm5.77 4.635c1.431 2.03 2.29 4.519 2.54 7.508l1.993-.168c-.275-3.282-1.23-6.126-2.898-8.493L66.5 55.161Zm2.54 7.508c.25 2.96-.18 5.56-1.254 7.83l1.808.855c1.245-2.634 1.713-5.595 1.44-8.853l-1.993.168Zm-1.254 7.83c-1.075 2.277-2.706 4.116-4.915 5.528l1.077 1.685c2.515-1.607 4.404-3.73 5.647-6.358l-1.809-.854Zm-4.915 5.528c-2.2 1.406-4.892 2.262-8.11 2.532l.167 1.993c3.478-.292 6.496-1.227 9.02-2.84l-1.077-1.685Zm-8.459-1.613c3.044-.255 5.463-1.354 7.105-3.397l-1.559-1.253c-1.217 1.515-3.07 2.435-5.713 2.657l.167 1.993Zm7.1-3.39c1.666-2.04 2.295-4.715 2.028-7.893l-1.993.167c.237 2.827-.338 4.936-1.584 6.46l1.549 1.265Zm2.028-7.893c-.267-3.179-1.333-5.712-3.316-7.444l-1.316 1.506c1.483 1.295 2.401 3.278 2.639 6.105l1.993-.167Zm-3.31-7.439c-1.96-1.741-4.528-2.42-7.572-2.164l.167 1.993c2.644-.222 4.624.376 6.077 1.666l1.328-1.495Zm-7.572-2.164c-3.044.255-5.473 1.354-7.14 3.394l1.549 1.265c1.245-1.523 3.116-2.444 5.758-2.666l-.167-1.993Zm-7.14 3.394c-1.666 2.038-2.294 4.714-2.028 7.892l1.993-.167c-.237-2.827.338-4.936 1.584-6.46l-1.549-1.265Zm-2.028 7.892c.267 3.179 1.334 5.712 3.316 7.444l1.316-1.506c-1.482-1.295-2.401-3.278-2.639-6.105l-1.993.167Zm3.316 7.444c1.984 1.733 4.562 2.412 7.606 2.156l-.167-1.993c-2.643.222-4.64-.374-6.123-1.669l-1.316 1.506Zm26.058-14.246-1 .015.016 1.072 1.068-.09-.084-.997Zm1.77-6.17.827.563.004-.007-.831-.555Zm5.053-4.358.451.893.006-.003-.457-.89Zm14.734-1.398-.298.955.299-.954Zm5.035 3.07-.74.673.74-.673Zm1.305 9.323.889.458.004-.009-.893-.449Zm-3.465 4.145.659.752-.66-.752Zm-6.475 4.638-.527-.85-.01.007.537.843Zm-8.268 5.27-.96.282.375 1.277 1.123-.715-.538-.844Zm-.563-1.92-.083-.996-1.22.103.344 1.175.96-.281Zm21.684-1.82.997-.084-.084-.996-.997.083.084.997Zm.502 5.979.084.996.996-.084-.083-.996-.997.084Zm-29.177 2.45-.997.084.084.996.997-.083-.084-.997Zm-.442-5.261-.569-.823-.476.33.049.576.996-.083Zm12.216-8.452-.567-.824-.002.001.569.823Zm4.532-3.392.65.76.004-.003-.654-.756Zm2.273-2.559-.875-.483.876.483Zm-.384-4.584-.777.63.008.01.009.01.76-.65Zm-2.204-1.38.293-.956-.293.956Zm-7.636.842.477.879.01-.005.008-.005-.495-.87Zm-2.267 2.157.882.47-.882-.47Zm-.73 2.791.084.996.895-.075.021-.897-1-.024Zm-6.493.614c-.032-2.136.507-3.988 1.597-5.593l-1.654-1.123c-1.34 1.97-1.98 4.232-1.943 6.746l2-.03Zm1.601-5.599c1.107-1.656 2.654-3 4.673-4.021l-.903-1.785c-2.293 1.16-4.115 2.723-5.433 4.695l1.663 1.111Zm4.679-4.024c2.047-1.051 4.428-1.701 7.162-1.93l-.167-1.994c-2.952.248-5.595.956-7.909 2.145l.914 1.779Zm7.162-1.93c2.612-.22 4.877-.01 6.817.597l.597-1.909c-2.238-.7-4.772-.918-7.58-.682l.166 1.993Zm6.817.597c1.947.61 3.464 1.547 4.594 2.788l1.478-1.346c-1.405-1.544-3.245-2.652-5.475-3.35l-.597 1.908Zm4.594 2.788c1.114 1.224 1.743 2.68 1.888 4.408l1.993-.167c-.18-2.151-.981-4.026-2.403-5.587l-1.478 1.346Zm1.888 4.408a6.972 6.972 0 0 1-.738 3.794l1.787.897a8.97 8.97 0 0 0 .944-4.858l-1.993.167Zm-.733 3.785c-.614 1.194-1.673 2.48-3.236 3.85l1.319 1.504c1.677-1.471 2.929-2.948 3.695-4.44l-1.778-.914Zm-3.236 3.85c-1.564 1.372-3.673 2.885-6.342 4.54l1.054 1.7c2.723-1.688 4.931-3.267 6.607-4.736l-1.319-1.504Zm-6.353 4.547-8.268 5.27 1.076 1.687 8.267-5.27-1.075-1.687Zm-6.77 5.832-.563-1.92-1.92.563.563 1.92 1.92-.563Zm-1.439-.642 21.684-1.82-.168-1.994-21.683 1.821.167 1.993Zm20.604-2.733.502 5.978 1.993-.167-.502-5.979-1.993.168Zm1.415 4.898-29.178 2.45.168 1.994 29.177-2.45-.167-1.994Zm-28.098 3.363-.441-5.261-1.993.167.441 5.262 1.993-.168Zm-.869-4.355L87.34 64.33l-1.138-1.645-12.216 8.452 1.138 1.645Zm12.214-8.45c1.96-1.35 3.503-2.503 4.615-3.456l-1.3-1.519c-1.036.887-2.514 1.995-4.45 3.327l1.135 1.647Zm4.619-3.459c1.135-.98 1.994-1.925 2.495-2.833l-1.751-.966c-.335.607-.992 1.37-2.052 2.286l1.308 1.513Zm2.495-2.833c.509-.922.73-1.909.644-2.939l-1.993.168a3.107 3.107 0 0 1-.402 1.805l1.751.966Zm.644-2.939a4.803 4.803 0 0 0-1.145-2.778l-1.52 1.3c.393.459.618.996.672 1.646l1.993-.168Zm-1.127-2.757c-.661-.816-1.584-1.37-2.688-1.707l-.585 1.912c.818.25 1.364.617 1.719 1.054l1.553-1.26Zm-2.688-1.707c-1.122-.343-2.443-.429-3.93-.304l.166 1.993c1.33-.112 2.378-.022 3.179.223l.585-1.912Zm-3.93-.304c-1.766.148-3.281.542-4.494 1.233l.99 1.738c.881-.502 2.088-.845 3.67-.978l-.167-1.993Zm-4.476 1.223c-1.185.643-2.1 1.49-2.673 2.566l1.765.94c.352-.661.948-1.252 1.862-1.748l-.954-1.758Zm-2.673 2.566a7.173 7.173 0 0 0-.846 3.237l2 .048c.02-.838.223-1.615.611-2.345l-1.765-.94Zm.07 2.264-7.494.63.168 1.993 7.493-.63-.167-1.992Zm25.872-2.253-1 .014.014 1.073 1.069-.09-.083-.997Zm1.561-5.309-.839-.544.839.544Zm4.794-4.095.455.89.006-.003-.461-.887Zm15.12-1.591-.259.966.008.002.008.002.243-.97Zm4.948 2.515-.688.726.008.007.68-.733Zm1.114 8.014-.851-.524-.002.004.853.52Zm-3.565 2.95.423.905.012-.006-.435-.9Zm-6.54 1.472-.997.083.083.987.988-.073-.074-.997Zm-.067-.798-.135-.99-.941.128.079.946.997-.084Zm11.56 10.992.822.57.005-.008-.827-.563Zm-4.744 3.73.421.907.006-.003-.427-.904Zm-15.991 1.262-.282.96.013.003.269-.963Zm-5.606-3.182-.727.687.007.006.006.007.714-.7Zm-2.494-5.33-.084-.996-1.048.088.141 1.042.991-.134Zm7.493-.629.974-.226-.195-.843-.862.073.083.996Zm2.517 3.2-.457.89.011.005.01.006.436-.9Zm10.892-.794.571.821.005-.004-.576-.817Zm.83-4.927-.73.684.009.01.009.009.712-.703Zm-2.13-.985-.186.983.186-.983Zm-9.201.372-.996.083.083.997.997-.084-.084-.996Zm-.432-5.142-.083-.997-.997.084.084.996.996-.083Zm9.769-1.744.627.779.008-.007.008-.006-.643-.766Zm-.665-5.042-.434.901.01.005.424-.906Zm-9.788 1.023-.59-.808-.008.006.598.802Zm-1.882 3.41.084.996.842-.071.071-.841-.997-.085Zm-6.493.615c-.023-1.693.437-3.27 1.4-4.751l-1.678-1.09c-1.17 1.803-1.75 3.766-1.722 5.868l2-.027Zm1.4-4.751c.952-1.466 2.402-2.723 4.41-3.75l-.91-1.78c-2.251 1.15-3.997 2.623-5.178 4.44l1.678 1.09Zm4.416-3.753c2.007-1.041 4.516-1.707 7.557-1.962l-.167-1.993c-3.23.271-6.011.987-8.312 2.18l.922 1.775Zm7.557-1.962c2.654-.223 4.929-.063 6.843.45l.518-1.932c-2.192-.587-4.708-.748-7.528-.511l.167 1.993Zm6.859.454c1.955.49 3.437 1.262 4.503 2.27l1.375-1.452c-1.375-1.301-3.192-2.206-5.392-2.758l-.486 1.94Zm4.511 2.278c1.034.957 1.602 2.126 1.722 3.554l1.993-.167c-.161-1.92-.952-3.554-2.356-4.854l-1.359 1.467Zm1.722 3.554c.096 1.137-.158 2.195-.779 3.203l1.703 1.049c.839-1.363 1.201-2.846 1.069-4.419l-1.993.167Zm-.781 3.207c-.575.942-1.588 1.813-3.148 2.57l.871 1.8c1.783-.864 3.148-1.958 3.984-3.329l-1.707-1.041Zm-3.136 2.563c-1.526.714-3.574 1.188-6.19 1.381l.148 1.995c2.756-.204 5.067-.712 6.889-1.564l-.847-1.812Zm-5.12 2.295-.067-.797-1.993.167.067.797 1.993-.167Zm-.928.277c2.468-.337 4.563-.328 6.305-.002l.368-1.966c-2.011-.376-4.331-.37-6.943-.013l.27 1.981Zm6.305-.002c1.743.326 3.026.94 3.926 1.784l1.367-1.46c-1.249-1.17-2.917-1.914-4.925-2.29l-.368 1.966Zm3.926 1.784c.872.816 1.386 1.902 1.507 3.335l1.993-.167c-.157-1.862-.855-3.43-2.133-4.628l-1.367 1.46Zm1.507 3.335c.132 1.578-.244 3.005-1.139 4.32l1.653 1.126c1.153-1.693 1.65-3.577 1.479-5.613l-1.993.167Zm-1.134 4.313c-.9 1.296-2.324 2.44-4.35 3.396l.854 1.809c2.246-1.061 3.986-2.404 5.139-4.064l-1.643-1.141Zm-4.344 3.394c-1.976.916-4.477 1.519-7.534 1.775l.167 1.993c3.214-.27 5.96-.91 8.209-1.954l-.842-1.814Zm-7.534 1.775c-2.966.25-5.549.05-7.767-.569l-.538 1.926c2.497.698 5.326.9 8.472.636l-.167-1.993Zm-7.753-.565c-2.203-.65-3.911-1.634-5.174-2.923l-1.429 1.4c1.547 1.58 3.576 2.716 6.038 3.441l.565-1.918Zm-5.161-2.91c-1.23-1.302-1.975-2.883-2.231-4.777l-1.982.268c.309 2.287 1.227 4.26 2.758 5.883l1.455-1.373Zm-3.139-3.646 7.494-.63-.167-1.992-7.494.629.167 1.993Zm6.436-1.4c.403 1.736 1.436 3.042 3.034 3.864l.914-1.779c-1.087-.558-1.732-1.386-2-2.537l-1.948.452Zm3.055 3.875c1.599.773 3.713.992 6.237.78l-.167-1.993c-2.366.199-4.064-.038-5.199-.588l-.871 1.8Zm6.237.78c2.382-.2 4.313-.716 5.662-1.654l-1.142-1.642c-.927.645-2.446 1.115-4.687 1.303l.167 1.993Zm5.667-1.658c1.413-.997 2.143-2.37 2.003-4.044l-1.993.167c.073.878-.252 1.6-1.163 2.243l1.153 1.634Zm2.003-4.044c-.078-.93-.403-1.76-1.037-2.402l-1.424 1.405c.244.247.421.606.468 1.164l1.993-.167Zm-1.018-2.383c-.646-.69-1.593-1.08-2.675-1.284l-.372 1.965c.877.166 1.35.433 1.586.686l1.461-1.367Zm-2.675-1.284c-1.108-.21-2.552-.224-4.289-.078l.168 1.993c1.664-.14 2.9-.11 3.749.05l.372-1.965Zm-4.289-.078-5.182.435.168 1.993 5.182-.435-.168-1.993Zm-4.101 1.348-.432-5.142-1.993.167.432 5.142 1.993-.167Zm-1.345-4.062 5.182-.435-.168-1.993-5.181.435.167 1.993Zm5.182-.435c2.237-.188 4.03-.639 5.13-1.526l-1.255-1.557c-.604.486-1.869.907-4.043 1.09l.168 1.993Zm5.146-1.539c1.071-.9 1.616-2.067 1.501-3.435l-1.993.168c.055.651-.166 1.207-.794 1.735l1.286 1.532Zm1.501-3.435c-.127-1.513-.985-2.623-2.384-3.279l-.849 1.812c.829.388 1.18.916 1.24 1.635l1.993-.168Zm-2.374-3.274c-1.329-.64-3.137-.799-5.299-.617l.168 1.993c2.036-.171 3.415.018 4.262.426l.869-1.802Zm-5.299-.617c-2.273.19-4.148.736-5.514 1.733l1.179 1.616c.954-.697 2.418-1.181 4.503-1.356l-.168-1.993Zm-5.522 1.739c-1.366 1.018-2.135 2.418-2.28 4.127l1.993.169c.097-1.148.582-2.022 1.482-2.692l-1.195-1.604Zm-1.367 3.215-7.494.629.167 1.993 7.494-.63-.167-1.992Z" mask="url(#a)"/><mask id="b" width="365.568" height="64.342" x="160.439" y="7.471" fill="#000" maskUnits="userSpaceOnUse"><path fill="#fff" d="M160.439 7.471h365.568v64.342H160.439z"/><path d="m184.526 53.25.514-1.527c2.343-.144 4.286.054 5.83.594 1.57.537 2.763 1.36 3.579 2.469.84 1.08 1.324 2.377 1.451 3.892.134 1.595-.118 3.06-.755 4.399-.639 1.311-1.672 2.388-3.1 3.23-1.401.84-3.205 1.353-5.41 1.539l-21.525 1.807 1.023-15.54-3.533-14.355 20.767-1.744c2.763-.232 4.957.24 6.581 1.415 1.648 1.146 2.567 2.848 2.757 5.107a7.809 7.809 0 0 1-.575 3.66c-.489 1.193-1.338 2.24-2.546 3.145-1.211.878-2.897 1.514-5.058 1.91ZM172.37 67.198l-3.168-3.306 15.187-1.276c1.302-.11 2.286-.5 2.952-1.17.691-.701.988-1.623.892-2.765-.096-1.143-.584-2.012-1.463-2.607-.855-.624-2.08-.869-3.675-.735l-12.436 1.044-.442-5.261 11.48-.964c1.089-.092 1.967-.473 2.633-1.145.664-.698.951-1.591.859-2.68-.074-.878-.439-1.57-1.097-2.076-.661-.534-1.576-.751-2.745-.653l-13.711 1.152 2.532-3.786 3.18 12.538-.978 13.69Zm33.518-31.074 2.23 26.547-3.666-3.024 22.401-1.881.559 6.656-26.547 2.23-2.51-29.895 7.533-.633Zm30.02 21.523-.509-6.058 20.648-1.734.509 6.058-20.648 1.734Zm13.381-25.168 16.302 28.737-8.012.673-14.084-25.752 2.312-.194-9.553 27.737-8.012.672 11.281-31.053 9.766-.82Zm49.361 13.517c-.076 2.602-.775 4.949-2.098 7.04-1.326 2.065-3.165 3.745-5.518 5.04-2.353 1.294-5.098 2.073-8.233 2.337-3.428.288-6.499-.11-9.212-1.193-2.687-1.086-4.847-2.738-6.478-4.956-1.631-2.218-2.577-4.881-2.838-7.99-.262-3.11.227-5.893 1.466-8.352 1.238-2.46 3.092-4.448 5.56-5.966 2.495-1.521 5.456-2.426 8.884-2.713 3.136-.264 5.972.047 8.508.93 2.536.885 4.63 2.235 6.281 4.05 1.651 1.814 2.732 4.011 3.243 6.591l-7.574.636c-.379-1.333-1.021-2.443-1.925-3.33-.878-.89-2.002-1.532-3.373-1.925-1.347-.422-2.884-.56-4.611-.416-1.993.168-3.676.684-5.048 1.548-1.375.838-2.391 1.967-3.047 3.387-.657 1.42-.908 3.06-.751 4.92.156 1.86.676 3.436 1.561 4.726.884 1.29 2.075 2.248 3.572 2.871 1.496.597 3.24.812 5.233.645 1.727-.145 3.22-.525 4.48-1.14 1.286-.616 2.288-1.436 3.005-2.46.743-1.025 1.19-2.24 1.339-3.644l7.574-.636Zm5.251 12.003-2.51-29.895 7.493-.63 2.005 23.876-2.163-1.383 15.823-23.808 7.972-.67-21.844 31.94-6.776.57Zm13.095-15.671 5.029-5.12L335.43 55.35l-8.53.716-9.904-13.74Zm32.742-5.76 21.643-1.818.539 6.417-21.644 1.818-.538-6.418Zm21.316-14.315.539 6.418-22.202 1.864 3.396-4.018L355.07 53.7l-7.533.633-2.511-29.895 26.028-2.186ZM381.753 34.6l11.201-.94c1.408-.118 2.497-.531 3.268-1.238.768-.734 1.102-1.685 1.004-2.854-.098-1.17-.586-2.038-1.463-2.607-.88-.595-2.024-.833-3.432-.715l-12.277 1.03 3.077-3.99 2.34 27.861-7.534.633-2.51-29.895 17.419-1.463c2.232-.187 4.218.047 5.959.704 1.741.657 3.136 1.65 4.184 2.98 1.049 1.33 1.652 2.94 1.811 4.826.156 1.86-.172 3.533-.984 5.02-.812 1.486-2.021 2.698-3.628 3.636-1.61.911-3.53 1.46-5.763 1.648l-12.197 1.024-.475-5.66Zm5.054 2.346 8.49-.713L407.473 49.3l-8.729.733-11.937-13.087Zm22.096-17.872 7.533-.633 2.511 29.895-7.534.633-2.51-29.895Zm27.94-2.347c3.507-.294 6.629.073 9.365 1.1 2.735 1.029 4.928 2.597 6.577 4.707 1.675 2.107 2.639 4.662 2.891 7.665.25 2.976-.274 5.656-1.572 8.04-1.275 2.354-3.174 4.267-5.7 5.736-2.526 1.47-5.543 2.353-9.051 2.647l-14.588 1.225-2.511-29.894 14.589-1.226Zm-4.842 27.422-3.969-3.28 11.32-.95c1.914-.16 3.545-.646 4.896-1.455 1.35-.81 2.359-1.857 3.027-3.144.666-1.314.929-2.808.788-4.482-.143-1.7-.651-3.13-1.524-4.288-.873-1.157-2.043-2.022-3.51-2.595-1.466-.573-3.156-.778-5.069-.618l-11.32.95 3.366-3.895 1.995 23.757Zm32.4-5.692-.509-6.058 20.647-1.734.509 6.059-20.647 1.733Zm13.381-25.168 16.302 28.737-8.012.673-14.085-25.752 2.312-.194-9.552 27.737-8.012.672 11.281-31.052 9.766-.82Zm24.519 28.047-1.215-14.47 7.533-.632 1.215 14.47-7.533.632ZM485.76 12.619l8.33-.7 12.353 13.253-3.468.292 9.969-15.128 8.331-.7-13.673 20.738-4.856.488-16.986-18.243Z"/></mask><path fill="#FFEB1C" d="m184.526 53.25-.948-.318-.541 1.608 1.669-.305-.18-.984Zm.514-1.527-.061-.999-.673.042-.214.638.948.319Zm5.83.594-.33.944.006.002.324-.946Zm3.579 2.469-.805.592.007.011.009.01.789-.613Zm.696 8.29.899.439.004-.008-.903-.43Zm-3.1 3.232-.508-.862-.006.004.514.858Zm-26.935 3.345-.997-.065-.077 1.159 1.158-.097-.084-.997Zm1.023-15.54.998.066.01-.155-.037-.15-.971.24ZM162.6 39.758l-.084-.996-1.167.098.28 1.138.971-.24Zm27.348-.33-.586.81.008.006.007.006.571-.821Zm2.182 8.769-.926-.38.926.38Zm-2.546 3.144.587.81.006-.005.006-.004-.599-.801ZM172.37 67.197l-.722.692 1.559 1.627.161-2.248-.998-.07Zm-3.168-3.306-.083-.997-2.088.175 1.449 1.513.722-.691Zm18.139-2.447.71.704.002-.002-.712-.702Zm-.571-5.37-.59.807.015.01.014.01.561-.828Zm-16.111.308-.996.084.083.997.997-.084-.084-.997Zm-.442-5.261-.083-.997-.997.084.084.997.996-.084Zm14.113-2.109.71.705.008-.008.007-.007-.725-.69Zm-.238-4.756-.629.778.009.007.009.007.611-.792Zm-16.456.499-.832-.556-1.154 1.726 2.069-.174-.083-.996Zm2.532-3.786.969-.245-.552-2.177-1.249 1.866.832.556Zm3.18 12.538.998.072.011-.161-.04-.157-.969.246Zm12.126.063.514-1.529-1.896-.637-.514 1.528 1.896.638Zm-.373-.85c2.263-.138 4.063.06 5.439.54l.66-1.887c-1.712-.598-3.799-.797-6.221-.649l.122 1.997Zm5.445.543c1.418.485 2.426 1.202 3.098 2.115l1.611-1.185c-.96-1.304-2.338-2.233-4.062-2.822l-.647 1.892Zm3.114 2.137c.708.91 1.131 2.018 1.243 3.362l1.993-.168c-.141-1.685-.686-3.172-1.658-4.422L193.66 55.4Zm1.243 3.362c.121 1.432-.106 2.72-.661 3.885l1.806.86c.719-1.511.996-3.156.848-4.913l-1.993.168Zm-.657 3.877c-.541 1.111-1.427 2.05-2.709 2.807l1.016 1.723c1.573-.928 2.755-2.143 3.491-3.654l-1.798-.876Zm-2.715 2.81c-1.233.74-2.876 1.223-4.98 1.4l.167 1.993c2.307-.194 4.271-.735 5.841-1.677l-1.028-1.715Zm-4.98 1.4-21.524 1.808.167 1.993 21.524-1.808-.167-1.993Zm-20.443 2.87 1.023-15.54-1.995-.132-1.023 15.54 1.995.132Zm.996-15.845-3.533-14.355-1.942.479 3.533 14.354 1.942-.478Zm-4.421-13.119 20.767-1.744-.167-1.993-20.767 1.744.167 1.993Zm20.767-1.744c2.617-.22 4.545.239 5.912 1.228l1.172-1.62c-1.881-1.361-4.34-1.845-7.251-1.601l.167 1.993Zm5.927 1.239c1.371.953 2.163 2.365 2.332 4.37l1.993-.168c-.211-2.512-1.257-4.505-3.183-5.844l-1.142 1.642Zm2.332 4.37a6.798 6.798 0 0 1-.505 3.198l1.851.758a8.81 8.81 0 0 0 .647-4.124l-1.993.168Zm-.505 3.198c-.409.997-1.13 1.907-2.219 2.722l1.198 1.602c1.328-.994 2.303-2.18 2.872-3.566l-1.851-.758Zm-2.207 2.713c-1.047.76-2.574 1.356-4.651 1.736l.36 1.968c2.244-.411 4.09-1.088 5.465-2.084l-1.174-1.62Zm-15.905 15.974-3.167-3.306-1.445 1.383 3.168 3.307 1.444-1.384Zm-3.806-1.618 15.187-1.275-.168-1.993-15.186 1.275.167 1.993Zm15.187-1.275c1.449-.122 2.69-.569 3.578-1.464l-1.42-1.408c-.444.448-1.17.782-2.326.879l.168 1.993Zm3.58-1.466c.931-.943 1.293-2.17 1.177-3.55l-1.993.167c.076.906-.157 1.522-.608 1.979l1.424 1.404Zm1.177-3.55c-.119-1.416-.748-2.572-1.9-3.351l-1.121 1.656c.608.411.955.994 1.028 1.862l1.993-.167Zm-1.871-3.33c-1.128-.824-2.631-1.069-4.347-.924l.167 1.992c1.473-.123 2.419.122 3.001.547l1.179-1.616Zm-4.347-.924-12.436 1.044.167 1.993 12.436-1.044-.167-1.993Zm-11.356 1.957-.442-5.262-1.993.168.442 5.261 1.993-.167Zm-1.355-4.182 11.48-.964-.168-1.993-11.479.964.167 1.993Zm11.48-.964c1.287-.108 2.4-.57 3.259-1.436l-1.419-1.409c-.474.477-1.116.778-2.008.852l.168 1.993Zm3.274-1.451c.888-.934 1.242-2.123 1.131-3.454l-1.993.167c.071.847-.148 1.446-.587 1.908l1.449 1.379Zm1.131-3.454c-.096-1.139-.589-2.095-1.484-2.785l-1.221 1.585c.421.324.66.751.712 1.367l1.993-.167Zm-1.466-2.77c-.927-.749-2.13-.983-3.456-.871l.167 1.993c1.012-.085 1.638.116 2.032.434l1.257-1.556Zm-3.456-.871-13.712 1.151.167 1.993 13.712-1.151-.167-1.993Zm-12.797 2.704 2.532-3.785-1.663-1.113-2.532 3.786 1.663 1.112Zm.731-4.096 3.181 12.538 1.938-.492-3.18-12.537-1.939.491Zm3.153 12.221-.978 13.69 1.995.142.978-13.69-1.995-.142Zm33.537-17.313.997-.084-.084-.996-.996.084.083.996Zm2.23 26.547-.637.771 1.832 1.51-.199-2.365-.996.084Zm-3.666-3.024-.084-.997-2.447.206 1.894 1.562.637-.771Zm22.401-1.881.996-.084-.083-.997-.997.084.084.997Zm.559 6.656.084.997.996-.084-.084-.996-.996.083Zm-26.547 2.23-.996.083.084.997.996-.084-.084-.996Zm-2.51-29.895-.084-.997-.996.084.083.996.997-.083Zm6.537-.55 2.229 26.547 1.993-.167-2.229-26.547-1.993.168Zm3.862 25.692-3.666-3.024-1.273 1.543 3.666 3.024 1.273-1.543Zm-4.219-1.256 22.402-1.88-.168-1.994-22.401 1.881.167 1.993Zm21.321-2.794.559 6.657 1.993-.167-.559-6.657-1.993.167Zm1.472 5.577-26.546 2.23.167 1.992 26.547-2.23-.168-1.992Zm-25.466 3.142-2.511-29.895-1.993.168 2.511 29.894 1.993-.167Zm-3.423-28.815 7.533-.632-.167-1.993-7.534.632.168 1.993Zm37.469 19.894-.996.084.083.997.997-.084-.084-.997Zm-.509-6.058-.083-.997-.997.084.084.996.996-.083Zm20.648-1.734.996-.084-.083-.997-.997.084.084.997Zm.509 6.058.083.997.997-.084-.084-.996-.996.083Zm-7.267-23.434.87-.493-.316-.557-.638.054.084.996Zm16.302 28.737.084.996 1.557-.13-.771-1.36-.87.494Zm-8.012.673-.877.48.312.57.649-.054-.084-.996Zm-14.084-25.752-.084-.997-1.531.13.737 1.347.878-.48Zm2.312-.194.945.325.5-1.45-1.529.128.084.997Zm-9.553 27.737.084.996.65-.054.212-.617-.946-.325Zm-8.012.672-.939-.341-.534 1.469 1.557-.131-.084-.997Zm11.281-31.053-.083-.996-.638.053-.219.602.94.341Zm-2.618 24.265-.509-6.059-1.993.167.509 6.06 1.993-.168Zm-1.422-4.979 20.647-1.734-.167-1.993-20.647 1.734.167 1.993Zm19.567-2.647.509 6.06 1.993-.168-.509-6.059-1.993.167Zm1.422 4.979-20.647 1.734.167 1.993 20.647-1.734-.167-1.993Zm-8.053-21.944 16.302 28.736 1.74-.987-16.302-28.736-1.74.987Zm17.088 27.246-8.011.673.167 1.993 8.012-.673-.168-1.993Zm-7.05 1.19-14.085-25.752-1.755.96 14.085 25.752 1.755-.96Zm-14.879-24.276 2.312-.194-.167-1.993-2.312.194.167 1.993Zm1.283-1.516-9.552 27.737 1.891.651 9.552-27.737-1.891-.65Zm-8.69 27.066-8.012.673.167 1.993 8.012-.673-.167-1.993Zm-6.989 2.01 11.281-31.052-1.88-.683-11.28 31.053 1.879.683Zm10.425-30.397 9.766-.82-.168-1.993-9.765.82.167 1.993Zm59.043 11.7.999.029.033-1.12-1.116.094.084.997Zm-2.098 7.04.841.54.004-.005-.845-.535Zm-5.518 5.04-.482-.877.482.877Zm-17.445 1.144-.375.927.004.001.371-.928Zm-6.478-4.956-.805.593.805-.593Zm-1.372-16.342-.893-.45.893.45Zm5.56-5.966-.521-.854-.003.002.524.851Zm23.673 2.266-.74.673.74-.673Zm3.243 6.592.083.997 1.115-.094-.217-1.097-.981.194Zm-7.574.636-.961.274.225.791.82-.068-.084-.997Zm-1.925-3.33-.712.702.006.006.005.005.701-.713Zm-3.373-1.925-.299.954.012.004.011.003.276-.96Zm-9.659 1.132.52.854.007-.004.006-.003-.533-.847Zm-3.047 3.387.907.42-.907-.42Zm.81 9.646-.825.566.825-.566Zm3.572 2.871-.384.924.007.002.007.003.37-.928Zm9.713-.494-.432-.902-.006.003.438.899Zm3.005-2.46-.81-.587-.005.007-.004.006.819.574Zm1.34-3.645-.084-.997-.823.07-.088.82.995.107Zm6.573-.665c-.071 2.432-.721 4.603-1.943 6.535l1.69 1.069c1.424-2.251 2.172-4.774 2.252-7.546l-1.999-.058Zm-1.94 6.53c-1.227 1.91-2.937 3.48-5.158 4.703l.964 1.752c2.485-1.368 4.454-3.158 5.877-5.376l-1.683-1.08Zm-5.158 4.703c-2.211 1.216-4.815 1.963-7.835 2.216l.167 1.993c3.252-.273 6.137-1.084 8.632-2.457l-.964-1.752Zm-7.835 2.216c-3.3.278-6.212-.109-8.758-1.125l-.741 1.857c2.881 1.15 6.111 1.56 9.666 1.261l-.167-1.993Zm-8.754-1.124c-2.524-1.02-4.531-2.56-6.046-4.62l-1.611 1.185c1.747 2.375 4.059 4.139 6.908 5.29l.749-1.855Zm-6.046-4.62c-1.508-2.05-2.4-4.532-2.648-7.482l-1.993.167c.274 3.268 1.275 6.114 3.03 8.5l1.611-1.185Zm-2.648-7.482c-.248-2.95.218-5.545 1.363-7.818l-1.786-.9c-1.333 2.645-1.844 5.618-1.57 8.886l1.993-.168Zm1.363-7.818c1.151-2.285 2.872-4.138 5.191-5.565l-1.048-1.703c-2.618 1.61-4.603 3.734-5.929 6.368l1.786.9Zm5.187-5.563c2.341-1.426 5.147-2.293 8.448-2.57l-.168-1.993c-3.555.299-6.672 1.24-9.321 2.856l1.041 1.707Zm8.448-2.57c3.019-.253 5.712.048 8.095.88l.658-1.89c-2.689-.937-5.669-1.256-8.921-.983l.168 1.993Zm8.095.88c2.394.834 4.341 2.096 5.87 3.776l1.479-1.346c-1.773-1.949-4.013-3.386-6.691-4.32l-.658 1.89Zm5.87 3.776c1.52 1.67 2.523 3.699 3.002 6.114l1.962-.39c-.544-2.744-1.702-5.11-3.485-7.07l-1.479 1.346Zm3.899 4.923-7.573.636.167 1.993 7.573-.636-.167-1.993Zm-6.528 1.358c-.422-1.483-1.147-2.75-2.187-3.77l-1.401 1.427c.769.755 1.328 1.709 1.665 2.891l1.923-.548Zm-2.175-3.759c-1.015-1.028-2.297-1.75-3.809-2.183l-.552 1.922c1.23.353 2.196.915 2.937 1.666l1.424-1.405Zm-3.786-2.176c-1.495-.469-3.166-.611-4.994-.458l.168 1.993c1.626-.137 3.03-.002 4.228.373l.598-1.908Zm-4.994-.458c-2.116.178-3.961.73-5.497 1.698l1.066 1.693c1.209-.762 2.729-1.24 4.599-1.398l-.168-1.993Zm-5.485 1.69c-1.538.938-2.691 2.216-3.434 3.822l1.815.84c.571-1.236 1.45-2.216 2.66-2.954l-1.041-1.707Zm-3.434 3.822c-.742 1.605-1.008 3.424-.84 5.423l1.993-.167c-.144-1.721.091-3.182.662-4.417l-1.815-.84Zm-.84 5.423c.168 2 .733 3.749 1.733 5.208l1.65-1.13c-.77-1.123-1.245-2.524-1.39-4.245l-1.993.167Zm1.733 5.208c.998 1.456 2.344 2.534 4.013 3.229l.769-1.847c-1.326-.552-2.361-1.388-3.132-2.513l-1.65 1.13Zm4.027 3.234c1.67.667 3.575.89 5.686.712l-.167-1.993c-1.875.158-3.457-.05-4.778-.576l-.741 1.857Zm5.686.712c1.823-.153 3.442-.557 4.835-1.236l-.876-1.798c-1.126.549-2.494.904-4.126 1.041l.167 1.993Zm4.829-1.233c1.419-.68 2.563-1.605 3.392-2.788l-1.638-1.148c-.605.864-1.465 1.58-2.618 2.132l.864 1.804Zm3.383-2.775c.857-1.183 1.358-2.569 1.524-4.126l-1.989-.212c-.133 1.25-.525 2.295-1.155 3.164l1.62 1.174Zm.613-3.236 7.574-.636-.168-1.993-7.573.636.167 1.993Zm12.741 10.37-.996.084.083.997.997-.084-.084-.996Zm-2.51-29.894-.084-.997-.997.084.084.996.997-.083Zm7.493-.63.997-.083-.084-.997-.996.084.083.997Zm2.005 23.876-.539.843 1.705 1.09-.169-2.016-.997.083Zm-2.163-1.383-.833-.554-.563.848.857.548.539-.842Zm15.823-23.808-.084-.997-.481.04-.268.403.833.554Zm7.972-.67.825.565 1.188-1.737-2.097.176.084.996Zm-21.844 31.94.084.997.473-.04.269-.392-.826-.565Zm6.319-15.101-.714-.701-.591.602.493.683.812-.584Zm5.029-5.12.804-.593-.696-.943-.821.836.713.7ZM335.43 55.35l.084.996 1.785-.15-1.065-1.44-.804.594Zm-8.53.716-.811.585.331.459.564-.047-.084-.997Zm-22.002 1.848-2.511-29.895-1.993.168 2.511 29.894 1.993-.167Zm-3.424-28.815 7.494-.629-.167-1.993-7.494.63.167 1.992Zm6.414-1.542 2.005 23.876 1.993-.167-2.005-23.876-1.993.167Zm3.54 22.95-2.163-1.384-1.078 1.685 2.163 1.384 1.078-1.685Zm-1.869.012 15.823-23.808-1.666-1.107-15.823 23.808 1.666 1.107Zm15.074-23.365 7.972-.67-.168-1.992-7.972.67.168 1.992Zm7.063-2.23-21.844 31.94 1.651 1.129 21.843-31.94-1.65-1.13Zm-21.102 31.508-6.777.57.168 1.992 6.776-.569-.167-1.993Zm7.115-13.404 5.029-5.12-1.426-1.4-5.03 5.118 1.427 1.402Zm3.512-5.226 13.405 18.142 1.608-1.189-13.405-18.141-1.608 1.188Zm14.125 16.551-8.529.717.167 1.993 8.53-.717-.168-1.993Zm-7.635 1.128-9.904-13.739-1.623 1.17 9.905 13.739 1.622-1.17Zm22.027-18.915-.084-.996-.997.084.084.996.997-.084Zm21.643-1.817.997-.084-.084-.996-.996.083.083.997Zm.539 6.417.084.997.996-.084-.083-.996-.997.083Zm-21.644 1.818-.996.084.084.996.996-.084-.084-.996Zm20.778-20.732.997-.083-.084-.997-.996.084.083.996Zm.539 6.418.084.996.997-.083-.084-.997-.997.084Zm-22.202 1.864-.763-.645-1.559 1.844 2.406-.202-.084-.997Zm3.396-4.018.997-.084-.202-2.405-1.559 1.844.764.645ZM355.07 53.7l.084.997.996-.084-.083-.996-.997.083Zm-7.533.633-.997.084.084.996.996-.083-.083-.997Zm-2.511-29.895-.084-.996-.996.083.084.997.996-.084Zm4.795 13.125 21.644-1.818-.167-1.993-21.644 1.818.167 1.993Zm20.564-2.73.539 6.417 1.993-.167-.539-6.418-1.993.168Zm1.452 5.337-21.644 1.817.167 1.993 21.644-1.817-.167-1.993Zm-20.564 2.73-.539-6.417-1.993.167.539 6.418 1.993-.168Zm18.785-20.564.539 6.418 1.993-.168-.539-6.417-1.993.167Zm1.452 5.337-22.202 1.865.167 1.993 22.202-1.865-.167-1.993Zm-21.355 3.507 3.396-4.018-1.528-1.291-3.395 4.018 1.527 1.29Zm1.636-4.58 2.283 27.184 1.993-.167-2.283-27.185-1.993.168Zm3.195 26.104-7.533.633.167 1.992 7.534-.632-.168-1.993Zm-6.453 1.545-2.51-29.894-1.993.167 2.51 29.895 1.993-.168Zm-3.423-28.814 26.028-2.186-.167-1.993-26.029 2.186.168 1.993Zm36.643 9.165-.084-.996-.996.084.084.996.996-.084Zm14.469-2.178.676.737.007-.007.007-.007-.69-.723Zm-.459-5.46-.56.827.008.006.008.005.544-.839Zm-15.709.315-.792-.61-1.385 1.796 2.261-.19-.084-.996Zm3.077-3.992.997-.083-.216-2.568-1.573 2.04.792.611Zm2.34 27.862.084.997.996-.084-.084-.996-.996.083Zm-7.534.633-.996.084.084.996.996-.084-.084-.996Zm-2.51-29.895-.084-.996-.996.083.083.997.997-.084Zm23.378-.759-.353.936.353-.936Zm4.184 2.98.786-.619-.786.62Zm.827 9.846.878.479-.878-.48Zm-3.628 3.636.493.87.011-.006-.504-.864Zm-17.96 2.672-.996.084.084.997.996-.084-.084-.997Zm4.579-3.314-.084-.997-2.023.17 1.368 1.5.739-.673Zm8.49-.713.732-.682-.331-.355-.484.04.083.997ZM407.473 49.3l.084.996 2.051-.172-1.403-1.506-.732.681Zm-8.729.733-.739.673.332.364.491-.04-.084-.997Zm-16.907-14.436 11.2-.94-.167-1.994-11.201.94.168 1.994Zm11.2-.94c1.552-.131 2.878-.596 3.861-1.498l-1.353-1.474c-.558.512-1.41.872-2.675.978l.167 1.993Zm3.875-1.512c1.012-.966 1.431-2.226 1.311-3.66l-1.993.166c.076.904-.175 1.547-.699 2.048l1.381 1.446Zm1.311-3.66c-.121-1.435-.745-2.604-1.916-3.363l-1.088 1.678c.584.378.935.948 1.011 1.851l1.993-.167Zm-1.9-3.352c-1.123-.76-2.515-1.015-4.076-.884l.168 1.993c1.256-.105 2.152.117 2.788.547l1.12-1.656Zm-4.076-.884-12.276 1.031.167 1.993 12.277-1.03-.168-1.994Zm-11.401 2.638 3.077-3.991-1.584-1.221-3.077 3.991 1.584 1.221Zm1.289-4.518 2.339 27.862 1.993-.167-2.339-27.862-1.993.167Zm3.252 26.782-7.533.632.167 1.993 7.534-.632-.168-1.993Zm-6.453 1.545-2.511-29.894-1.993.167 2.511 29.895 1.993-.168Zm-3.423-28.814 17.418-1.463-.167-1.993-17.419 1.463.168 1.993Zm17.418-1.463c2.114-.178 3.947.048 5.523.643l.706-1.872c-1.906-.718-4.046-.962-6.396-.764l.167 1.993Zm5.523.643c1.589.599 2.827 1.49 3.752 2.663l1.571-1.238c-1.172-1.487-2.723-2.582-4.617-3.297l-.706 1.872Zm3.752 2.663c.913 1.159 1.455 2.575 1.599 4.29l1.993-.167c-.173-2.058-.838-3.859-2.021-5.36l-1.571 1.237Zm1.599 4.29c.142 1.686-.156 3.16-.864 4.457l1.755.959c.915-1.676 1.273-3.548 1.102-5.583l-1.993.168Zm-.864 4.457c-.717 1.312-1.789 2.397-3.255 3.252l1.008 1.728c1.748-1.02 3.094-2.36 4.002-4.021l-1.755-.959Zm-3.244 3.246c-1.46.827-3.235 1.344-5.353 1.522l.167 1.993c2.346-.197 4.413-.779 6.171-1.775l-.985-1.74Zm-5.353 1.522-12.197 1.024.167 1.993 12.197-1.024-.167-1.993Zm-11.117 1.937-.475-5.66-1.993.167.475 5.66 1.993-.167Zm3.666-2.235 8.49-.713-.167-1.993-8.491.713.168 1.993Zm7.675-1.028 12.176 13.067 1.463-1.363-12.176-13.067-1.463 1.363Zm12.824 11.389-8.73.733.168 1.993 8.729-.733-.167-1.993Zm-7.907 1.056-11.937-13.087-1.478 1.348 11.937 13.087 1.478-1.348Zm9.42-30.285-.084-.997-.996.084.083.996.997-.083Zm7.533-.633.997-.083-.084-.997-.996.084.083.996Zm2.511 29.895.083.996.997-.083-.084-.997-.996.084Zm-7.534.633-.996.083.084.997.996-.084-.084-.996Zm-2.427-28.899 7.534-.632-.167-1.993-7.534.632.167 1.993Zm6.454-1.545 2.51 29.895 1.993-.168-2.51-29.895-1.993.168Zm3.423 28.815-7.533.632.167 1.993 7.533-.633-.167-1.992Zm-6.453 1.545-2.511-29.895-1.993.168 2.511 29.894 1.993-.167Zm33.798-31.057-.352.936.352-.936Zm6.577 4.706-.788.616.005.006.783-.622Zm1.319 15.704-.879-.478-.001.003.88.475Zm-5.7 5.737-.503-.864.503.864Zm-23.639 3.872-.997.084.084.997.996-.084-.083-.997Zm-2.511-29.894-.084-.997-.996.084.084.996.996-.083Zm9.747 26.196-.637.77 1.832 1.515-.199-2.369-.996.084Zm-3.969-3.28-.083-.996-2.444.205 1.89 1.562.637-.77Zm16.216-2.405-.514-.858.514.858Zm3.027-3.144.888.46.004-.008-.892-.452Zm-.736-8.77-.798.603.798-.602Zm-3.51-2.595.364-.931-.364.931Zm-16.389.333-.757-.654-1.603 1.855 2.443-.205-.083-.996Zm3.366-3.896.996-.083-.199-2.37-1.554 1.8.757.653Zm6.92-2.668c3.39-.285 6.359.073 8.93 1.04l.704-1.872c-2.901-1.09-6.175-1.466-9.801-1.161l.167 1.993Zm8.93 1.04c2.58.97 4.615 2.434 6.141 4.386l1.575-1.232c-1.772-2.267-4.121-3.94-7.012-5.026l-.704 1.872Zm6.146 4.392c1.538 1.935 2.44 4.296 2.678 7.126l1.993-.167c-.267-3.175-1.293-5.924-3.106-8.204l-1.565 1.245Zm2.678 7.126c.235 2.802-.259 5.283-1.455 7.478l1.757.957c1.401-2.573 1.955-5.451 1.691-8.602l-1.993.167Zm-1.456 7.48c-1.179 2.18-2.941 3.963-5.323 5.35l1.006 1.728c2.669-1.554 4.707-3.595 6.076-6.126l-1.759-.951Zm-5.323 5.35c-2.374 1.38-5.242 2.229-8.631 2.514l.167 1.993c3.626-.305 6.792-1.221 9.47-2.78l-1.006-1.728Zm-8.631 2.514-14.589 1.225.167 1.993 14.589-1.225-.167-1.993Zm-13.509 2.138-2.51-29.895-1.993.167 2.51 29.895 1.993-.167Zm-3.423-28.815 14.588-1.225-.167-1.993-14.589 1.225.168 1.993Zm10.3 24.429-3.969-3.28-1.274 1.542 3.969 3.28 1.274-1.542Zm-4.522-1.512 11.32-.95-.167-1.994-11.32.95.167 1.994Zm11.32-.95c2.033-.171 3.819-.691 5.326-1.594l-1.028-1.716c-1.194.715-2.671 1.166-4.465 1.316l.167 1.993Zm5.326-1.594c1.495-.896 2.64-2.076 3.401-3.542l-1.775-.921c-.576 1.109-1.449 2.025-2.654 2.747l1.028 1.716Zm3.405-3.55c.761-1.502 1.046-3.185.893-5.018l-1.993.168c.127 1.515-.113 2.82-.684 3.945l1.784.905Zm.893-5.018c-.156-1.855-.717-3.473-1.723-4.806l-1.596 1.205c.74.982 1.196 2.222 1.326 3.769l1.993-.168Zm-1.723-4.806c-.994-1.318-2.32-2.29-3.944-2.924l-.727 1.863c1.309.51 2.322 1.268 3.075 2.266l1.596-1.205Zm-3.944-2.924c-1.636-.64-3.484-.854-5.517-.683l.168 1.993c1.794-.151 3.325.046 4.622.553l.727-1.863Zm-5.517-.683-11.32.95.167 1.993 11.321-.95-.168-1.993Zm-10.48 2.6 3.366-3.895-1.513-1.307-3.366 3.895 1.513 1.308Zm1.613-4.465 1.995 23.757 1.993-.168-1.995-23.756-1.993.167Zm35.392 17.981-.997.084.084.997.996-.084-.083-.997Zm-.509-6.058-.084-.997-.996.084.083.996.997-.083Zm20.647-1.734.997-.084-.084-.996-.996.083.083.997Zm.509 6.059.084.996.996-.084-.083-.996-.997.084Zm-7.266-23.435.869-.493-.315-.557-.638.054.084.996Zm16.302 28.737.083.996 1.557-.13-.771-1.36-.869.494Zm-8.012.673-.878.48.313.57.648-.054-.083-.996Zm-14.085-25.752-.083-.996-1.531.128.737 1.348.877-.48Zm2.312-.194.946.326.499-1.45-1.529.128.084.996Zm-9.552 27.737.084.996.649-.054.212-.617-.945-.325Zm-8.012.672-.94-.341-.533 1.469 1.557-.131-.084-.996Zm11.281-31.052-.084-.997-.638.054-.218.601.94.341Zm-2.619 24.264-.509-6.059-1.993.167.509 6.06 1.993-.168Zm-1.421-4.979 20.647-1.734-.167-1.993-20.648 1.734.168 1.993Zm19.567-2.647.509 6.06 1.993-.168-.509-6.059-1.993.168Zm1.421 4.979-20.647 1.734.167 1.993 20.648-1.734-.168-1.993Zm-8.052-21.944 16.302 28.736 1.739-.986-16.302-28.737-1.739.987ZM494 41.029l-8.012.673.167 1.993 8.012-.673L494 41.03Zm-7.051 1.19-14.084-25.752-1.755.96 14.084 25.752 1.755-.96Zm-14.878-24.275 2.312-.195-.168-1.992-2.311.194.167 1.993Zm1.283-1.517-9.553 27.737 1.891.651 9.553-27.736-1.891-.652Zm-8.691 27.066-8.012.673.168 1.993 8.012-.673-.168-1.993Zm-6.988 2.01 11.281-31.052-1.88-.683-11.281 31.053 1.88.683ZM468.1 15.107l9.765-.82-.167-1.993-9.766.82.168 1.993Zm34.201 26.23-.997.084.084.996.997-.084-.084-.996Zm-1.215-14.47-.084-.996-.996.084.083.996.997-.083Zm7.533-.632.997-.084-.084-.996-.996.084.083.996Zm1.215 14.47.084.996.997-.084-.084-.996-.997.083ZM485.76 12.618l-.084-.996-2.05.172 1.402 1.506.732-.682Zm8.33-.7.732-.681-.331-.355-.484.04.083.997Zm12.353 13.253.083.997 2.052-.172-1.404-1.506-.731.681Zm-3.468.292-.835-.55-1.133 1.718 2.052-.172-.084-.996Zm9.969-15.128-.084-.996-.484.04-.267.406.835.55Zm8.331-.7.835.551 1.133-1.719-2.052.172.084.997Zm-13.673 20.738.1.995.473-.048.262-.397-.835-.55Zm-4.856.488-.732.681.338.364.494-.05-.1-.995Zm.551 10.39-1.215-14.469-1.993.167 1.215 14.47 1.993-.168Zm-2.128-13.389 7.534-.632-.167-1.993-7.534.632.167 1.993Zm6.454-1.545 1.215 14.469 1.993-.167-1.215-14.47-1.993.168Zm2.128 13.389-7.534.632.168 1.993 7.533-.632-.167-1.993Zm-23.908-26.091 8.331-.7-.167-1.993-8.331.7.167 1.993Zm7.516-1.014 12.352 13.252 1.463-1.363-12.352-13.253-1.463 1.364Zm13 11.574-3.468.291.168 1.993 3.467-.291-.167-1.993Zm-2.549 1.838 9.969-15.127-1.67-1.1-9.969 15.126 1.67 1.101Zm9.218-14.681 8.33-.7-.167-1.993-8.331.7.168 1.993Zm7.412-2.247-13.673 20.737 1.67 1.101 13.673-20.737-1.67-1.1ZM507.502 29.38l-4.856.488.2 1.99 4.856-.488-.2-1.99Zm-4.024.801-16.986-18.242-1.464 1.363 16.986 18.242 1.464-1.363Z" mask="url(#b)"/></svg>