<svg width="843" height="550" viewBox="0 0 843 550" fill="none" xmlns="http://www.w3.org/2000/svg">
<path d="M104.728 476.027C103.24 473.32 102.798 470.078 103.501 467.015C104.204 463.952 105.993 461.319 108.475 459.695C110.957 458.071 113.929 457.59 116.736 458.356C119.544 459.123 121.958 461.074 123.446 463.782L122.204 464.595C120.913 462.246 118.82 460.554 116.385 459.889C113.95 459.224 111.372 459.642 109.22 461.05C107.067 462.459 105.515 464.742 104.906 467.398C104.297 470.055 104.68 472.866 105.971 475.215L104.728 476.027Z" fill="white"/>
<circle cx="52" cy="152" r="3" fill="#151515"/>
<path d="M51 152C51 152.552 51.4477 153 52 153C52.5523 153 53 152.552 53 152H51ZM53 152L53 -225L51 -225L51 152H53Z" fill="#FE64FA"/>
<path d="M66.1781 214.266C53.3542 211.902 44.1507 206.667 38.5677 198.56C33.0634 190.469 31.5077 179.932 33.9005 166.951L38.4035 142.522L68.8505 148.135L64.8262 169.967C63.84 175.317 64.4845 179.543 66.7595 182.647C69.1132 185.766 73.1617 187.854 78.9049 188.913C82.3666 189.551 86.0188 189.817 89.8615 189.712C93.7829 189.622 97.8089 189.184 101.94 188.4L99.0142 212.875C94.2521 214.438 89.0407 215.348 83.3801 215.606C77.8127 215.8 72.0787 215.353 66.1781 214.266ZM87.939 243.169L104.254 154.661L134.701 160.273L118.386 248.782L87.939 243.169ZM225.133 211.841L221.261 232.847L154.584 220.556L158.457 199.55L225.133 211.841ZM177.409 213.903L165.911 245.828L156.695 230.951L223.844 243.329L219.406 267.403L133.729 251.61L148.378 208.552L150.045 163.101L235.131 178.785L230.693 202.86L164.135 190.591L178.049 179.978L177.409 213.903ZM303.286 191.349C311.31 192.828 317.909 195.427 323.08 199.146C328.345 202.801 332.022 207.343 334.113 212.772C336.218 218.122 336.668 224.062 335.465 230.592C334.261 237.122 331.715 242.55 327.826 246.877C323.952 251.125 318.897 254.057 312.66 255.674C306.517 257.226 299.433 257.262 291.408 255.783L253.999 248.887L258.371 225.167L293.775 231.693C296.764 232.244 299.223 231.924 301.151 230.734C303.078 229.544 304.289 227.611 304.782 224.936C305.289 222.183 304.848 219.945 303.456 218.225C302.08 216.425 299.897 215.25 296.907 214.699L264.1 208.652L280.312 197.486L265.846 275.964L235.399 270.351L251.714 181.842L303.286 191.349ZM354.021 200.701L384.468 206.313L368.153 294.822L337.706 289.21L354.021 200.701ZM422.231 213.274L452.678 218.886L436.363 307.395L405.916 301.783L422.231 213.274ZM365.747 233.734L428.647 245.328L423.687 272.235L360.787 260.64L365.747 233.734ZM477.819 299.662L482.278 275.47L542.582 286.586L538.123 310.778L477.819 299.662ZM542.374 235.42L564.885 331.086L532.431 325.104L515.702 244.414L523.49 245.85L479.09 315.271L446.637 309.289L501.778 227.937L542.374 235.42ZM653.65 295.101L649.756 316.225L613.999 309.634L614.011 308.904C606.93 307.599 600.925 305.312 595.996 302.045C591.16 298.713 587.646 294.608 585.454 289.73C583.34 284.866 582.82 279.523 583.894 273.701C584.996 267.722 587.408 262.798 591.131 258.928C594.933 255.074 599.694 252.413 605.415 250.946C611.229 249.414 617.676 249.301 624.757 250.606L681.639 261.091L665.324 349.6L634.877 343.988L649.778 263.15L660.944 279.362L625.54 272.836C622.551 272.285 620.099 272.566 618.186 273.677C616.273 274.789 615.07 276.682 614.577 279.357C614.084 282.032 614.533 284.23 615.924 285.95C617.315 287.671 619.505 288.807 622.495 289.358L653.65 295.101ZM640.624 302.218L605.256 338.528L570.442 332.11L606.991 296.018L640.624 302.218Z" fill="white"/>
<path d="M127.04 376V466H96.08V389.44L110 403.36H44.24L58.16 389.44V466H27.2V376H127.04ZM215.378 414.52V436H179.018L178.898 435.28C171.698 435.28 165.378 434.12 159.938 431.8C154.578 429.4 150.378 426 147.338 421.6C144.378 417.2 142.898 412.04 142.898 406.12C142.898 400.04 144.378 394.76 147.338 390.28C150.378 385.8 154.578 382.32 159.938 379.84C165.378 377.28 171.698 376 178.898 376H236.738V466H205.778V383.8L219.698 397.72H183.698C180.658 397.72 178.298 398.44 176.618 399.88C174.938 401.32 174.098 403.4 174.098 406.12C174.098 408.84 174.938 410.92 176.618 412.36C178.298 413.8 180.658 414.52 183.698 414.52H215.378ZM203.858 423.88L175.658 466H140.258L169.658 423.88H203.858ZM282.432 389.32H313.392V466H282.432V389.32ZM250.032 376H345.793V403.6H250.032V376ZM359.094 376H390.054V466H359.094V376ZM428.454 376H459.414V466H428.454V376ZM376.614 406.36H440.574V433.72H376.614V406.36ZM477.42 466V376H508.14V449.08L500.22 447.28L543.42 376H583.86V466H553.14V391L561.06 392.8L516.66 466H477.42ZM700.721 376V448.96L689.201 438.64H716.081V483.88H687.041V459.76L693.641 466H601.841V376H632.801V448.96L622.481 438.64H681.281L669.761 448.96V376H700.721ZM751.254 450.88V426.28H812.574V450.88H751.254ZM803.094 376L842.574 466H809.574L778.494 389.68H786.414L755.334 466H722.334L761.814 376H803.094Z" fill="#FE64FA"/>
<circle cx="665" cy="268" r="3" fill="#151515"/>
<path d="M664 268C664 268.552 664.448 269 665 269C665.552 269 666 268.552 666 268H664ZM666 268L666 -109L664 -109L664 268H666Z" fill="#8F8FFF"/>
<rect y="522.784" width="123.677" height="30.4233" rx="15.2116" transform="rotate(-29.4544 0 522.784)" fill="#FFEB1C"/>
<path d="M38.2053 520.492L41.8265 518.447C41.9778 518.629 42.1826 518.744 42.441 518.793C42.6941 518.832 42.9961 518.808 43.347 518.719C43.6927 518.621 44.0775 518.452 44.5013 518.213C45.0542 517.9 45.4514 517.603 45.6931 517.321C45.9439 517.033 45.9991 516.765 45.8586 516.517C45.7649 516.351 45.5993 516.262 45.3618 516.25C45.1191 516.229 44.7155 516.354 44.1511 516.624L42.3748 517.481C40.7603 518.259 39.4489 518.562 38.4404 518.391C37.4319 518.219 36.6675 517.672 36.1471 516.751C35.71 515.977 35.5669 515.207 35.7178 514.441C35.8687 513.675 36.2675 512.94 36.9142 512.234C37.5702 511.524 38.4326 510.866 39.5014 510.263C40.5427 509.675 41.5473 509.302 42.5155 509.144C43.4877 508.972 44.357 509.016 45.1235 509.275C45.8993 509.53 46.5079 509.994 46.9494 510.669L43.3282 512.714C43.2069 512.563 43.0341 512.473 42.8098 512.441C42.5948 512.405 42.3308 512.432 42.018 512.524C41.7051 512.616 41.3506 512.773 40.9544 512.997C40.4476 513.283 40.0754 513.56 39.8378 513.828C39.6094 514.091 39.5602 514.337 39.6903 514.568C39.7787 514.724 39.9371 514.811 40.1654 514.828C40.4029 514.84 40.7763 514.726 41.2854 514.487L43.2907 513.519C44.3407 513.011 45.2466 512.7 46.0085 512.586C46.7651 512.462 47.4033 512.527 47.9231 512.78C48.4522 513.028 48.8884 513.457 49.2318 514.065C49.6637 514.829 49.8152 515.625 49.6863 516.451C49.5574 517.278 49.174 518.083 48.5361 518.869C47.9022 519.64 47.0415 520.333 45.9543 520.947C44.8301 521.582 43.7583 521.986 42.7389 522.161C41.7195 522.336 40.8141 522.282 40.0227 522C39.2406 521.712 38.6348 521.21 38.2053 520.492ZM53.8699 513.852L52.2698 511.018L59.3326 507.03L60.9327 509.863L53.8699 513.852ZM54.9703 501.855L65.3715 509.653L61.5706 511.8L53.0267 505.031L53.9389 504.516L55.3233 515.328L51.5224 517.474L50.2157 504.54L54.9703 501.855ZM64.2872 496.594L69.2513 505.384L66.7426 504.686L74.455 500.331L76.2502 503.51L66.5752 508.974L60.7213 498.608L64.2872 496.594ZM83.4127 491.007L84.802 493.467L76.9929 497.877L75.6036 495.417L83.4127 491.007ZM78.7447 495.265L80.2865 499.481L78.0891 498.753L85.9534 494.312L87.5457 497.131L77.5114 502.798L75.3446 497.185L71.6574 492.432L81.6227 486.804L83.2149 489.624L75.4197 494.026L75.9312 491.768L78.7447 495.265Z" fill="#151515"/>
<circle cx="107.804" cy="478.503" r="1.98413" fill="#151515"/>
<path d="M120.628 460.375C122.945 462.267 124.477 465.086 124.889 468.211C125.301 471.337 124.557 474.512 122.823 477.04C121.088 479.567 118.504 481.239 115.639 481.688C112.775 482.138 109.864 481.327 107.547 479.434L108.415 478.17C110.424 479.811 112.949 480.514 115.433 480.124C117.918 479.735 120.159 478.285 121.663 476.093C123.168 473.901 123.812 471.147 123.455 468.436C123.098 465.726 121.769 463.281 119.76 461.64L120.628 460.375Z" fill="white"/>
</svg>
