<svg width="319" height="334" viewBox="0 0 319 334" fill="none" xmlns="http://www.w3.org/2000/svg">
<path d="M203.516 285.12C202.053 283.136 201.405 280.572 201.715 277.993C202.025 275.414 203.267 273.031 205.168 271.368C207.069 269.705 209.474 268.898 211.852 269.125C214.231 269.352 216.389 270.594 217.852 272.578L216.9 273.41C215.632 271.689 213.76 270.612 211.697 270.415C209.634 270.219 207.549 270.919 205.9 272.361C204.252 273.803 203.174 275.87 202.906 278.107C202.637 280.343 203.199 282.567 204.467 284.287L203.516 285.12Z" fill="white"/>
<path d="M20.4145 164.389C15.5162 163.393 12.0258 161.321 9.94325 158.175C7.89078 155.035 7.36895 150.985 8.37775 146.027L10.2761 136.696L21.9059 139.062L20.2093 147.401C19.7935 149.445 20.0106 151.07 20.8607 152.275C21.7407 153.487 23.2776 154.316 25.4714 154.762C26.7936 155.031 28.1915 155.159 29.665 155.146C31.1686 155.139 32.7148 155 34.3034 154.729L33.0094 164.088C31.1731 164.654 29.1694 164.966 26.998 165.025C24.8628 165.06 22.6683 164.848 20.4145 164.389ZM28.5506 175.621L35.4289 141.814L47.0586 144.18L40.1804 177.987L28.5506 175.621ZM81.3541 164.583L79.7216 172.606L54.2534 167.425L55.8858 159.401L81.3541 164.583ZM63.0482 165.036L58.4159 177.191L54.9889 171.424L80.6374 176.642L78.7666 185.838L46.041 179.179L51.9593 162.78L52.9192 145.372L85.4194 151.984L83.5485 161.18L58.1254 156.008L63.5333 152.038L63.0482 165.036ZM111.452 157.281C114.517 157.904 117.028 158.947 118.984 160.409C120.976 161.847 122.353 163.614 123.116 165.709C123.885 167.775 124.016 170.055 123.508 172.549C123.001 175.043 121.987 177.106 120.466 178.737C118.951 180.337 116.992 181.425 114.591 182.001C112.225 182.552 109.51 182.516 106.445 181.893L92.1556 178.985L93.9989 169.925L107.522 172.676C108.664 172.909 109.608 172.804 110.356 172.361C111.103 171.918 111.58 171.186 111.788 170.164C112.002 169.113 111.849 168.252 111.328 167.583C110.813 166.883 109.984 166.418 108.843 166.185L96.3112 163.636L102.604 159.471L96.5052 189.447L84.8755 187.081L91.7537 153.273L111.452 157.281ZM130.831 161.224L142.461 163.59L135.583 197.397L123.953 195.031L130.831 161.224ZM156.885 166.524L168.515 168.891L161.637 202.698L150.007 200.332L156.885 166.524ZM135.092 173.967L159.118 178.855L157.027 189.132L133.001 184.244L135.092 173.967ZM177.58 200.027L179.46 190.786L202.494 195.473L200.614 204.713L177.58 200.027ZM202.776 175.861L210.728 212.686L198.332 210.164L192.49 179.12L195.465 179.725L177.957 206.018L165.561 203.496L187.269 172.706L202.776 175.861ZM245.003 199.521L243.361 207.589L229.703 204.811L229.713 204.531C227.008 203.981 224.723 203.062 222.857 201.775C221.027 200.464 219.709 198.865 218.903 196.98C218.128 195.101 217.966 193.05 218.419 190.826C218.883 188.542 219.843 186.672 221.297 185.215C222.781 183.765 224.625 182.779 226.828 182.257C229.067 181.711 231.539 181.713 234.243 182.263L255.97 186.684L249.092 220.491L237.462 218.125L243.744 187.247L247.91 193.54L234.387 190.789C233.245 190.557 232.303 190.647 231.562 191.059C230.821 191.472 230.346 192.189 230.138 193.211C229.931 194.232 230.087 195.078 230.608 195.747C231.129 196.416 231.961 196.867 233.103 197.1L245.003 199.521ZM239.96 202.156L226.148 215.823L212.851 213.117L227.113 199.543L239.96 202.156Z" fill="white"/>
<path d="M44.032 240.492V274.992H32.164V245.644L37.5 250.98H12.292L17.628 245.644V274.992H5.76V240.492H44.032ZM77.8948 255.258V263.492H63.9568L63.9108 263.216C61.1508 263.216 58.7282 262.772 56.6428 261.882C54.5882 260.962 52.9782 259.659 51.8128 257.972C50.6782 256.286 50.1108 254.308 50.1108 252.038C50.1108 249.708 50.6782 247.684 51.8128 245.966C52.9782 244.249 54.5882 242.915 56.6428 241.964C58.7282 240.983 61.1508 240.492 63.9108 240.492H86.0828V274.992H74.2148V243.482L79.5508 248.818H65.7508C64.5855 248.818 63.6808 249.094 63.0368 249.646C62.3928 250.198 62.0708 250.996 62.0708 252.038C62.0708 253.081 62.3928 253.878 63.0368 254.43C63.6808 254.982 64.5855 255.258 65.7508 255.258H77.8948ZM73.4788 258.846L62.6688 274.992H49.0988L60.3688 258.846H73.4788ZM103.599 245.598H115.467V274.992H103.599V245.598ZM91.1791 240.492H127.887V251.072H91.1791V240.492ZM132.986 240.492H144.854V274.992H132.986V240.492ZM159.574 240.492H171.442V274.992H159.574V240.492ZM139.702 252.13H164.22V262.618H139.702V252.13ZM178.344 274.992V240.492H190.12V268.506L187.084 267.816L203.644 240.492H219.146V274.992H207.37V246.242L210.406 246.932L193.386 274.992H178.344ZM263.943 240.492V268.46L259.527 264.504H269.831V281.846H258.699V272.6L261.229 274.992H226.039V240.492H237.907V268.46L233.951 264.504H256.491L252.075 268.46V240.492H263.943ZM283.314 269.196V259.766H306.82V269.196H283.314ZM303.186 240.492L318.32 274.992H305.67L293.756 245.736H296.792L284.878 274.992H272.228L287.362 240.492H303.186Z" fill="#FE64FA"/>
<circle cx="14.7415" cy="142.513" r="2.74148" fill="#151515"/>
<path d="M13.8276 142.513C13.8276 143.018 14.2368 143.427 14.7415 143.427C15.2462 143.427 15.6553 143.018 15.6553 142.513H13.8276ZM15.6553 142.513L15.6553 -202L13.8276 -202L13.8276 142.513H15.6553Z" fill="#FE64FA"/>
<circle cx="250.741" cy="191.513" r="2.74148" fill="#151515"/>
<path d="M249.828 191.513C249.828 192.018 250.237 192.427 250.741 192.427C251.246 192.427 251.655 192.018 251.655 191.513H249.828ZM251.655 191.513L251.655 -153L249.828 -153L249.828 191.513H251.655Z" fill="#8F8FFF"/>
<rect x="112" y="310.433" width="101.91" height="25.0688" rx="12.5344" transform="rotate(-22.3343 112 310.433)" fill="#FFEB1C"/>
<path d="M143.717 312.866L146.887 311.564C146.992 311.728 147.147 311.844 147.354 311.91C147.557 311.968 147.806 311.978 148.102 311.942C148.395 311.897 148.727 311.798 149.098 311.646C149.582 311.447 149.937 311.244 150.163 311.038C150.398 310.829 150.47 310.615 150.381 310.397C150.321 310.252 150.195 310.163 150.002 310.129C149.805 310.087 149.463 310.148 148.973 310.311L147.434 310.83C146.034 311.302 144.931 311.416 144.124 311.172C143.317 310.929 142.747 310.404 142.416 309.597C142.138 308.92 142.099 308.275 142.301 307.665C142.503 307.054 142.904 306.493 143.505 305.983C144.114 305.468 144.886 305.019 145.821 304.635C146.733 304.26 147.592 304.058 148.4 304.028C149.213 303.986 149.919 304.111 150.519 304.402C151.127 304.689 151.578 305.131 151.87 305.727L148.7 307.03C148.616 306.894 148.484 306.802 148.304 306.754C148.132 306.702 147.913 306.698 147.648 306.741C147.383 306.784 147.077 306.876 146.73 307.019C146.287 307.201 145.954 307.39 145.732 307.584C145.519 307.776 145.453 307.972 145.536 308.174C145.592 308.311 145.713 308.398 145.898 308.435C146.091 308.469 146.408 308.414 146.849 308.271L148.587 307.684C149.498 307.376 150.27 307.214 150.905 307.199C151.536 307.175 152.051 307.293 152.45 307.553C152.857 307.81 153.17 308.205 153.389 308.737C153.664 309.407 153.707 310.073 153.517 310.735C153.327 311.397 152.931 312.017 152.33 312.594C151.732 313.16 150.958 313.639 150.006 314.03C149.022 314.434 148.105 314.655 147.253 314.694C146.402 314.733 145.667 314.596 145.049 314.285C144.439 313.97 143.995 313.497 143.717 312.866ZM157.203 309.037L156.184 306.557L162.366 304.017L163.385 306.497L157.203 309.037ZM159.328 299.34L167.036 306.779L163.709 308.146L157.415 301.738L158.213 301.41L158.241 310.392L154.914 311.759L155.166 301.05L159.328 299.34ZM167.483 295.99L170.645 303.684L168.665 302.858L175.415 300.084L176.559 302.867L168.09 306.346L164.362 297.272L167.483 295.99ZM183.692 293.375L184.577 295.529L177.741 298.337L176.856 296.183L183.692 293.375ZM179.44 296.38L180.27 299.984L178.548 299.165L185.432 296.337L186.446 298.805L177.663 302.413L176.464 297.603L173.935 293.34L182.658 289.756L183.672 292.224L176.848 295.027L177.497 293.234L179.44 296.38Z" fill="#151515"/>
<circle cx="204.668" cy="285.237" r="1.63492" transform="rotate(7.12014 204.668 285.237)" fill="#151515"/>
<path d="M217.005 271.725C218.706 273.508 219.671 275.97 219.689 278.567C219.706 281.165 218.774 283.685 217.098 285.575C215.421 287.464 213.138 288.567 210.749 288.642C208.361 288.716 206.064 287.756 204.363 285.972L205.202 285.027C206.677 286.574 208.669 287.407 210.741 287.342C212.812 287.277 214.792 286.32 216.246 284.682C217.7 283.043 218.509 280.857 218.494 278.605C218.479 276.352 217.641 274.217 216.166 272.67L217.005 271.725Z" fill="white"/>
</svg>
