<svg width="1143" height="712" viewBox="0 0 1143 712" fill="none" xmlns="http://www.w3.org/2000/svg">
<path d="M158.52 601.561C156.851 598.656 155.977 595.291 156 591.863C156.024 588.434 156.945 585.085 158.655 582.208C160.365 579.331 162.792 577.047 165.652 575.624C168.511 574.201 171.684 573.698 174.796 574.175L174.491 576.541C171.792 576.127 169.041 576.563 166.561 577.797C164.081 579.031 161.976 581.012 160.493 583.507C159.01 586.003 158.211 588.908 158.19 591.881C158.17 594.855 158.928 597.773 160.376 600.292L158.52 601.561Z" fill="#D9D9D9"/>
<path d="M105.692 291.836C88.4355 289.716 75.7677 283.484 67.6888 273.142C59.7158 262.812 56.8027 248.913 58.9493 231.444L62.9889 198.572L103.961 203.606L100.35 232.985C99.4658 240.185 100.661 245.759 103.938 249.708C107.32 253.67 112.875 256.126 120.603 257.075C125.262 257.648 130.144 257.71 135.25 257.263C140.462 256.829 145.785 255.925 151.22 254.551L149.284 287.36C143.071 289.82 136.208 291.449 128.694 292.245C121.3 292.948 113.633 292.812 105.692 291.836ZM136.966 328.565L151.602 209.461L192.574 214.496L177.938 333.6L136.966 328.565ZM317.057 275.897L313.583 304.164L223.858 293.138L227.332 264.871L317.057 275.897ZM253.704 282.459L240.954 325.868L227.499 306.804L317.859 317.908L313.878 350.305L198.585 336.137L214.638 277.658L213.221 217.033L327.72 231.103L323.739 263.499L234.173 252.493L251.843 237.254L253.704 282.459ZM419.434 242.373C430.233 243.7 439.222 246.632 446.403 251.168C453.702 255.612 458.96 261.363 462.176 268.421C465.406 275.373 466.48 283.243 465.401 292.031C464.321 300.818 461.366 308.246 456.536 314.316C451.72 320.279 445.226 324.586 437.055 327.236C429.003 329.793 419.578 330.408 408.779 329.081L358.437 322.895L362.36 290.975L410.002 296.829C414.025 297.324 417.271 296.702 419.742 294.964C422.212 293.225 423.669 290.556 424.111 286.957C424.566 283.251 423.8 280.309 421.81 278.13C419.834 275.845 416.835 274.456 412.812 273.962L368.664 268.536L389.349 252.379L376.372 357.984L335.4 352.949L350.036 233.845L419.434 242.373ZM487.707 250.763L528.678 255.798L514.042 374.902L473.07 369.867L487.707 250.763ZM579.496 262.043L620.468 267.077L605.832 386.182L564.86 381.147L579.496 262.043ZM505.955 293.79L590.598 304.191L586.149 340.399L501.506 329.998L505.955 293.79ZM660.388 372.574L664.388 340.019L745.538 349.991L741.537 382.546L660.388 372.574ZM741.169 281.91L778.78 407.434L735.108 402.068L706.389 296.013L716.87 297.301L663.328 393.247L619.657 387.88L686.54 275.197L741.169 281.91ZM894.042 352.442L890.549 380.868L842.431 374.955L842.39 373.983C832.861 372.812 824.686 370.249 817.864 366.294C811.161 362.246 806.156 357.064 802.848 350.747C799.647 344.442 798.527 337.373 799.49 329.539C800.479 321.493 803.296 314.746 807.942 309.298C812.693 303.864 818.818 299.942 826.314 297.531C833.93 295.028 842.502 294.362 852.03 295.533L928.574 304.939L913.938 424.043L872.966 419.008L886.334 310.227L902.492 330.912L854.85 325.057C850.827 324.563 847.587 325.132 845.129 326.765C842.672 328.397 841.222 331.013 840.779 334.613C840.337 338.212 841.11 341.101 843.1 343.28C845.089 345.459 848.095 346.796 852.118 347.29L894.042 352.442ZM877.275 362.955L833.106 414.11L786.258 408.353L832.015 357.394L877.275 362.955Z" fill="white"/>
<path d="M188.72 466V586H147.44V483.92L166 502.48H78.32L96.88 483.92V586H55.6V466H188.72ZM306.504 517.36V546H258.024L257.864 545.04C248.264 545.04 239.837 543.493 232.584 540.4C225.437 537.2 219.837 532.667 215.784 526.8C211.837 520.933 209.864 514.053 209.864 506.16C209.864 498.053 211.837 491.013 215.784 485.04C219.837 479.067 225.437 474.427 232.584 471.12C239.837 467.707 248.264 466 257.864 466H334.984V586H293.704V476.4L312.264 494.96H264.264C260.21 494.96 257.064 495.92 254.824 497.84C252.584 499.76 251.464 502.533 251.464 506.16C251.464 509.787 252.584 512.56 254.824 514.48C257.064 516.4 260.21 517.36 264.264 517.36H306.504ZM291.144 529.84L253.544 586H206.344L245.544 529.84H291.144ZM395.91 483.76H437.19V586H395.91V483.76ZM352.71 466H480.39V502.8H352.71V466ZM498.125 466H539.405V586H498.125V466ZM590.605 466H631.885V586H590.605V466ZM521.485 506.48H606.765V542.96H521.485V506.48ZM655.894 586V466H696.854V563.44L686.294 561.04L743.894 466H797.814V586H756.854V486L767.414 488.4L708.214 586H655.894ZM953.628 466V563.28L938.268 549.52H974.108V609.84H935.388V577.68L944.188 586H821.788V466H863.068V563.28L849.308 549.52H927.708L912.348 563.28V466H953.628ZM1021 565.84V533.04H1102.76V565.84H1021ZM1090.12 466L1142.76 586H1098.76L1057.32 484.24H1067.88L1026.44 586H982.445L1035.08 466H1090.12Z" fill="#FE64FA"/>
<circle cx="910" cy="315" r="3" fill="#151515"/>
<path d="M909 315C909 315.552 909.448 316 910 316C910.552 316 911 315.552 911 315H909ZM911 315L911 -62L909 -62L909 315H911Z" fill="#8F8FFF"/>
<circle cx="74" cy="213" r="3" fill="#151515"/>
<path d="M73 213C73 213.552 73.4477 214 74 214C74.5523 214 75 213.552 75 213H73ZM75 213L75 -164L73 -164L73 213H75Z" fill="#FE64FA"/>
<rect y="671.954" width="187" height="46" rx="23" transform="rotate(-29.4544 0 671.954)" fill="#FFEB1C"/>
<path d="M57.96 669.164L63.4352 666.072C63.664 666.347 63.9737 666.522 64.3643 666.595C64.7471 666.655 65.2037 666.617 65.7343 666.483C66.257 666.335 66.8387 666.08 67.4796 665.718C68.3155 665.246 68.9162 664.796 69.2815 664.369C69.6608 663.935 69.7442 663.529 69.5318 663.153C69.3902 662.902 69.1398 662.768 68.7807 662.75C68.4137 662.719 67.8035 662.907 66.95 663.316L64.2642 664.612C61.8232 665.788 59.8403 666.247 58.3154 665.987C56.7906 665.727 55.6348 664.901 54.848 663.507C54.1872 662.337 53.9708 661.173 54.1989 660.015C54.4271 658.857 55.0301 657.745 56.0079 656.678C56.9997 655.604 58.3037 654.61 59.9198 653.698C61.4941 652.808 63.0132 652.245 64.477 652.006C65.9469 651.745 67.2614 651.812 68.4203 652.205C69.5933 652.59 70.5135 653.292 71.1811 654.311L65.7059 657.403C65.5225 657.176 65.2612 657.039 64.9221 656.992C64.5969 656.936 64.1978 656.978 63.7247 657.116C63.2517 657.255 62.7156 657.493 62.1166 657.832C61.3503 658.264 60.7875 658.683 60.4283 659.088C60.0829 659.485 60.0086 659.858 60.2053 660.206C60.339 660.443 60.5785 660.574 60.9237 660.6C61.2828 660.618 61.8473 660.446 62.6172 660.085L65.6491 658.621C67.2367 657.853 68.6064 657.382 69.7584 657.21C70.9024 657.023 71.8674 657.121 72.6534 657.504C73.4533 657.879 74.1128 658.527 74.6321 659.446C75.2851 660.602 75.5142 661.805 75.3193 663.055C75.1244 664.304 74.5447 665.522 73.5801 666.71C72.6216 667.876 71.3204 668.923 69.6764 669.852C67.9767 670.812 66.3562 671.424 64.8148 671.688C63.2734 671.952 61.9045 671.87 60.708 671.444C59.5254 671.009 58.6094 670.249 57.96 669.164ZM81.6449 659.124L79.2256 654.84L89.9044 648.809L92.3237 653.093L81.6449 659.124ZM83.3087 640.985L99.0352 652.776L93.2883 656.022L80.3699 645.787L81.7492 645.008L83.8424 661.356L78.0955 664.601L76.1198 645.045L83.3087 640.985ZM97.3958 633.03L104.902 646.321L101.108 645.266L112.77 638.681L115.484 643.487L100.855 651.748L92.0041 636.075L97.3958 633.03ZM126.314 624.582L128.414 628.302L116.607 634.97L114.506 631.25L126.314 624.582ZM119.256 631.021L121.587 637.395L118.264 636.294L130.155 629.579L132.563 633.842L117.391 642.41L114.115 633.925L108.54 626.737L123.607 618.228L126.015 622.491L114.228 629.147L115.002 625.734L119.256 631.021Z" fill="#151515"/>
<circle cx="163" cy="605" r="3" fill="#151515"/>
<circle cx="182" cy="579" r="3" fill="#151515"/>
<path d="M182.389 577.591C185.892 580.452 188.21 584.714 188.832 589.44C189.455 594.165 188.331 598.967 185.708 602.788C183.085 606.61 179.178 609.138 174.847 609.817C170.515 610.496 166.114 609.27 162.611 606.409L163.923 604.496C166.961 606.978 170.779 608.041 174.535 607.452C178.292 606.863 181.68 604.671 183.955 601.356C186.23 598.042 187.204 593.878 186.665 589.78C186.125 585.681 184.115 581.985 181.077 579.504L182.389 577.591Z" fill="white"/>
</svg>
