<svg width="657" height="462" viewBox="0 0 657 462" fill="none" xmlns="http://www.w3.org/2000/svg">
<path d="M79.9296 391.313C78.1986 389.558 77.1917 387.113 77.1305 384.517C77.0692 381.92 77.9585 379.384 79.6028 377.467C81.247 375.549 83.5116 374.407 85.8983 374.292C88.2849 374.177 90.5982 375.099 92.3291 376.854L91.5063 377.813C90.005 376.291 87.9988 375.492 85.9289 375.592C83.859 375.692 81.895 376.682 80.469 378.345C79.043 380.008 78.2717 382.207 78.3248 384.459C78.378 386.711 79.2512 388.831 80.7525 390.353L79.9296 391.313Z" fill="white"/>
<path d="M47.0852 213.736C36.9519 212.449 29.5244 208.758 24.8026 202.663C20.143 196.575 18.4644 188.403 19.7669 178.145L22.218 158.842L46.2768 161.897L44.0862 179.149C43.5494 183.376 44.2387 186.654 46.1541 188.981C48.1316 191.317 51.3895 192.773 55.9277 193.349C58.6631 193.697 61.5312 193.745 64.532 193.494C67.595 193.252 70.7246 192.733 73.9208 191.939L72.7056 211.209C69.0496 212.64 65.0136 213.58 60.5978 214.03C56.252 214.426 51.7478 214.328 47.0852 213.736ZM65.3715 235.388L74.2522 165.449L98.311 168.504L89.4303 238.443L65.3715 235.388ZM171.299 204.872L169.191 221.471L116.504 214.781L118.612 198.182L171.299 204.872ZM134.063 208.577L126.47 234.05L118.61 222.818L171.67 229.556L169.255 248.579L101.554 239.982L111.124 205.664L110.435 170.044L177.669 178.581L175.254 197.605L122.66 190.926L133.077 182.015L134.063 208.577ZM231.524 185.42C237.865 186.225 243.139 187.968 247.347 190.651C251.625 193.278 254.7 196.669 256.573 200.824C258.454 204.916 259.067 209.542 258.412 214.702C257.756 219.862 256.003 224.219 253.151 227.773C250.307 231.266 246.482 233.78 241.675 235.318C236.939 236.801 231.4 237.14 225.059 236.335L195.498 232.581L197.878 213.838L225.854 217.39C228.216 217.69 230.125 217.332 231.58 216.317C233.036 215.302 233.898 213.737 234.166 211.623C234.443 209.447 233.999 207.717 232.836 206.432C231.68 205.085 229.921 204.262 227.559 203.962L201.635 200.67L213.826 191.227L205.951 253.239L181.893 250.184L190.773 180.245L231.524 185.42ZM271.614 190.51L295.673 193.565L286.792 263.504L262.733 260.449L271.614 190.51ZM325.513 197.354L349.572 200.409L340.691 270.348L316.633 267.293L325.513 197.354ZM282.233 215.832L331.936 222.143L329.236 243.404L279.533 237.093L282.233 215.832ZM372.775 262.483L375.202 243.366L422.854 249.417L420.426 268.533L372.775 262.483ZM420.448 209.409L442.247 283.243L416.603 279.987L399.982 217.612L406.136 218.394L374.453 274.635L348.809 271.379L388.37 205.336L420.448 209.409ZM510.094 251.208L507.974 267.9L479.719 264.313L479.697 263.741C474.102 263.031 469.305 261.506 465.306 259.166C461.378 256.772 458.45 253.716 456.522 249.996C454.656 246.285 454.015 242.129 454.599 237.529C455.199 232.804 456.87 228.847 459.612 225.658C462.416 222.477 466.024 220.187 470.434 218.788C474.914 217.336 479.951 216.965 485.546 217.675L530.493 223.383L521.613 293.321L497.554 290.266L505.665 226.389L515.108 238.58L487.133 235.027C484.771 234.727 482.866 235.054 481.418 236.007C479.97 236.96 479.112 238.494 478.844 240.608C478.576 242.721 479.023 244.421 480.187 245.705C481.35 246.99 483.113 247.783 485.475 248.082L510.094 251.208ZM500.218 257.345L474.148 287.294L446.639 283.801L473.641 253.971L500.218 257.345Z" fill="white"/>
<path d="M95.848 309.5V380H71.596V320.028L82.5 330.932H30.988L41.892 320.028V380H17.64V309.5H95.848ZM165.046 339.674V356.5H136.564L136.47 355.936C130.83 355.936 125.879 355.027 121.618 353.21C117.419 351.33 114.129 348.667 111.748 345.22C109.429 341.773 108.27 337.731 108.27 333.094C108.27 328.331 109.429 324.195 111.748 320.686C114.129 317.177 117.419 314.451 121.618 312.508C125.879 310.503 130.83 309.5 136.47 309.5H181.778V380H157.526V315.61L168.43 326.514H140.23C137.849 326.514 136 327.078 134.684 328.206C133.368 329.334 132.71 330.963 132.71 333.094C132.71 335.225 133.368 336.854 134.684 337.982C136 339.11 137.849 339.674 140.23 339.674H165.046ZM156.022 347.006L133.932 380H106.202L129.232 347.006H156.022ZM217.572 319.934H241.824V380H217.572V319.934ZM192.192 309.5H267.204V331.12H192.192V309.5ZM277.623 309.5H301.875V380H277.623V309.5ZM331.955 309.5H356.207V380H331.955V309.5ZM291.347 333.282H341.449V354.714H291.347V333.282ZM370.313 380V309.5H394.377V366.746L388.173 365.336L422.013 309.5H453.691V380H429.627V321.25L435.831 322.66L401.051 380H370.313ZM545.231 309.5V366.652L536.207 358.568H557.263V394.006H534.515V375.112L539.685 380H467.775V309.5H492.027V366.652L483.943 358.568H530.003L520.979 366.652V309.5H545.231ZM584.815 368.156V348.886H632.849V368.156H584.815ZM625.423 309.5L656.349 380H630.499L606.153 320.216H612.357L588.011 380H562.161L593.087 309.5H625.423Z" fill="#FE64FA"/>
<circle cx="521.741" cy="234.513" r="2.74148" fill="#151515"/>
<path d="M520.828 234.513C520.828 235.018 521.237 235.427 521.741 235.427C522.246 235.427 522.655 235.018 522.655 234.513H520.828ZM522.655 234.513L522.655 -110L520.828 -110L520.828 234.513H522.655Z" fill="#8F8FFF"/>
<circle cx="25.7415" cy="170.513" r="2.74148" fill="#151515"/>
<path d="M24.8276 170.513C24.8276 171.018 25.2368 171.427 25.7415 171.427C26.2462 171.427 26.6553 171.018 26.6553 170.513H24.8276ZM26.6553 170.513L26.6553 -174L24.8276 -174L24.8276 170.513H26.6553Z" fill="#FE64FA"/>
<rect y="441.684" width="101.91" height="25.0688" rx="12.5344" transform="rotate(-38.3601 0 441.684)" fill="#FFEB1C"/>
<path d="M31.1562 435.267L33.8433 433.14C33.9897 433.269 34.1711 433.336 34.3876 433.343C34.5987 433.343 34.8414 433.284 35.1157 433.167C35.3846 433.043 35.6764 432.857 35.9909 432.608C36.4011 432.283 36.6866 431.991 36.8473 431.73C37.0148 431.464 37.0255 431.239 36.8794 431.054C36.782 430.931 36.6359 430.88 36.441 430.9C36.2408 430.914 35.9281 431.067 35.5031 431.359L34.1664 432.284C32.9514 433.123 31.9224 433.537 31.0795 433.526C30.2367 433.515 29.5446 433.167 29.0035 432.483C28.549 431.909 28.3343 431.301 28.3594 430.658C28.3846 430.015 28.6154 429.366 29.0519 428.709C29.4952 428.047 30.1134 427.402 30.9065 426.774C31.6791 426.162 32.4494 425.731 33.2174 425.479C33.9869 425.214 34.7002 425.139 35.3573 425.253C36.0213 425.361 36.576 425.662 37.0215 426.154L34.3344 428.281C34.2165 428.174 34.0643 428.122 33.8777 428.125C33.6979 428.123 33.4866 428.179 33.2436 428.294C33.0006 428.408 32.7321 428.582 32.4381 428.814C32.062 429.112 31.7944 429.385 31.6351 429.633C31.4827 429.876 31.4741 430.083 31.6094 430.254C31.7014 430.37 31.8414 430.421 32.0294 430.406C32.2242 430.385 32.5137 430.245 32.8977 429.985L34.4066 428.941C35.1965 428.394 35.8943 428.025 36.5 427.835C37.1002 427.638 37.628 427.609 38.0835 427.749C38.5458 427.884 38.9555 428.176 39.3127 428.628C39.7618 429.195 39.9866 429.823 39.9871 430.513C39.9876 431.202 39.7783 431.907 39.3592 432.628C38.9415 433.336 38.3292 434.01 37.5224 434.648C36.6883 435.309 35.8674 435.775 35.0598 436.047C34.2522 436.319 33.5083 436.391 32.8281 436.262C32.1547 436.128 31.5974 435.796 31.1562 435.267ZM43.0612 427.863L41.3972 425.76L46.638 421.612L48.302 423.715L43.0612 427.863ZM42.4267 417.956L51.8887 422.978L49.0683 425.21L41.2496 420.79L41.9265 420.254L44.4327 428.879L41.6123 431.111L38.8987 420.749L42.4267 417.956ZM49.3401 412.485L54.5026 419.008L52.3713 418.759L58.0941 414.23L59.961 416.589L52.7819 422.271L46.6941 414.579L49.3401 412.485ZM64.1969 405.497L65.6417 407.322L59.8471 411.909L58.4023 410.083L64.1969 405.497ZM60.94 409.559L62.7329 412.794L60.8512 412.482L66.6868 407.863L68.3426 409.955L60.8969 415.848L58.4171 411.556L54.8091 408.156L62.2036 402.304L63.8594 404.396L58.0751 408.974L58.2036 407.071L60.94 409.559Z" fill="#151515"/>
<circle cx="82.1111" cy="391.884" r="1.63492" transform="rotate(-8.90565 82.1111 391.884)" fill="#151515"/>
<path d="M90.238 375.491C92.3655 376.736 93.9729 378.835 94.7066 381.327C95.4404 383.819 95.2405 386.499 94.1508 388.777C93.0611 391.056 91.1709 392.747 88.896 393.478C86.6212 394.209 84.148 393.92 82.0206 392.675L82.5659 391.535C84.411 392.615 86.5559 392.865 88.5288 392.231C90.5017 391.597 92.141 390.131 93.0861 388.154C94.0312 386.178 94.2046 383.854 93.5682 381.693C92.9318 379.532 91.5378 377.711 89.6927 376.632L90.238 375.491Z" fill="white"/>
</svg>
