<svg width="80" height="18" viewBox="0 0 80 18" fill="none" xmlns="http://www.w3.org/2000/svg">
<mask id="mask0_1_3537" style="mask-type:alpha" maskUnits="userSpaceOnUse" x="0" y="0" width="80" height="18">
<path fill-rule="evenodd" clip-rule="evenodd" d="M0 0.111084H80V17.8889H0V0.111084Z" fill="white"/>
</mask>
<g mask="url(#mask0_1_3537)">
<path fill-rule="evenodd" clip-rule="evenodd" d="M5.39039 8.65562C7.28781 8.65562 8.50237 8.33656 9.38817 7.62435C10.1723 6.98585 10.5517 6.12658 10.5517 5.07073C10.5517 3.76916 9.97014 2.88532 9.05941 2.29597C8.07233 1.65747 6.85815 1.48584 4.80882 1.48584H1.54531L1.54492 8.65562H5.39039ZM0.000389533 0.11084L4.90851 0.111218C7.0338 0.111218 8.67841 0.35694 9.96893 1.16744C11.2084 1.953 12.0938 3.22962 12.0938 4.99768C12.0942 6.61831 11.335 7.94407 10.1711 8.7542C9.33633 9.34393 8.34964 9.63842 7.21104 9.81042L13.3333 17.8882L11.4612 17.8886L5.49008 9.93291H1.54372L1.54333 17.8882H0L0.000389533 0.11084Z" fill="white"/>
<path fill-rule="evenodd" clip-rule="evenodd" d="M31.1114 5.66699H32.2222L32.2219 17.8892H31.1111L31.1114 5.66699Z" fill="white"/>
<path fill-rule="evenodd" clip-rule="evenodd" d="M36.9712 15.3684C38.3201 16.1767 40.0501 16.6051 41.7038 16.6051C43.8159 16.6051 45.1647 15.9153 45.1651 14.5124C45.1647 12.753 43.0782 12.5626 41.1193 12.277C39.0327 11.968 36.666 11.3973 36.666 9.01948C36.6664 6.80788 38.6762 5.66675 41.5263 5.66675C43.1546 5.66675 44.809 6.04713 46.0306 6.66547L46.0302 8.13975C44.7072 7.3552 43.0276 6.95102 41.4758 6.95102C39.5162 6.95102 38.1677 7.5928 38.1673 8.92466C38.1677 10.5652 40.2033 10.7317 42.0858 11.0173C44.3506 11.3501 46.666 11.9205 46.666 14.3935C46.666 16.7002 44.6558 17.889 41.6278 17.889C39.9738 17.889 38.2433 17.532 36.9712 16.8665V15.3684Z" fill="white"/>
<path fill-rule="evenodd" clip-rule="evenodd" d="M51.3006 13.6113L51.301 7.11216H48.8887L48.8891 5.86942H51.301V2.57201L52.7531 2.33325V5.86979H56.6664V7.11216H52.7531V13.3726C52.7531 15.1407 53.0233 16.5982 54.9434 16.5986C55.5831 16.5982 56.1985 16.4312 56.6664 16.1682L56.6661 17.5066C56.1985 17.7214 55.4849 17.8888 54.7464 17.8888C53.8604 17.8888 52.8513 17.6497 52.162 16.8848C51.5466 16.1921 51.3006 15.1407 51.3006 13.6113Z" fill="white"/>
<path fill-rule="evenodd" clip-rule="evenodd" d="M66.6301 15.2541V12.62C65.7218 12.3591 64.6707 12.1929 63.7146 12.1929C62.0422 12.1929 60.3217 12.7146 60.322 14.4473C60.3217 15.9662 61.6357 16.6305 63.0694 16.6309C64.4077 16.6309 65.6979 16.0612 66.6301 15.2541ZM60.1068 17.0816C59.3424 16.5123 58.8884 15.658 58.8884 14.5663C58.8884 13.332 59.462 12.4539 60.3699 11.8606C61.2543 11.2913 62.4488 11.0779 63.5958 11.0775C64.6711 11.0775 65.6504 11.2438 66.6305 11.505V10.1524C66.6305 9.01309 66.4153 8.27757 65.7704 7.70793C65.2204 7.23329 64.4085 6.97203 63.3567 6.97203C61.9713 6.97203 60.7047 7.42292 59.7489 8.11131V6.71115C60.7047 6.11739 62.0187 5.66687 63.5006 5.6665C64.9103 5.66687 66.057 6.02276 66.8457 6.6874C67.6337 7.35204 68.0402 8.39595 68.0402 9.82023V14.875C68.0398 15.8718 68.2786 16.6077 69.2347 16.6073C69.5213 16.6073 69.7843 16.5364 69.9995 16.4177L69.9992 17.6282C69.7365 17.7466 69.3782 17.8178 68.9717 17.8178C67.9681 17.8178 67.1797 17.3432 66.8453 16.4411H66.7975C65.9135 17.2007 64.4799 17.8887 62.8788 17.8887C61.8753 17.8887 60.8717 17.6516 60.1068 17.0816Z" fill="white"/>
<path fill-rule="evenodd" clip-rule="evenodd" d="M74.6346 13.6117L74.635 7.11216H72.2227L72.223 5.86979H74.635V2.57238L76.0871 2.33325V5.86979H80.0004V7.11216H76.0871V13.3726C76.0871 15.141 76.3573 16.5986 78.2774 16.5986C78.917 16.5986 79.5324 16.4312 80.0004 16.1685L80.0001 17.5066C79.5324 17.7218 78.8189 17.8888 78.0803 17.8888C77.1944 17.8888 76.1852 17.65 75.496 16.8852C74.8806 16.1925 74.6346 15.141 74.6346 13.6117Z" fill="white"/>
<path fill-rule="evenodd" clip-rule="evenodd" d="M23.5407 10.0398C23.8813 10.5293 24.0805 11.1275 24.0805 11.778C24.0805 13.4427 22.7911 14.7742 21.1122 14.7742C19.4336 14.7742 18.1438 13.4423 18.1438 11.778C18.1438 10.1138 19.4336 8.78189 21.1125 8.78189C21.8614 8.78189 22.5315 9.04841 23.0455 9.48992L25.2276 6.90782C24.1116 6.12584 22.6964 5.66711 21.1125 5.66675C17.2923 5.66675 14.4457 8.33012 14.4453 11.778C14.4453 15.226 17.2923 17.889 21.1122 17.889C24.932 17.8893 27.7786 15.2263 27.7786 11.7784C27.7786 10.3459 27.2864 9.05024 26.4383 8.02333L23.5407 10.0398Z" fill="#2589FF"/>
<path fill-rule="evenodd" clip-rule="evenodd" d="M31.5979 3.44442L34.4447 1.2983C34.1038 0.851002 33.7045 0.452015 33.255 0.111084L31.1113 2.85879C31.2957 3.03023 31.4584 3.22739 31.5979 3.44442Z" fill="#2589FF"/>
</g>
</svg>
